<?xml version="1.0" encoding="utf-8"?>
<!-- Generator: Adobe Illustrator 26.1.0, SVG Export Plug-In . SVG Version: 6.00 Build 0)  -->
<svg version="1.0" id="Calque_1" xmlns="http://www.w3.org/2000/svg" xmlns:xlink="http://www.w3.org/1999/xlink" x="0px" y="0px"
	 viewBox="0 0 222.59 30" style="enable-background:new 0 0 222.59 30;" xml:space="preserve">
<g style="enable-background:new    ;">
	<path style="fill:#2A2A2A;" d="M38.28,19.76V6.96h3.94c1.12,0,2.13,0.25,3.02,0.76s1.58,1.23,2.08,2.16c0.5,0.94,0.75,2,0.75,3.19
		v0.59c0,1.19-0.24,2.25-0.73,3.17s-1.18,1.64-2.07,2.15s-1.9,0.77-3.01,0.77h-3.98V19.76z M40.91,9.1v8.54h1.27
		c1.03,0,1.82-0.34,2.36-1.01s0.82-1.64,0.83-2.89v-0.68c0-1.3-0.27-2.29-0.81-2.96s-1.31-1-2.34-1H40.91z"/>
	<path style="fill:#2A2A2A;" d="M49.41,14.93c0-1.48,0.33-2.66,1-3.54s1.57-1.32,2.73-1.32c0.93,0,1.69,0.35,2.29,1.04V6.26h2.55
		v13.5h-2.29l-0.12-1.01c-0.63,0.79-1.45,1.19-2.44,1.19c-1.12,0-2.02-0.44-2.69-1.32S49.41,16.5,49.41,14.93z M51.95,15.12
		c0,0.89,0.16,1.58,0.47,2.05s0.76,0.71,1.35,0.71c0.79,0,1.34-0.33,1.66-1v-3.76c-0.32-0.66-0.86-1-1.64-1
		C52.57,12.14,51.95,13.13,51.95,15.12z"/>
	<path style="fill:#2A2A2A;" d="M64.33,19.94c-1.39,0-2.53-0.43-3.41-1.28s-1.31-2-1.31-3.42v-0.25c0-0.96,0.18-1.81,0.55-2.56
		s0.89-1.33,1.57-1.74s1.45-0.61,2.32-0.61c1.3,0,2.32,0.41,3.07,1.23s1.12,1.98,1.12,3.49v1.04h-6.06
		c0.08,0.62,0.33,1.12,0.74,1.49s0.94,0.56,1.57,0.56c0.98,0,1.74-0.35,2.29-1.06l1.25,1.4c-0.38,0.54-0.9,0.96-1.55,1.26
		C65.84,19.78,65.12,19.94,64.33,19.94z M64.04,12.12c-0.5,0-0.91,0.17-1.23,0.51c-0.31,0.34-0.51,0.83-0.6,1.47h3.53v-0.2
		c-0.01-0.57-0.16-1-0.46-1.31C64.99,12.28,64.58,12.12,64.04,12.12z"/>
	<path style="fill:#2A2A2A;" d="M73.13,16.66l1.77-6.41h2.65l-3.21,9.51h-2.43l-3.21-9.51h2.65L73.13,16.66z"/>
	<path style="fill:#2A2A2A;" d="M78.65,7.79c0-0.38,0.13-0.69,0.38-0.94s0.6-0.37,1.04-0.37c0.43,0,0.78,0.12,1.04,0.37
		s0.39,0.56,0.39,0.94c0,0.39-0.13,0.7-0.39,0.95s-0.6,0.37-1.03,0.37s-0.77-0.12-1.03-0.37S78.65,8.18,78.65,7.79z M81.34,19.76
		H78.8v-9.51h2.55v9.51H81.34z"/>
	<path style="fill:#2A2A2A;" d="M86.12,19.76h-2.55V6.26h2.55V19.76z"/>
	<path style="fill:#2A2A2A;" d="M90.89,19.76h-2.55V6.26h2.55V19.76z"/>
	<path style="fill:#2A2A2A;" d="M97.36,19.94c-1.39,0-2.53-0.43-3.41-1.28s-1.31-2-1.31-3.42v-0.25c0-0.96,0.18-1.81,0.55-2.56
		s0.89-1.33,1.57-1.74s1.45-0.61,2.32-0.61c1.3,0,2.32,0.41,3.07,1.23s1.12,1.98,1.12,3.49v1.04h-6.06
		c0.08,0.62,0.33,1.12,0.74,1.49s0.94,0.56,1.57,0.56c0.98,0,1.74-0.35,2.29-1.06l1.25,1.4c-0.38,0.54-0.9,0.96-1.55,1.26
		C98.87,19.78,98.15,19.94,97.36,19.94z M97.07,12.12c-0.5,0-0.91,0.17-1.23,0.51c-0.31,0.34-0.51,0.83-0.6,1.47h3.53v-0.2
		c-0.01-0.57-0.16-1-0.46-1.31C98.02,12.28,97.61,12.12,97.07,12.12z"/>
	<path style="fill:#2A2A2A;" d="M105.39,19.76h-2.55V6.26h2.55V19.76z"/>
	<path style="fill:#2A2A2A;" d="M111.86,19.94c-1.39,0-2.53-0.43-3.41-1.28s-1.31-2-1.31-3.42v-0.25c0-0.96,0.18-1.81,0.55-2.56
		s0.89-1.33,1.57-1.74s1.45-0.61,2.32-0.61c1.3,0,2.32,0.41,3.07,1.23s1.12,1.98,1.12,3.49v1.04h-6.06
		c0.08,0.62,0.33,1.12,0.74,1.49s0.94,0.56,1.57,0.56c0.98,0,1.74-0.35,2.29-1.06l1.25,1.4c-0.38,0.54-0.9,0.96-1.55,1.26
		C113.37,19.78,112.65,19.94,111.86,19.94z M111.57,12.12c-0.5,0-0.91,0.17-1.23,0.51c-0.31,0.34-0.51,0.83-0.6,1.47h3.53v-0.2
		c-0.01-0.57-0.16-1-0.46-1.31C112.52,12.28,112.11,12.12,111.57,12.12z"/>
	<path style="fill:#2A2A2A;" d="M131.61,15.05c-0.06,1.5-0.44,2.69-1.11,3.57c-0.68,0.88-1.59,1.32-2.73,1.32
		c-0.5,0-0.94-0.11-1.31-0.33s-0.64-0.53-0.83-0.93c-0.59,0.82-1.35,1.23-2.29,1.23c-0.86,0-1.52-0.36-1.99-1.08
		s-0.64-1.67-0.53-2.86c0.11-0.97,0.35-1.83,0.73-2.58c0.38-0.75,0.87-1.33,1.45-1.74s1.22-0.61,1.9-0.61
		c0.84,0,1.55,0.19,2.14,0.58l0.55,0.38l-0.45,5.08c-0.06,0.46-0.01,0.82,0.15,1.06s0.42,0.37,0.77,0.37c0.54,0,0.99-0.31,1.35-0.95
		c0.36-0.63,0.56-1.45,0.6-2.47c0.1-2.04-0.31-3.62-1.23-4.72s-2.29-1.65-4.1-1.65c-1.13,0-2.14,0.29-3.02,0.86
		s-1.58,1.39-2.09,2.45s-0.8,2.27-0.86,3.63c-0.09,2.07,0.32,3.68,1.25,4.81c0.93,1.13,2.31,1.7,4.16,1.7c0.49,0,1-0.05,1.53-0.16
		s0.99-0.25,1.38-0.44l0.33,1.35c-0.36,0.23-0.84,0.42-1.45,0.57s-1.22,0.22-1.83,0.22c-1.55,0-2.87-0.31-3.96-0.94
		c-1.09-0.62-1.9-1.54-2.44-2.76c-0.54-1.21-0.77-2.67-0.7-4.35c0.07-1.62,0.44-3.07,1.11-4.35s1.58-2.27,2.73-2.97
		s2.45-1.05,3.9-1.05c1.47,0,2.74,0.32,3.8,0.95c1.06,0.63,1.85,1.53,2.38,2.7S131.67,13.5,131.61,15.05z M122.78,15.98
		c-0.06,0.77,0,1.36,0.2,1.76s0.52,0.6,0.97,0.6c0.29,0,0.56-0.13,0.82-0.38s0.47-0.62,0.64-1.09l0.37-4.16
		c-0.23-0.08-0.46-0.11-0.7-0.11c-0.67,0-1.2,0.29-1.57,0.86S122.89,14.88,122.78,15.98z"/>
	<path style="fill:#2A2A2A;" d="M132.95,14.93c0-1.46,0.35-2.63,1.04-3.52s1.63-1.34,2.81-1.34c1.04,0,1.85,0.36,2.43,1.07l0.11-0.9
		h2.3v9.19c0,0.83-0.19,1.56-0.57,2.17s-0.91,1.08-1.6,1.41s-1.49,0.48-2.41,0.48c-0.7,0-1.38-0.14-2.04-0.42s-1.16-0.64-1.5-1.08
		l1.12-1.55c0.63,0.71,1.4,1.06,2.3,1.06c0.67,0,1.2-0.18,1.57-0.54c0.38-0.36,0.56-0.87,0.56-1.53v-0.51
		c-0.59,0.66-1.36,0.99-2.31,0.99c-1.14,0-2.07-0.45-2.77-1.34s-1.06-2.08-1.06-3.56v-0.08H132.95z M135.49,15.12
		c0,0.86,0.17,1.54,0.52,2.03s0.82,0.74,1.42,0.74c0.77,0,1.33-0.29,1.66-0.87v-4.01c-0.34-0.58-0.89-0.87-1.64-0.87
		c-0.61,0-1.09,0.25-1.44,0.75C135.67,13.39,135.49,14.13,135.49,15.12z"/>
	<path style="fill:#2A2A2A;" d="M145.98,10.25l0.08,1.06c0.67-0.83,1.58-1.24,2.73-1.24c1.22,0,2.07,0.48,2.52,1.45
		c0.67-0.97,1.62-1.45,2.86-1.45c1.03,0,1.8,0.3,2.3,0.9c0.5,0.6,0.76,1.5,0.76,2.71v6.07h-2.55v-6.06c0-0.54-0.11-0.93-0.32-1.18
		s-0.58-0.37-1.12-0.37c-0.76,0-1.29,0.36-1.58,1.09l0.01,6.53h-2.54V13.7c0-0.55-0.11-0.95-0.33-1.2s-0.59-0.37-1.11-0.37
		c-0.72,0-1.24,0.3-1.56,0.9v6.72h-2.54v-9.51h2.39V10.25z"/>
	<path style="fill:#2A2A2A;" d="M164.69,19.76c-0.12-0.23-0.2-0.51-0.25-0.85c-0.62,0.69-1.42,1.03-2.4,1.03
		c-0.93,0-1.7-0.27-2.32-0.81s-0.92-1.22-0.92-2.04c0-1.01,0.37-1.78,1.12-2.32s1.83-0.81,3.24-0.82h1.17V13.4
		c0-0.44-0.11-0.79-0.34-1.05s-0.58-0.4-1.07-0.4c-0.43,0-0.76,0.1-1.01,0.31s-0.36,0.49-0.36,0.84h-2.54
		c0-0.55,0.17-1.06,0.51-1.53s0.82-0.84,1.44-1.1s1.32-0.4,2.09-0.4c1.17,0,2.1,0.29,2.79,0.88c0.69,0.59,1.03,1.42,1.03,2.48v4.12
		c0.01,0.9,0.13,1.58,0.38,2.05v0.15h-2.56V19.76z M162.59,17.99c0.38,0,0.72-0.08,1.04-0.25c0.32-0.17,0.55-0.39,0.7-0.67v-1.63
		h-0.95c-1.27,0-1.95,0.44-2.03,1.32l-0.01,0.15c0,0.32,0.11,0.58,0.33,0.78S162.2,17.99,162.59,17.99z"/>
	<path style="fill:#2A2A2A;" d="M168.81,7.79c0-0.38,0.13-0.69,0.38-0.94s0.6-0.37,1.04-0.37c0.43,0,0.78,0.12,1.04,0.37
		s0.39,0.56,0.39,0.94c0,0.39-0.13,0.7-0.39,0.95s-0.6,0.37-1.03,0.37s-0.77-0.12-1.03-0.37S168.81,8.18,168.81,7.79z M171.51,19.76
		h-2.55v-9.51h2.55V19.76z"/>
	<path style="fill:#2A2A2A;" d="M176.28,19.76h-2.55V6.26h2.55V19.76z"/>
	<path style="fill:#2A2A2A;" d="M178.51,18.51c0-0.4,0.14-0.73,0.41-0.98s0.61-0.38,1.02-0.38c0.42,0,0.76,0.13,1.03,0.38
		s0.41,0.58,0.41,0.98s-0.13,0.72-0.4,0.97c-0.27,0.25-0.62,0.37-1.04,0.37s-0.76-0.12-1.03-0.37
		C178.64,19.23,178.51,18.91,178.51,18.51z"/>
	<path style="fill:#2A2A2A;" d="M187.56,17.89c0.47,0,0.85-0.13,1.14-0.39s0.45-0.6,0.46-1.03h2.38c-0.01,0.64-0.18,1.23-0.53,1.77
		s-0.82,0.95-1.42,1.25c-0.6,0.29-1.26,0.44-1.99,0.44c-1.36,0-2.43-0.43-3.22-1.3c-0.79-0.86-1.18-2.06-1.18-3.58v-0.17
		c0-1.46,0.39-2.63,1.17-3.51s1.85-1.31,3.21-1.31c1.19,0,2.14,0.34,2.86,1.02s1.08,1.58,1.09,2.7h-2.38
		c-0.01-0.5-0.16-0.9-0.46-1.21s-0.68-0.46-1.16-0.46c-0.59,0-1.04,0.22-1.34,0.65c-0.3,0.43-0.45,1.13-0.45,2.1v0.26
		c0,0.98,0.15,1.68,0.45,2.11S186.95,17.89,187.56,17.89z"/>
	<path style="fill:#2A2A2A;" d="M192.6,14.92c0-0.94,0.18-1.78,0.54-2.52s0.89-1.31,1.57-1.71s1.48-0.61,2.38-0.61
		c1.28,0,2.33,0.39,3.14,1.18s1.26,1.85,1.36,3.2l0.02,0.65c0,1.46-0.41,2.63-1.22,3.51s-1.91,1.32-3.28,1.32s-2.47-0.44-3.28-1.32
		s-1.23-2.07-1.23-3.59L192.6,14.92L192.6,14.92z M195.14,15.1c0,0.9,0.17,1.59,0.51,2.07s0.83,0.72,1.46,0.72
		c0.62,0,1.1-0.24,1.44-0.71c0.35-0.47,0.52-1.23,0.52-2.27c0-0.89-0.17-1.57-0.52-2.06s-0.83-0.73-1.46-0.73
		c-0.62,0-1.1,0.24-1.44,0.73C195.31,13.33,195.14,14.08,195.14,15.1z"/>
	<path style="fill:#2A2A2A;" d="M205.55,10.25l0.08,1.06c0.67-0.83,1.58-1.24,2.73-1.24c1.22,0,2.07,0.48,2.52,1.45
		c0.67-0.97,1.62-1.45,2.86-1.45c1.03,0,1.8,0.3,2.3,0.9c0.5,0.6,0.76,1.5,0.76,2.71v6.07h-2.55v-6.06c0-0.54-0.11-0.93-0.32-1.18
		s-0.58-0.37-1.12-0.37c-0.76,0-1.29,0.36-1.58,1.09l0.01,6.53h-2.54V13.7c0-0.55-0.11-0.95-0.33-1.2s-0.59-0.37-1.11-0.37
		c-0.72,0-1.24,0.3-1.56,0.9v6.72h-2.54v-9.51h2.39V10.25z"/>
</g>
<g>
	<g>
		<g id="gmail_00000070112759863576581170000018237193227835176854_">
			<path style="fill:#2A2A2A;" d="M28.49,4.55H7.59c-1.44,0-2.61,1.18-2.61,2.61v15.66c0,1.44,1.18,2.61,2.61,2.61h20.89
				c1.44,0,2.61-1.18,2.61-2.61V7.17C31.09,5.73,29.92,4.55,28.49,4.55z M28.49,22.83h-2.61V11.34l-7.83,4.96l-7.83-4.96v11.49H7.59
				V7.17h1.57l8.88,5.48l8.88-5.48h1.57C28.49,7.17,28.49,22.83,28.49,22.83z"/>
		</g>
	</g>
</g>
<g>
	<path style="fill:#2A2A2A;" d="M217.5,1c2.15,0,3.9,1.75,3.9,3.9V25c0,2.21-1.79,4-4,4H4.9C2.75,29,1,27.25,1,25.1V4.9
		C1,2.75,2.75,1,4.9,1H217.5 M217.5,0H4.9C2.19,0,0,2.19,0,4.9v20.2C0,27.81,2.19,30,4.9,30h212.5c2.76,0,5-2.24,5-5V4.9
		C222.4,2.19,220.21,0,217.5,0L217.5,0z"/>
</g>
</svg>
