<?xml version="1.0" encoding="utf-8"?>
<!-- Generator: Adobe Illustrator 26.1.0, SVG Export Plug-In . SVG Version: 6.00 Build 0)  -->
<svg version="1.0" id="Calque_1" xmlns="http://www.w3.org/2000/svg" xmlns:xlink="http://www.w3.org/1999/xlink" x="0px" y="0px"
	 viewBox="0 0 183.4 30" style="enable-background:new 0 0 183.4 30;" xml:space="preserve">
<g style="enable-background:new    ;">
	<path style="fill:#FFFFFF;" d="M33.2,21.66V8.87h3.94c1.12,0,2.13,0.25,3.02,0.76s1.58,1.23,2.08,2.16c0.5,0.94,0.75,2,0.75,3.19
		v0.59c0,1.19-0.24,2.25-0.73,3.17s-1.18,1.64-2.07,2.15s-1.9,0.77-3.01,0.77H33.2z M35.83,11v8.54h1.27c1.03,0,1.82-0.34,2.36-1.01
		s0.82-1.64,0.83-2.89v-0.68c0-1.3-0.27-2.29-0.81-2.96s-1.31-1-2.34-1H35.83z"/>
	<path style="fill:#FFFFFF;" d="M44.33,16.82c0-0.94,0.18-1.78,0.54-2.52s0.89-1.31,1.57-1.71s1.48-0.61,2.38-0.61
		c1.28,0,2.33,0.39,3.14,1.18s1.26,1.85,1.36,3.2L53.34,17c0,1.46-0.41,2.63-1.22,3.51s-1.91,1.32-3.28,1.32s-2.47-0.44-3.28-1.32
		s-1.23-2.07-1.23-3.59V16.82z M46.87,17c0,0.9,0.17,1.59,0.51,2.07s0.83,0.72,1.46,0.72c0.62,0,1.1-0.24,1.44-0.71
		c0.35-0.47,0.52-1.23,0.52-2.27c0-0.89-0.17-1.57-0.52-2.06s-0.83-0.73-1.46-0.73c-0.62,0-1.1,0.24-1.44,0.73
		C47.04,15.23,46.87,15.98,46.87,17z"/>
	<path style="fill:#FFFFFF;" d="M60.25,14.53c-0.35-0.05-0.65-0.07-0.91-0.07c-0.96,0-1.59,0.33-1.89,0.98v6.22h-2.54v-9.51h2.4
		l0.07,1.13c0.51-0.87,1.22-1.31,2.12-1.31c0.28,0,0.54,0.04,0.79,0.11L60.25,14.53z"/>
	<path style="fill:#FFFFFF;" d="M61.45,9.69c0-0.38,0.13-0.69,0.38-0.94s0.6-0.37,1.04-0.37c0.43,0,0.78,0.12,1.04,0.37
		s0.39,0.56,0.39,0.94c0,0.39-0.13,0.7-0.39,0.95s-0.6,0.37-1.03,0.37s-0.77-0.12-1.03-0.37S61.45,10.08,61.45,9.69z M64.15,21.66
		H61.6v-9.51h2.55V21.66z"/>
	<path style="fill:#FFFFFF;" d="M71.76,21.66c-0.12-0.23-0.2-0.51-0.25-0.85c-0.62,0.69-1.42,1.03-2.4,1.03
		c-0.93,0-1.7-0.27-2.32-0.81s-0.92-1.22-0.92-2.04c0-1.01,0.37-1.78,1.12-2.32s1.83-0.81,3.24-0.82h1.17v-0.54
		c0-0.44-0.11-0.79-0.34-1.05s-0.58-0.4-1.07-0.4c-0.43,0-0.76,0.1-1.01,0.31s-0.36,0.49-0.36,0.84h-2.54
		c0-0.55,0.17-1.06,0.51-1.53s0.82-0.84,1.44-1.1s1.32-0.4,2.09-0.4c1.17,0,2.1,0.29,2.79,0.88s1.03,1.42,1.03,2.48v4.12
		c0.01,0.9,0.13,1.58,0.38,2.05v0.15C74.32,21.66,71.76,21.66,71.76,21.66z M69.65,19.9c0.38,0,0.72-0.08,1.04-0.25
		s0.55-0.39,0.7-0.67v-1.63h-0.95c-1.27,0-1.95,0.44-2.03,1.32l-0.01,0.15c0,0.32,0.11,0.58,0.33,0.78S69.27,19.9,69.65,19.9z"/>
	<path style="fill:#FFFFFF;" d="M78.23,12.15l0.08,1.1c0.68-0.85,1.59-1.27,2.73-1.27c1.01,0,1.76,0.3,2.25,0.89
		s0.74,1.48,0.76,2.65v6.14h-2.54v-6.08c0-0.54-0.12-0.93-0.35-1.17c-0.23-0.24-0.62-0.36-1.17-0.36c-0.71,0-1.25,0.3-1.61,0.91
		v6.71h-2.54v-9.51h2.39V12.15z"/>
	<path style="fill:#FFFFFF;" d="M90.06,16.84c0-1.48,0.33-2.66,1-3.54s1.57-1.32,2.73-1.32c0.93,0,1.69,0.35,2.29,1.04V8.16h2.55
		v13.5h-2.29l-0.12-1.01c-0.63,0.79-1.45,1.19-2.44,1.19c-1.12,0-2.02-0.44-2.69-1.32S90.06,18.41,90.06,16.84z M92.6,17.03
		c0,0.89,0.16,1.58,0.47,2.05s0.76,0.71,1.35,0.71c0.79,0,1.34-0.33,1.66-1v-3.76c-0.32-0.66-0.86-1-1.64-1
		C93.22,14.04,92.6,15.04,92.6,17.03z"/>
	<path style="fill:#FFFFFF;" d="M104.98,21.84c-1.39,0-2.53-0.43-3.41-1.28s-1.31-2-1.31-3.42v-0.25c0-0.96,0.18-1.81,0.55-2.56
		s0.89-1.33,1.57-1.74s1.45-0.61,2.32-0.61c1.3,0,2.32,0.41,3.07,1.23s1.12,1.98,1.12,3.49v1.04h-6.06
		c0.08,0.62,0.33,1.12,0.74,1.49s0.94,0.56,1.57,0.56c0.98,0,1.74-0.35,2.29-1.06l1.25,1.4c-0.38,0.54-0.9,0.96-1.55,1.26
		C106.49,21.69,105.77,21.84,104.98,21.84z M104.69,14.02c-0.5,0-0.91,0.17-1.23,0.51c-0.31,0.34-0.51,0.83-0.6,1.47h3.53v-0.2
		c-0.01-0.57-0.16-1-0.46-1.31C105.64,14.18,105.23,14.02,104.69,14.02z"/>
	<path style="fill:#FFFFFF;" d="M119.71,18.49l2.9-9.62h2.94l-4.46,12.8h-2.75l-4.44-12.8h2.93L119.71,18.49z"/>
	<path style="fill:#FFFFFF;" d="M129.55,21.66h-2.64V8.87h2.64V21.66z"/>
	<path style="fill:#FFFFFF;" d="M134.63,19.54h5.6v2.12H132V8.87h2.64L134.63,19.54L134.63,19.54z"/>
	<path style="fill:#FFFFFF;" d="M144.38,19.54h5.6v2.12h-8.24V8.87h2.64V19.54z"/>
	<path style="fill:#FFFFFF;" d="M159.19,16.12h-5.06v3.43h5.94v2.12h-8.58V8.87h8.56V11h-5.92v3.05h5.06V16.12z"/>
	<path style="fill:#FFFFFF;" d="M164.25,19.54h5.6v2.12h-8.24V8.87h2.64V19.54z"/>
	<path style="fill:#FFFFFF;" d="M179.06,16.12H174v3.43h5.94v2.12h-8.58V8.87h8.56V11H174v3.05h5.06V16.12z"/>
</g>
<g>
	<path style="fill:#FFFFFF;" d="M178.4,1c2.21,0,4,1.79,4,4v20c0,2.21-1.79,4-4,4H5c-2.21,0-4-1.79-4-4V5c0-2.21,1.79-4,4-4H178.4
		 M178.4,0H5C2.24,0,0,2.24,0,5v20c0,2.76,2.24,5,5,5h173.4c2.76,0,5-2.24,5-5V5C183.4,2.24,181.16,0,178.4,0L178.4,0z"/>
</g>
<g>
	<g>
		<rect x="4.97" y="11.47" style="fill:#FFFFFF;" width="4.2" height="12.93"/>
		<path style="fill:#FFFFFF;" d="M20.63,11.62c-0.05-0.02-0.09-0.03-0.13-0.04c-0.05-0.02-0.11-0.02-0.17-0.03
			c-0.23-0.05-0.47-0.08-0.76-0.08c-2.45,0-4.01,1.78-4.52,2.47v-2.47h-4.2V24.4h4.2v-7.05c0,0,3.18-4.42,4.52-1.17
			c0,2.9,0,8.23,0,8.23h4.2v-8.74C23.78,13.72,22.44,12.08,20.63,11.62z"/>
		<circle style="fill:#FFFFFF;" cx="7.02" cy="7.65" r="2.06"/>
	</g>
</g>
</svg>
