<?xml version="1.0" encoding="utf-8"?>
<!-- Generator: Adobe Illustrator 26.1.0, SVG Export Plug-In . SVG Version: 6.00 Build 0)  -->
<svg version="1.0" id="Calque_1" xmlns="http://www.w3.org/2000/svg" xmlns:xlink="http://www.w3.org/1999/xlink" x="0px" y="0px"
	 viewBox="0 0 132 30" style="enable-background:new 0 0 132 30;" xml:space="preserve">
<g id="Rectangle_14">
	<path style="fill:#FFFFFF;" d="M127,1c2.21,0,4,1.79,4,4v20c0,2.21-1.79,4-4,4H5c-2.21,0-4-1.79-4-4V5c0-2.21,1.79-4,4-4H127
		 M127,0H5C2.24,0,0,2.24,0,5v20c0,2.76,2.24,5,5,5h122c2.76,0,5-2.24,5-5V5C132,2.24,129.76,0,127,0L127,0z"/>
</g>
<g>
	<g style="enable-background:new    ;">
		<path style="fill:#FFFFFF;" d="M33.37,19.26h5.6v2.12h-8.24V8.58h2.64V19.26z"/>
		<path style="fill:#FFFFFF;" d="M45.83,21.38c-0.12-0.23-0.2-0.51-0.25-0.85c-0.62,0.69-1.42,1.03-2.4,1.03
			c-0.93,0-1.7-0.27-2.32-0.81s-0.92-1.22-0.92-2.04c0-1.01,0.37-1.78,1.12-2.32s1.83-0.81,3.24-0.82h1.17v-0.54
			c0-0.44-0.11-0.79-0.34-1.05s-0.58-0.4-1.07-0.4c-0.43,0-0.76,0.1-1.01,0.31s-0.36,0.49-0.36,0.84h-2.54
			c0-0.55,0.17-1.06,0.51-1.53s0.82-0.84,1.44-1.1s1.32-0.4,2.09-0.4c1.17,0,2.1,0.29,2.79,0.88c0.69,0.59,1.03,1.42,1.03,2.48v4.12
			c0.01,0.9,0.13,1.58,0.38,2.05v0.15H45.83z M43.73,19.61c0.38,0,0.72-0.08,1.04-0.25s0.55-0.39,0.7-0.67v-1.63h-0.95
			c-1.27,0-1.95,0.44-2.03,1.32l-0.01,0.15c0,0.32,0.11,0.58,0.33,0.78S43.34,19.61,43.73,19.61z"/>
		<path style="fill:#FFFFFF;" d="M53.58,8.58l3.29,9.28l3.27-9.28h3.46v12.8h-2.65v-3.5l0.26-6.04l-3.45,9.54h-1.81l-3.45-9.53
			l0.26,6.03v3.5h-2.64V8.58H53.58z"/>
		<path style="fill:#FFFFFF;" d="M74.24,16.09c0,1.77-0.37,3.12-1.1,4.06s-1.8,1.41-3.22,1.41c-1.39,0-2.46-0.46-3.2-1.38
			s-1.12-2.24-1.13-3.96v-2.36c0-1.79,0.37-3.14,1.11-4.07s1.81-1.39,3.2-1.39s2.46,0.46,3.2,1.38s1.12,2.23,1.13,3.95v2.36H74.24z
			 M71.7,13.5c0-1.06-0.15-1.83-0.44-2.32c-0.29-0.48-0.74-0.73-1.36-0.73c-0.6,0-1.04,0.23-1.32,0.69s-0.44,1.18-0.45,2.16v3.11
			c0,1.04,0.14,1.82,0.43,2.33c0.28,0.51,0.74,0.76,1.37,0.76c0.62,0,1.07-0.24,1.34-0.73c0.28-0.49,0.42-1.23,0.43-2.23V13.5z"/>
		<path style="fill:#FFFFFF;" d="M81.76,20.41c-0.63,0.76-1.49,1.14-2.6,1.14c-1.02,0-1.8-0.29-2.33-0.88S76.01,19.23,76,18.1v-6.23
			h2.54v6.15c0,0.99,0.45,1.49,1.35,1.49c0.86,0,1.45-0.3,1.78-0.9v-6.74h2.55v9.51h-2.39L81.76,20.41z"/>
		<path style="fill:#FFFFFF;" d="M90.51,21.55c-1.39,0-2.53-0.43-3.41-1.28s-1.31-2-1.31-3.42V16.6c0-0.96,0.18-1.81,0.55-2.56
			s0.89-1.33,1.57-1.74s1.45-0.61,2.32-0.61c1.3,0,2.32,0.41,3.07,1.23s1.12,1.98,1.12,3.49v1.04h-6.06
			c0.08,0.62,0.33,1.12,0.74,1.49s0.94,0.56,1.57,0.56c0.98,0,1.74-0.35,2.29-1.06l1.25,1.4c-0.38,0.54-0.9,0.96-1.55,1.26
			C92.02,21.4,91.3,21.55,90.51,21.55z M90.22,13.74c-0.5,0-0.91,0.17-1.23,0.51c-0.31,0.34-0.51,0.83-0.6,1.47h3.53v-0.2
			c-0.01-0.57-0.16-1-0.46-1.31C91.18,13.89,90.76,13.74,90.22,13.74z"/>
		<path style="fill:#FFFFFF;" d="M98.91,9.53v2.34h1.63v1.86h-1.63v4.75c0,0.35,0.07,0.6,0.2,0.76s0.39,0.23,0.77,0.23
			c0.28,0,0.53-0.02,0.75-0.06v1.92c-0.5,0.15-1.01,0.23-1.54,0.23c-1.78,0-2.69-0.9-2.72-2.7v-5.12h-1.39v-1.86h1.39V9.53H98.91z"
			/>
		<path style="fill:#FFFFFF;" d="M104.99,9.53v2.34h1.63v1.86h-1.63v4.75c0,0.35,0.07,0.6,0.2,0.76s0.39,0.23,0.77,0.23
			c0.28,0,0.53-0.02,0.75-0.06v1.92c-0.5,0.15-1.01,0.23-1.54,0.23c-1.78,0-2.69-0.9-2.72-2.7v-5.12h-1.39v-1.86h1.39V9.53H104.99z"
			/>
		<path style="fill:#FFFFFF;" d="M112.41,21.55c-1.39,0-2.53-0.43-3.41-1.28s-1.31-2-1.31-3.42V16.6c0-0.96,0.18-1.81,0.55-2.56
			s0.89-1.33,1.57-1.74s1.45-0.61,2.32-0.61c1.3,0,2.32,0.41,3.07,1.23s1.12,1.98,1.12,3.49v1.04h-6.06
			c0.08,0.62,0.33,1.12,0.74,1.49s0.94,0.56,1.57,0.56c0.98,0,1.74-0.35,2.29-1.06l1.25,1.4c-0.38,0.54-0.9,0.96-1.55,1.26
			C113.92,21.4,113.2,21.55,112.41,21.55z M112.12,13.74c-0.5,0-0.91,0.17-1.23,0.51c-0.31,0.34-0.51,0.83-0.6,1.47h3.53v-0.2
			c-0.01-0.57-0.16-1-0.46-1.31C113.07,13.89,112.65,13.74,112.12,13.74z"/>
	</g>
	<g style="enable-background:new    ;">
		<path style="fill:#FFFFFF;" d="M125.14,21.6h-8.01v-1.99h8.01V21.6z"/>
	</g>
</g>
<g>
	<g>
		<g>
			<path style="fill:#FFFFFF;" d="M5.87,5.4L4.67,9v13.2h4.8v2.4h2.4l2.4-2.4h3.6l4.8-5.11V5.4H5.87z M21.46,16.2l-3.36,3.6h-4.25
				l-2.58,1.88V19.8h-4.2V6.6h14.39V16.2z"/>
		</g>
	</g>
	<g>
		<g>
			<rect x="13.07" y="10.21" style="fill:#FFFFFF;" width="1.2" height="4.8"/>
		</g>
	</g>
	<g>
		<g>
			<rect x="16.67" y="10.21" style="fill:#FFFFFF;" width="1.2" height="4.8"/>
		</g>
	</g>
</g>
</svg>
