<?xml version="1.0" encoding="utf-8"?>
<!-- Generator: Adobe Illustrator 26.1.0, SVG Export Plug-In . SVG Version: 6.00 Build 0)  -->
<svg version="1.0" id="Calque_1" xmlns="http://www.w3.org/2000/svg" xmlns:xlink="http://www.w3.org/1999/xlink" x="0px" y="0px"
	 viewBox="0 0 132 30" style="enable-background:new 0 0 132 30;" xml:space="preserve">
<g id="Rectangle_14">
	<path style="fill:#2A2A2A;" d="M127,1c2.21,0,4,1.79,4,4v20c0,2.21-1.79,4-4,4H5c-2.21,0-4-1.79-4-4V5c0-2.21,1.79-4,4-4H127
		 M127,0H5C2.24,0,0,2.24,0,5v20c0,2.76,2.24,5,5,5h122c2.76,0,5-2.24,5-5V5C132,2.24,129.76,0,127,0L127,0z"/>
</g>
<g style="enable-background:new    ;">
	<path style="fill:#2A2A2A;" d="M43.5,19.28h5.6v2.12h-8.24V8.6h2.64V19.28z"/>
	<path style="fill:#2A2A2A;" d="M55.96,21.4c-0.12-0.23-0.2-0.51-0.25-0.85c-0.62,0.69-1.42,1.03-2.4,1.03
		c-0.93,0-1.7-0.27-2.32-0.81s-0.92-1.22-0.92-2.04c0-1.01,0.37-1.78,1.12-2.32s1.83-0.81,3.24-0.82h1.17v-0.54
		c0-0.44-0.11-0.79-0.34-1.05s-0.58-0.4-1.07-0.4c-0.43,0-0.76,0.1-1.01,0.31s-0.36,0.49-0.36,0.84h-2.54
		c0-0.55,0.17-1.06,0.51-1.53s0.82-0.84,1.44-1.1s1.32-0.4,2.09-0.4c1.17,0,2.1,0.29,2.79,0.88c0.69,0.59,1.03,1.42,1.03,2.48v4.12
		c0.01,0.9,0.13,1.58,0.38,2.05v0.15H55.96z M53.86,19.63c0.38,0,0.72-0.08,1.04-0.25s0.55-0.39,0.7-0.67v-1.63h-0.95
		c-1.27,0-1.95,0.44-2.03,1.32l-0.01,0.15c0,0.32,0.11,0.58,0.33,0.78S53.47,19.63,53.86,19.63z"/>
	<path style="fill:#2A2A2A;" d="M63.71,8.6L67,17.88l3.27-9.28h3.46v12.8h-2.65v-3.5l0.26-6.04l-3.45,9.54h-1.81l-3.45-9.53
		l0.26,6.03v3.5h-2.64V8.6H63.71z"/>
	<path style="fill:#2A2A2A;" d="M84.37,16.11c0,1.77-0.37,3.12-1.1,4.06s-1.8,1.41-3.22,1.41c-1.39,0-2.46-0.46-3.2-1.38
		s-1.12-2.24-1.13-3.96v-2.36c0-1.79,0.37-3.14,1.11-4.07s1.81-1.39,3.2-1.39s2.46,0.46,3.2,1.38s1.12,2.23,1.13,3.95v2.36H84.37z
		 M81.83,13.52c0-1.06-0.15-1.83-0.44-2.32c-0.29-0.48-0.74-0.73-1.36-0.73c-0.6,0-1.04,0.23-1.32,0.69s-0.44,1.18-0.45,2.16v3.11
		c0,1.04,0.14,1.82,0.43,2.33c0.28,0.51,0.74,0.76,1.37,0.76c0.62,0,1.07-0.24,1.34-0.73c0.28-0.49,0.42-1.23,0.43-2.23V13.52z"/>
	<path style="fill:#2A2A2A;" d="M91.89,20.43c-0.63,0.76-1.49,1.14-2.6,1.14c-1.02,0-1.8-0.29-2.33-0.88s-0.81-1.44-0.82-2.58v-6.23
		h2.54v6.15c0,0.99,0.45,1.49,1.35,1.49c0.86,0,1.45-0.3,1.78-0.9v-6.74h2.55v9.51h-2.39L91.89,20.43z"/>
	<path style="fill:#2A2A2A;" d="M100.64,21.57c-1.39,0-2.53-0.43-3.41-1.28s-1.31-2-1.31-3.42v-0.25c0-0.96,0.18-1.81,0.55-2.56
		s0.89-1.33,1.57-1.74s1.45-0.61,2.32-0.61c1.3,0,2.32,0.41,3.07,1.23s1.12,1.98,1.12,3.49v1.04H98.5c0.08,0.62,0.33,1.12,0.74,1.49
		s0.94,0.56,1.57,0.56c0.98,0,1.74-0.35,2.29-1.06l1.25,1.4c-0.38,0.54-0.9,0.96-1.55,1.26C102.15,21.42,101.43,21.57,100.64,21.57z
		 M100.35,13.76c-0.5,0-0.91,0.17-1.23,0.51c-0.31,0.34-0.51,0.83-0.6,1.47h3.53v-0.2c-0.01-0.57-0.16-1-0.46-1.31
		C101.31,13.92,100.89,13.76,100.35,13.76z"/>
	<path style="fill:#2A2A2A;" d="M109.03,9.55v2.34h1.63v1.86h-1.63v4.75c0,0.35,0.07,0.6,0.2,0.76s0.39,0.23,0.77,0.23
		c0.28,0,0.53-0.02,0.75-0.06v1.92c-0.5,0.15-1.01,0.23-1.54,0.23c-1.78,0-2.69-0.9-2.72-2.7v-5.12h-1.39V11.9h1.39V9.55H109.03z"/>
	<path style="fill:#2A2A2A;" d="M115.12,9.55v2.34h1.63v1.86h-1.63v4.75c0,0.35,0.07,0.6,0.2,0.76s0.39,0.23,0.77,0.23
		c0.28,0,0.53-0.02,0.75-0.06v1.92c-0.5,0.15-1.01,0.23-1.54,0.23c-1.78,0-2.69-0.9-2.72-2.7v-5.12h-1.39V11.9h1.39V9.55H115.12z"/>
	<path style="fill:#2A2A2A;" d="M122.53,21.57c-1.39,0-2.53-0.43-3.41-1.28s-1.31-2-1.31-3.42v-0.25c0-0.96,0.18-1.81,0.55-2.56
		s0.89-1.33,1.57-1.74s1.45-0.61,2.32-0.61c1.3,0,2.32,0.41,3.07,1.23s1.12,1.98,1.12,3.49v1.04h-6.06
		c0.08,0.62,0.33,1.12,0.74,1.49s0.94,0.56,1.57,0.56c0.98,0,1.74-0.35,2.29-1.06l1.25,1.4c-0.38,0.54-0.9,0.96-1.55,1.26
		C124.05,21.42,123.33,21.57,122.53,21.57z M122.24,13.76c-0.5,0-0.91,0.17-1.23,0.51c-0.31,0.34-0.51,0.83-0.6,1.47h3.53v-0.2
		c-0.01-0.57-0.16-1-0.46-1.31C123.2,13.92,122.78,13.76,122.24,13.76z"/>
</g>
<path style="fill:#2A2A2A;" d="M32.69,6.86c-0.79-1.41-1.65-1.68-3.42-1.77c-1.76-0.11-6.17-0.17-10-0.17
	c-3.84,0-8.26,0.06-10.02,0.17C7.5,5.17,6.63,5.44,5.83,6.86C5.02,8.28,4.59,10.7,4.59,15c0,0.01,0,0.01,0,0.01v0.01
	c0,4.26,0.42,6.72,1.24,8.12c0.81,1.42,1.67,1.67,3.42,1.79c1.76,0.1,6.18,0.16,10.02,0.16c3.82,0,8.25-0.06,10-0.16
	c1.76-0.12,2.62-0.37,3.42-1.79c0.82-1.4,1.24-3.86,1.24-8.13V15C33.93,10.7,33.52,8.28,32.69,6.86z M15.6,20.5v-11l9.17,5.5
	L15.6,20.5z"/>
<polygon style="fill:#FFFFFF;" points="24.77,15 15.6,20.5 15.6,9.5 "/>
</svg>
