<?xml version="1.0" encoding="utf-8"?>
<!-- Generator: Adobe Illustrator 26.2.1, SVG Export Plug-In . SVG Version: 6.00 Build 0)  -->
<svg version="1.1" id="Calque_1" xmlns="http://www.w3.org/2000/svg" xmlns:xlink="http://www.w3.org/1999/xlink" x="0px" y="0px"
	 viewBox="0 0 512 512" style="enable-background:new 0 0 512 512;" xml:space="preserve">
<style type="text/css">
	.st0{fill:#22D78E;}
	.st1{fill:#029CDF;}
	.st2{fill:#09A9CD;}
	.st3{fill:#07A6D3;}
	.st4{fill:#0FB3C1;}
	.st5{fill:#21D592;}
	.st6{fill:#0AABCC;}
	.st7{fill:#08A8CF;}
	.st8{fill:#20D493;}
	.st9{fill:#E23C8B;}
	.st10{fill:#1FD296;}
	.st11{fill:#CC4E8C;}
	.st12{fill:#0BADC8;}
	.st13{fill:#DE3F8B;}
	.st14{fill:#06A4D5;}
	.st15{fill:#05A2D8;}
	.st16{fill:#B85F8C;}
	.st17{fill:#04A0DA;}
	.st18{fill:#1ED099;}
	.st19{fill:#039EDD;}
	.st20{fill:#D4478C;}
	.st21{fill:#1DCE9B;}
	.st22{fill:#0DB1C3;}
	.st23{fill:#D8448C;}
	.st24{fill:#B3638C;}
	.st25{fill:#AC688D;}
	.st26{fill:#0CAFC6;}
	.st27{fill:#9E748D;}
	.st28{fill:#8B828D;}
	.st29{fill:#A46E8D;}
	.st30{fill:#98798D;}
	.st31{fill:#937D8D;}
	.st32{fill:#70998D;}
	.st33{fill:#7C8F8D;}
	.st34{fill:#83898D;}
	.st35{fill:#67A892;}
	.st36{fill:#0AABCB;}
	.st37{fill:#0BACC9;}
	.st38{fill:#0DB0C4;}
	.st39{fill:#15C0AE;}
	.st40{fill:#13BCB3;}
	.st41{fill:#18C6A6;}
	.st42{fill:#0EB2C1;}
	.st43{fill:#1CCB9F;}
	.st44{fill:#10B5BD;}
	.st45{fill:#0FB3C0;}
	.st46{fill:#17C3AA;}
	.st47{fill:#12BAB7;}
	.st48{fill:#11B8B9;}
	.st49{fill:#1AC9A2;}
	.st50{fill:#15BFB0;}
	.st51{fill:#1DCE9A;}
	.st52{fill:#1FD197;}
	.st53{fill:#16C1AD;}
	.st54{fill:#19C6A5;}
	.st55{fill:#14BDB2;}
	.st56{fill:#1CCC9E;}
	.st57{fill:#1AC9A3;}
	.st58{fill:#18C5A8;}
	.st59{fill:#1BCAA0;}
	.st60{fill:#20D394;}
	.st61{fill:#13BBB5;}
	.st62{fill:#10B6BC;}
	.st63{fill:#0FB5BE;}
	.st64{fill:#FEFEFE;}
	.st65{fill:#1ECF99;}
</style>
<path class="st0" d="M45.9,107.1c-0.6-9.3,3-15.3,11.4-20.4C100.5,60.2,143.2,33,186,5.9c2.5-1.6,6-2.2,6.9-5.7c0.6,0,1.1,0,1.7,0
	c0.1,0.5,0.3,1,0.7,1.4c3.3,7.1,2.1,14.5,1.6,21.8c-1.3,18.1-2.7,36.2-3.1,54.4c-0.1,6.8-0.4,13.6-3.8,19.9c-3.7,2.8-8,2.3-12.2,2.4
	c-21.5,0.1-43,0-64.5,0c-12.1,0-13.8,1.3-13.7,11.8c0,1.4-0.6,2.7-1.4,4c-2,2.2-4.6,2.1-7.1,1.7c-13.2-2-26.4-3.6-39.6-5.9
	C49,111.2,45.4,111.5,45.9,107.1z"/>
<path class="st1" d="M511.8,331c-10.5,19.3-18.1,40-27.2,60c-7.7,16.8-15.1,33.8-22.7,50.7c-5.2-2.4-4-7.2-3.4-11
	c4.1-29.3,8.3-58.5,12.5-87.8c0.9-6.1,1.1-12.3,2.5-18.4c0.7-3.1,0.9-6.2,4.4-7.6c11.3,4.1,22.6,8.2,34,12.3
	C511.8,329.9,511.8,330.4,511.8,331z"/>
<path class="st2" d="M128.1,469.1c-38-27.5-76-55-114-82.4c-4.6-3.3-9.3-6.4-13.9-9.7c0-1.1,0-2.3,0-3.4c5.6-4.6,8.6-12.4,17.1-13.3
	c5,1.6,9,5,12.5,8.6c13.4,13.8,27.8,26.6,41.8,39.8c17.5,16.5,34.5,33.6,52.6,49.5c2.3,2.1,4.8,4.1,6,7.1
	C130.8,467,131.7,469.4,128.1,469.1z"/>
<path class="st3" d="M433.2,506.6c-0.5,1.7-1,3.4-1.5,5.1c-1.1,0-2.3,0-3.4,0c-1.7-0.7-3.4-1.4-5-2.1c-2.5-7.4,0.2-14.7,1.2-21.8
	c8-55.6,15.5-111.3,23.6-166.8c0.7-5,0.1-11.3,7.6-12.3c1.5,0,2.9,0.1,3.9,1.4c0,16.2-3.7,32-5.9,48c-4.6,33.9-9.5,67.8-14.5,101.7
	c-2.1,14.3-3.1,28.7-6.7,42.8C432.1,504.1,432.3,505.4,433.2,506.6z"/>
<path class="st4" d="M17.2,361.7c-4.7,0.4-6.6,4.6-9.7,7.2c-2.3,1.9-3.9,4.8-7.4,4.8c0-1.1,0-2.3,0-3.4c3.8-6.9,2.3-15.1,5.3-22.2
	c6.8-2.3,13.1,0.1,19.4,2.2c1.9,1.3,1.5,2.9,0.7,4.5C23.3,357.8,20.8,360.3,17.2,361.7z"/>
<path d="M97.5,116.2C98.9,98,98.9,98,117.7,97.9c24-0.1,48-0.3,72-0.4c4.4-3.8,9.6-2.4,14.7-2.6c3.9,0,7.9-0.1,11.8,0.1
	c1.9,0,3.9-0.1,5.8,0c2.4-0.1,4.8,0,7.2,0c4.8-0.1,9.7-0.1,14.5,0c3.8,0,7.6-0.1,11.3,0.1c1.8,0,3.6-0.1,5.4,0.1
	c1.7,0,3.5,0,5.2,0.1c1.3,0,2.6,0,3.8,0c1.7,0,3.4,0,5.1,0c1.3,0,2.6,0,3.9-0.1c1.4-0.1,2.8-0.1,4.1-0.1c1-0.1,1.9-0.1,2.9-0.1
	c11.2-0.4,22.5,0,33.7-0.2c9.6-0.1,19.1-0.2,28.7,0.1c9.1-0.4,18.1-0.1,27.2-0.1c8.5-0.3,17.1,0,25.6,0c14.4,0.1,16.3,2,16.2,16.1
	c0.2,8.5,0.3,17.1,0,25.6c0.2,8,0.3,16,0,24c0.2,9.6,0.3,19.3,0,28.9c0.2,8.1,0.3,16.2,0.1,24.3c0.2,10.7,0.2,21.4,0.2,32.1
	c0,4.8-0.3,9.6-2.8,13.9c-0.9,11.2-0.9,22.4,0,33.6c2.9,3.3,2.8,7.3,2.8,11.2c0.2,12.7-0.6,25.4-0.2,38.1c0.5,13.5-0.3,27-0.1,40.5
	c0.1,5.7-0.2,11.3,0,17c0.1,4,0.3,8-1,12c-0.6,1.4-1.5,2.5-2.8,3.4c-2.7,1.4-5.5,1.4-8.4,1.4c-1.8,0-3.7,0.1-5.5,0
	c-2.2,0-4.5,0-6.7,0c-1.8,0.1-3.6,0-5.4,0c-2.3,0.1-4.6,0-6.8,0c-2.8,0.1-5.5,0.1-8.3,0c-2.8,0.1-5.6,0.1-8.4,0c-2.3,0-4.7,0.1-7,0
	c-3.3,0.1-6.5,0.1-9.8,0c-1.8,0-3.7,0.1-5.5,0c-2.7,0-5.5,0-8.2,0c-2.3,0-4.6,0.1-6.9,0c-1.9,0-3.7,0.1-5.6,0
	c-1.9,0.2-3.8,0-5.8,0.1c-3,0.3-6.1,0-9.1,0.1c-30.1,0.4-60.1,0.3-90.2,0c-8.1,0.3-16.2,0-24.3,0c-9.1,0.2-18.2,0.2-27.3-0.1
	c-9.6,0.3-19.3,0.2-28.9,0c-9.6,0.3-19.2,0.3-28.8-0.1c-7.5,0.1-11.3-3.4-11.3-11c-0.3-8.5-0.4-17.1-0.1-25.6
	c-0.2-9.6-0.3-19.2,0-28.9c-0.2-9.1-0.4-18.2,0-27.3c-0.3-12.8-0.3-25.7,0-38.5c-0.3-4.7-0.1-9.3,0-14c-0.1-4.1-0.2-8.1,0-12.2
	c-0.1-4.5-0.2-9.1,0-13.6c-0.1-4.5-0.2-9.1,0-13.6c-0.1-4-0.2-8.1-0.1-12.1c0.1-5.1-0.2-10.1,0-15.2c-0.1-4.1-0.1-8.1,0-12.2
	c-0.2-5.1-0.2-10.2,0-15.3c-0.2-5.6-0.2-11.3,0-16.9c-0.1-5.7-0.2-11.3,0-17c0-4.6-0.3-9.3,0-13.9C95,125,93.9,120.2,97.5,116.2z"/>
<path class="st0" d="M414.5,111c-1-12.5-1-12.5-13.5-13.5c-4.3-2.3-7.7-5.6-11-9.1c-9.9-10.5-20.7-20-31.3-29.8
	c-2.5-2.3-6.2-4.6-3.8-9.1c25.5-9.3,51-18.5,76.3-28.1c5.6-2.1,6.2,1.8,7.7,4.9c16.4,33.2,32.7,66.5,49.1,99.7
	c3.7,7.6,7.4,15.3,11.3,22.8c1.6,3,2.2,5.4-0.5,8.3c-5.5,6-10.7,12.4-16,18.6C460.3,154,437,133,414.5,111z"/>
<path class="st5" d="M414.5,111c8.8,2.8,13.7,10.7,20.2,16.3c15.5,13.3,29.7,28,44.4,42.2c1.8,1.8,3.9,3.5,3.8,6.4
	c-2.8,4.4-5.9,8.6-9.9,12.1c-3.8,1.2-5.7-1.9-7.8-3.9c-13.3-13-27.8-24.9-40.4-38.6c-3.1-3.4-7.2-5.5-10.3-8.8
	C414.5,128.1,414.5,119.6,414.5,111z"/>
<path class="st6" d="M416.3,508.1c-1.9,0.2-3.7,0.1-5.2-1.3c-5.3-7.9-1.1-16.1-0.1-23.9c7.1-51.2,14.6-102.3,21.8-153.4
	c1-7,1.6-14.1,3.3-20.9c0.7-2.8,1-6.7,5.8-4.8c1.9-0.1,3.6,0.5,5,1.8c2.5,8-0.4,15.8-1.5,23.5c-7.8,54.8-15.6,109.6-23.5,164.4
	C421.3,498.7,421.1,504.3,416.3,508.1z"/>
<path class="st7" d="M416.3,508.1c5.4-20.8,6.8-42.2,10.1-63.3c4.1-26.1,7.6-52.3,11.3-78.5c2.5-17.8,5.1-35.6,7.4-53.5
	c0.3-2.6,0.5-5,1.8-7.3c3.2,0.4,6.1,1.3,8.7,3.3c-7.7,5.2-5.3,14-6.4,21c-4.8,28.8-8.4,57.8-12.4,86.7c-4.1,30-8.2,60.1-12.3,90.1
	c-0.1,1.1-0.9,2.1-1.3,3.1C420.9,509.2,418.6,508.6,416.3,508.1z"/>
<path class="st8" d="M414.5,136.6c4.9,0.4,8.1,3.6,11.3,6.8c15,15.6,31.1,30.1,47.2,44.5c-3.6,5.4-7.3,10.7-12.4,14.8
	c-2-0.3-3.7-1.4-5.1-2.9c-12.9-13.9-28.2-25.3-41-39.4C414.5,152.5,414.5,144.6,414.5,136.6z"/>
<path class="st9" d="M204.8,97.5c-5.1,0.7-10.1,0.7-15.2,0c1.9-32,3.8-64,5.7-96c3.8,2.2,7.7,4.4,11.5,6.5c1.7,4.1,0.8,8.4,0.7,12.6
	c0,21.3,0,42.5,0,63.8C207.5,89,208.1,93.7,204.8,97.5z"/>
<path class="st10" d="M414.5,160.5c1.5,0.6,3.4,0.9,4.5,1.9c13.5,13.8,29.2,25.4,41.6,40.3c-3.3,5.2-6.7,10.2-11.3,14.2
	c-3.2,2-5.6,0.1-7.5-1.9c-8.6-9.1-18.5-16.7-27.3-25.6C413.8,179.8,413.8,170.2,414.5,160.5z"/>
<path class="st11" d="M244.1,97.5c-5.1,0-10.2,0-15.4,0c-2.4-2.8-2.7-6.1-2.7-9.6c-0.1-18.9-0.1-37.8,0-56.8c0-3.9,0-8.1,4.3-10.3
	c4.3,1.7,8.4,3.6,12,6.6c3.3,2,4.2,5.2,4.3,8.7c0.3,17.8,0.2,35.6,0,53.4C246.6,92.5,246,95.3,244.1,97.5z"/>
<path class="st12" d="M442,303.7c-3,0.3-3.2,2.3-3.6,4.8c-5,36.5-10.1,73-15.4,109.5c-3.7,25.6-7.8,51.2-11.5,76.8
	c-0.6,3.9-0.3,7.9-0.4,11.9c-2.4-0.2-4.9,0.6-7.1-1.2c-1.5-13.2,2.3-25.8,4-38.6c4.6-33.9,9.6-67.7,14.4-101.5
	c2.8-19.9,5.4-39.7,8.7-59.5c0.2-1.4,0.7-2.7,1.6-3.9c1.4-1.1,2.8-1,4.3-0.2C439,301.9,440.7,302.1,442,303.7z"/>
<path class="st5" d="M354.9,49.6c1.8,6.8,7.6,10.5,12.4,14.5c12.1,10.3,23.2,21.6,33.7,33.4c-8.5,0-17.1,0-25.6,0
	c-11.4-11.2-24-21.1-34.7-32.9c-2.3-2.5-5.9-5-2.8-9.3C343.5,53.2,348.9,50.5,354.9,49.6z"/>
<path class="st13" d="M204.8,97.5c0-26,0-52,0-77.9c0-4-0.2-7.9,2-11.5c3.6,1.3,7.1,2.9,10,5.5c2.4,3.1,2.5,6.8,2.5,10.5
	c0,21,0,41.9,0,62.9c0,3.7,0.2,7.4-2.5,10.5C212.8,97.5,208.8,97.5,204.8,97.5z"/>
<path class="st8" d="M337.9,55.3c-0.5,4,2.3,6.2,4.8,8.4c8.6,8.1,17.3,16.2,25.9,24.2c2.9,2.7,5.4,5.7,6.8,9.5
	c-9.1,0.7-18.2,0.7-27.3,0c-8.5-9-18.8-16.2-27.1-25.3c-2.3-2.5-6.2-4.7-3.7-9.2C324.2,60.5,331,57.9,337.9,55.3z"/>
<path class="st14" d="M433.2,506.6c-2.5-0.3-3.2-1.6-2.8-4.1c5.5-37,11.1-74,16.4-111.1c3.7-25.6,7-51.3,10.4-77
	c0.2-1.8,0.7-3.3,2.3-4.3c1.8,0.2,3.6,0.2,4.9,1.9c0.2,15.3-3.4,30.2-5.5,45.3c-4.7,34.4-9.9,68.7-14.6,103
	c-1.3,9.8-3.3,19.4-4.1,29.3C439.9,496.1,435,500.7,433.2,506.6z"/>
<path class="st15" d="M440.2,489.6c-2.7-2.2-2-5.3-1.6-7.9c3.7-25.6,7.7-51.1,11.3-76.7c3.7-25.9,7-51.8,10.9-77.7
	c0.8-5.1,0.1-10.7,3.6-15.2c1.8,0.1,3.6,0.2,4.9,1.8c-0.4,14.7-3.4,29.2-5.4,43.7c-4.6,33.6-9.6,67.2-14.2,100.9
	c-0.7,5.3-3.5,10.2-2.8,15.8C446.6,480.2,442.7,484.6,440.2,489.6z"/>
<path class="st10" d="M317.3,63c3.3,8.5,10.9,13.2,17.2,19c5.1,4.7,11.5,8.2,13.6,15.5c-9.7,0.7-19.3,0.7-29,0
	c-7.8-5-14.1-11.6-19.6-18.9c-0.8-3.2,1.1-5.4,3-7.5c2.6-2.3,4.6-5.4,8.2-6.5C312.9,64.1,315.1,63.6,317.3,63z"/>
<path class="st16" d="M244.1,97.5c0-20.1,0-40.1,0-60.2c0-3.4,0.2-6.8-1.7-9.9c5,1.6,9.3,4.5,13.6,7.2c1.9,2.6,2.6,5.5,2.6,8.7
	c0,15.2,0,30.3,0,45.5c0,3.2-0.4,6.2-2.5,8.7C252,97.5,248,97.5,244.1,97.5z"/>
<path class="st17" d="M447,474.2c-4.5-5.7-0.3-11.7,0.4-17.1c4.4-33.8,10-67.4,14.6-101.2c1.7-12.8,3-25.8,5.5-38.5
	c0.2-1.3,1.2-2.4,1.9-3.6c1.9,0,3.6,0.3,4.9,1.8c-2.5,25.3-6.8,50.3-10.3,75.5c-2.4,17.6-5.2,35.2-7.3,52.9c-0.6,5.1-3.9,9.5-3,14.8
	C453.3,464.8,449.5,469.2,447,474.2z"/>
<path class="st18" d="M414.5,189.5c10.2,4.5,17,13,24.9,20.4c3,2.8,5.1,6.8,9.9,7.1c-4.1,6.2-8.8,12-14.1,17.2
	c-6.8-7.1-14.4-13.3-20.7-20.8C413.8,205.4,413.8,197.4,414.5,189.5z"/>
<path class="st19" d="M453.8,458.9c-3.8-5.5-0.2-11,0.5-16.2c5.1-39.6,11-79,16.7-118.5c0.4-3,1-6.1,3.3-8.5c1.4-0.1,2.7,0,3.6,1.3
	c-4.3,14.1-4.5,28.8-6.9,43.2c-3.7,22.4-6.7,45-9.9,67.5c-0.7,4.7-1.7,9.5,0.8,14.1C459.2,447.4,456.5,453.2,453.8,458.9z"/>
<path class="st20" d="M230.4,20.9c-2,3-1.7,6.5-1.7,9.8c0,22.3,0,44.5,0,66.8c-2.3,0-4.5,0-6.8,0c-1.9-2.3-2.5-5-2.5-7.9
	c0-23.9-0.1-47.9,0-71.8c0-0.9,0.5-1.6,0.8-2.4C224.5,15.6,226.3,20.3,230.4,20.9z"/>
<path class="st21" d="M414.5,213.3c8.3,5.6,16.5,11.2,20.7,20.8c-6.2,9-13.3,17.3-20.7,25.4C413.7,244.2,413.8,228.7,414.5,213.3z"
	/>
<path class="st22" d="M414.5,383.9c-0.7-13.6-0.7-27.3,0-40.9c3.4-10.1,2.3-20.9,4.6-31.2c1.2-5.1,0.5-10.7,4.1-15.1
	c2.3,3.1,6.7,0.6,9.1,3.4c-3.7,13.7-4.4,27.9-6.7,41.9c-1.9,11.7-3.2,23.6-5.2,35.3C419.7,380.5,419.4,384.3,414.5,383.9z"/>
<path class="st23" d="M220.2,15.5c2,3.4,1.7,7.1,1.7,10.7c0,23.8,0,47.6,0,71.3c-1.7,0-3.4,0-5.1,0c0-28,0-55.9,0.1-83.9
	C218,14.3,219.1,14.9,220.2,15.5z"/>
<path class="st24" d="M256,97.5c0-20.9,0-41.9,0-62.8c1.7,1,3.4,2,5.1,3c2.2,2.5,2.5,5.6,2.5,8.7c0,14.1,0,28.3,0,42.4
	c0,3.2-0.3,6.2-2.5,8.7C259.4,97.5,257.7,97.5,256,97.5z"/>
<path class="st25" d="M261.1,97.5c0-20,0-39.9,0-59.9c2.2,0.2,3.8,1.3,5.3,2.8c1.9,3,2.2,6.4,2.2,9.8c0,12.5,0,25,0,37.5
	c0,3.4,0.1,6.9-2.4,9.7C264.5,97.5,262.8,97.5,261.1,97.5z"/>
<path class="st4" d="M423.2,296.7c-1.8,14.2-3.6,28.5-5.4,42.7c-0.2,1.8-1.7,2.9-3.3,3.6c-0.7-16.6-0.7-33.2,0-49.8
	C417.6,294,420.6,294.7,423.2,296.7z"/>
<path class="st26" d="M414.5,383.9c6.1-2.9,3.9-9.2,4.6-13.6c3.7-21.2,6.3-42.7,9.1-64.1c0.4-2.9,0.2-5.8,4.1-6.2
	c1.8,0.1,3.6,0.3,4.9,1.8c-1.3,0-2.5,0.1-3.8,0.1c-4.6,19.8-6.1,40-9.3,60c-1.7,10.6-3,21.2-4.6,31.8c-0.4,2.9,0.4,7.4-5,7.2
	C414.5,395.3,414.5,389.6,414.5,383.9z"/>
<path class="st27" d="M274.8,97.5c-1.7,0-3.4,0-5.1,0c-2-2.4-1.7-5.3-1.7-8.1c0-13-0.1-26,0-39.1c0-2.8-0.6-5.7,1.8-8
	c1.7,0.8,3.3,1.7,5,2.5c1.8,2.4,2.4,5.1,2.4,8c0.1,12.2,0.1,24.4,0,36.6C277.1,92.4,276.8,95.2,274.8,97.5z"/>
<path class="st28" d="M282.6,97.5l-0.6,0.2l-0.5-0.3c-2-2.3-2.3-5-2.3-7.9c-0.1-10.6-0.2-21.3,0.1-31.9c0.1-3.1-0.9-7.1,3.9-8
	c1.2,0.6,2.3,1.2,3.5,1.8c4,6.2,2,13.2,2.3,19.8c0.2,5.9,0.3,11.9-0.2,17.8C288.3,93.1,286.3,95.9,282.6,97.5z"/>
<path class="st29" d="M269.8,42.4c0,18.4-0.1,36.8-0.1,55.2c-1.1,0-2.3,0-3.4,0c0.1-19,0.1-38,0.2-57
	C267.6,41.1,268.7,41.7,269.8,42.4z"/>
<path class="st30" d="M274.8,97.5c0-17.5,0-35.1,0-52.6c1.7,1,3.5,2,5.2,3c-0.2,13.3,0,26.6-0.1,39.8c0,3.3,0.7,6.8-1.7,9.8
	C277,97.5,275.9,97.5,274.8,97.5z"/>
<path class="st31" d="M278.2,97.5c0-13.9,0-27.8,0-41.7c0-2.7-0.9-5.8,1.7-7.9c1.1,0.6,2.2,1.2,3.3,1.8c-3.3,5.2-1.4,11-1.6,16.4
	c-0.4,10.4-0.1,20.9-0.2,31.4C280.4,97.5,279.3,97.5,278.2,97.5z"/>
<path class="st32" d="M303.9,72c-1,2.3-3.8,3.6-3.8,6.5c-1.4,2.8-2.6,6.2-6.2,1.9c-1.1-8.2-3.1-16.4,1.5-24.2
	c2.6,0.6,4.9,1.7,6.8,3.6C307.1,63.3,306.2,67.5,303.9,72z"/>
<path class="st33" d="M295.3,56.3c0,8.6,0,17.2-0.1,25.8c-0.4,4.4-1.6,7.2-6.4,3.5c-0.9-8.3-0.3-16.7-0.3-25c0-2.5-0.7-5.9,3.6-6
	C293.2,55.1,294.2,55.7,295.3,56.3z"/>
<path class="st34" d="M292.1,54.6c-4.3,6.4-1.2,13.5-2,20.3c-0.4,4.1,0,8.4,0,12.6c0.3,2.5-0.9,3.6-3.3,3.6
	c-0.1-13.1-0.1-26.3-0.2-39.4C288.5,52.5,290.3,53.5,292.1,54.6z"/>
<path class="st35" d="M303.9,72c-0.3-4.1,0.6-8.3-1.8-12.1c3.3,0.8,6.1,2.5,8.7,4.7C309.2,67.8,306.7,70.1,303.9,72z"/>
<path class="st0" d="M214.8,414.4c30.8-0.7,61.6-0.7,92.3,0c2.8,3.4,2.6,7.3,2.1,11.2c-2.2,14.7-4,29.5-6.4,44.2
	c-0.6,3.6-1,7.3-4.2,9.8c-20.5-15.5-41-30.9-61.5-46.4C228.1,428.8,218.6,425,214.8,414.4z"/>
<path class="st36" d="M97.5,406c-0.5,6.1,2.3,8.9,8.4,8.4c22.2,20.6,44.4,41.3,66,62.5c2.5,2.5,6.1,4.4,5.6,8.9
	c-2.7,2.6-5.5,5.2-8.2,7.8c-6.3-3.4-11.5-8.4-16.4-13.3c-15.6-16-32.4-30.9-48.6-46.3c-25.4-24.2-50.6-48.7-76.6-72.2
	c-2-1.8-4.7-3.4-3.7-7c0.6-1.1,1.1-2.3,1.7-3.4c0.7-2.8,2.6-4.2,5.4-4.5c3,0.2,5.4,1.7,7.5,3.6C58.6,368.8,77.8,387.7,97.5,406z"/>
<path class="st37" d="M177.5,485.8c-19.3-21.1-40.9-39.7-61.8-59.2c-3.8-3.5-9-6.3-9.8-12.3c9.7-0.7,19.3-0.7,29,0
	c16.6,17.4,35.1,32.7,51.7,50c2.4,2.5,7.1,4.5,4.5,9.6C186.9,478.3,182.9,482.9,177.5,485.8z"/>
<path class="st6" d="M24,354.9c12.4,11.9,24.9,23.8,37.3,35.7c1.4,1.4,3.2,2.4,4.6,3.7c18.1,17.5,35.6,35.7,54.5,52.4
	c14,12.3,26,26.9,40.9,38.2c3.1,2.3,6.2,5,7.8,8.8c-2.2,4.1-4.7,2.5-7.5,0.5c-11.2-8.4-22.5-16.7-33.7-25c2.8-5.3-2.5-7-4.9-8.9
	c-14.7-11.2-26.3-25.5-40.2-37.6c-18.5-16.1-35.5-34-53.3-51c-3.8-3.7-8.3-6.7-12.5-10C18.9,358.8,21.1,356.5,24,354.9z"/>
<path class="st26" d="M191.1,474c-6.7-11.7-17.5-19.5-27-28.6c-10.3-9.8-21.9-18.4-29.2-31c9.7-0.7,19.3-0.7,29,0
	c12.3,12.8,26.6,23.6,38.5,36.7c2.2,2.5,6.4,4.4,4.1,9C201.4,464.8,196.2,469.4,191.1,474z"/>
<path class="st38" d="M206.5,460.2c-6.5-10.7-16.4-18.3-25.4-26.7c-6.3-5.9-13.9-10.5-17.3-19c9.1-0.7,18.2-0.7,27.3,0
	c7.7,7.8,16.4,14.7,24.2,22.4c2.7,2.7,6.1,5.4,4.8,10.1C215.7,451.4,212.3,457,206.5,460.2z"/>
<path class="st39" d="M363.5,414.4c2.8,0,5.7,0,8.5,0c2.2,2.6,2.4,5.6,1.9,8.8c-3.3,22.3-6.2,44.6-9.6,66.9
	c-0.3,2.3-0.9,4.4-2.5,6.1c-2.9-0.6-5.7-1.2-8.6-1.8c-3.7-1.8-3-5.1-2.7-8.1c2.6-21.6,6.1-43.1,9-64.6
	C360,418.8,361.3,416.4,363.5,414.4z"/>
<path class="st40" d="M361.7,496.2c0.9-20,5.5-39.4,7.6-59.2c0.8-7.5,2.9-14.9,2.6-22.6c2.8,0,5.7,0,8.5,0c2.4,2.8,2.5,6.2,2,9.6
	c-3.2,21.7-6,43.6-9.4,65.3c-0.5,3.3-0.7,6.9-4.5,8.5C366.3,497.3,364,496.7,361.7,496.2z"/>
<path class="st41" d="M346.4,414.4c3.4,0,6.8,0,10.2,0c2,2.5,1.6,5.3,1.2,8.1c-2.8,20.4-5.6,40.9-8.8,61.3c-0.5,3.4-1.2,6.7-4.3,8.8
	c-2.3-0.5-4.6-1.1-6.9-1.6c-3.3-1.7-2.8-4.7-2.5-7.4c2.8-21.9,5.8-43.7,9.1-65.5C344.6,416.7,345.5,415.6,346.4,414.4z"/>
<path class="st42" d="M220.2,447c-3.2-7.3-9.2-12.1-15.1-16.9c-5.6-4.4-11-8.9-13.9-15.7c7.9-0.7,15.8-0.7,23.7,0
	c5.9,8.1,15.4,11.9,22.3,18.8C231.1,437.4,227.2,444,220.2,447z"/>
<path class="st22" d="M404.4,414.4c2.8-0.1,5.6-0.2,8.4-0.2c2.4,2.5,1.1,5.4,0.8,8.1c-3.2,26-7.4,51.8-10.9,77.7
	c-0.2,1.7-0.9,3.3-1.8,4.7c-2.8-0.6-5.7-1.2-8.5-1.8c-2-7.7,0.9-15,1.8-22.5c2.5-21.4,6.4-42.5,8.8-63.9
	C403.2,415.7,403.8,415.1,404.4,414.4z"/>
<path class="st43" d="M332.7,414.4c2.8,0,5.7,0,8.5,0c2,2.5,1.5,5.3,1.2,8.1c-2.5,18.9-5.2,37.7-8.1,56.5c-0.6,3.8-0.6,8.1-5,10.2
	c-2.3-0.5-4.6-1.1-6.9-1.6c-2.4-2.7-1.7-5.8-1.3-8.8c2.4-18.4,5.4-36.8,7.8-55.2C329.5,420.3,330.4,417,332.7,414.4z"/>
<path class="st26" d="M414.5,401c6.2-3.2,4-9.8,4.8-14.5c4.1-25.6,7.3-51.3,10.7-76.9c0.4-2.9,1.1-5.5,3.4-7.5
	c-2.5,19.2-4.9,38.5-7.6,57.7c-3,21.7-6.4,43.4-9.4,65.1c-3.6,25.6-7,51.3-10.6,76.9c-0.2,1.4-1.1,2.6-1.6,3.9c-0.6,0-1-0.3-1.4-0.7
	c-1.7-2.3-1-5-0.7-7.4c4.4-28.4,7.9-56.9,12.4-85.3C414.4,408.5,414.5,404.7,414.5,401z"/>
<path class="st8" d="M298.6,479.6c3.2-21.7,7.8-43.2,8.6-65.2c2.8,0,5.7,0,8.5,0c2.6,3.1,2.5,6.8,1.9,10.5
	c-2.4,15.4-4.3,30.8-6.7,46.1c-0.7,4.7,0.2,11.5-7.7,12C301.1,482.6,299.6,481.4,298.6,479.6z"/>
<path class="st44" d="M392.4,414.4c2.3,0,4.5,0,6.8,0c2,2.5,1.5,5.3,1.2,8.1c-2.5,23.6-6.3,47.1-9.6,70.7c-0.4,3.1-1.1,6.2-3.6,8.4
	c-2.4-0.2-5,0.7-7.1-1.2c-2-9.7,1.3-19.1,2.4-28.5c2-16.3,4.5-32.5,6.9-48.7C390.1,420.1,390.2,416.9,392.4,414.4z"/>
<path class="st45" d="M387.3,501.6c2.5-18,5-36,7.4-54c1.5-11.1,3-22.1,4.5-33.2c1.7,0,3.4,0,5.1,0c1,12.3-2.4,24.2-3.8,36.2
	c-1.6,14.2-3.7,28.4-5.8,42.5c-0.5,3.3-1.6,6.5-2.4,9.8C390.5,503.2,388.8,502.8,387.3,501.6z"/>
<path class="st46" d="M344.7,492.7c2.8-18.3,5.7-36.6,8.5-54.9c1.2-7.8,2.3-15.5,3.4-23.3c2.3,0,4.6,0,6.8,0
	c-2.8,19.2-5.8,38.4-8.5,57.7c-1,7.4-3.6,14.7-1.8,22.3C350.3,493.8,347.5,493.2,344.7,492.7z"/>
<path class="st47" d="M368.6,497.8c3.6-11.6,4.2-23.8,5.8-35.7c2.2-15.9,5.8-31.6,6-47.7c2.3,0,4.5,0,6.8,0c1.8,2.1,1.9,4.6,1.6,7.2
	c-3.6,25.2-7,50.4-10.8,75.6c-0.1,0.8-0.6,1.6-1,2.3C374.2,499,371.4,498.4,368.6,497.8z"/>
<path class="st48" d="M377.1,499.6c-2.4-10.4,1.5-20.3,2.7-30.4c2.1-18.3,5-36.5,7.6-54.8c1.7,0,3.4,0,5.1,0
	c-0.8,20-5.1,39.6-7.7,59.5c-1.2,8.9-1.2,18-4.5,26.5C379.2,500.1,378.1,499.9,377.1,499.6z"/>
<path class="st49" d="M329.4,489.3c4.3-12.1,4.2-24.9,6.6-37.3s3.6-25,5.3-37.6c1.7,0,3.4,0,5.1,0c-0.9,20.8-5.1,41.2-7.8,61.7
	c-0.6,5-1.7,9.9-0.8,14.9C335,490.5,332.2,489.9,329.4,489.3z"/>
<path class="st21" d="M332.7,414.4c-3.2,22.5-6.5,44.9-9.7,67.4c-0.3,1.9-0.4,3.9-0.6,5.9c-1.9,0.2-3.7,0.2-5.2-1.3
	c-1.9-2.4-2.4-5.1-1.9-8c2.9-19.8,5.9-39.6,8.4-59.5c0.2-1.7,1.1-3.2,2.2-4.5C328.2,414.4,330.5,414.4,332.7,414.4z"/>
<path class="st10" d="M303.2,483c2.7-1,3.7-3.1,4.1-5.9c3.2-20.9,7.1-41.6,8.4-62.7c1.7,0,3.4,0,5.1,0c2.4,2.8,2.5,6.2,2,9.6
	c-3.3,20.6-5.6,41.3-8.9,61.9C310.2,485.7,306.4,485.2,303.2,483z"/>
<path class="st18" d="M313.9,485.9c-3.8-7.8,0.4-15.5,0.9-23.1c1.3-16.2,5.5-32.1,5.9-48.4c1.7,0,3.4,0,5.1,0
	c-0.4,20.6-5.3,40.7-7.7,61.1c-0.4,3.6-0.6,7.3-0.9,10.9C316.2,486.2,315.1,486.1,313.9,485.9z"/>
<path class="st26" d="M414.4,412.3c0.2,16.4-3.9,32.3-5.9,48.4c-1.8,14.8-3.9,29.5-5.9,44.2c-0.6-0.1-1.2-0.1-1.7-0.2
	c-1.2-11.6,2.2-22.7,3.6-34c2.3-18.9,5.5-37.7,8.3-56.5C413.3,413.6,413.9,412.9,414.4,412.3z"/>
<path class="st50" d="M97.5,271.3c0,4.5,0,9.1,0,13.6c-1.2,1.6-2.4,3.1-4.6,3.3c-22.8-2.5-45.3-6.8-67.9-9.7
	c-2.9-0.4-5.5-1.4-7.4-3.7c0.6-3.4,1.1-6.9,1.7-10.3c0.7-3.6,2.9-5.7,6.5-5.2c23.3,3,46.6,5.8,69.6,10.7
	C96.2,270.1,96.8,270.8,97.5,271.3z"/>
<path class="st51" d="M97.5,160.5c0,5.7,0,11.4,0,17.1c-4.2,3.4-9,2.3-13.7,1.6c-16.4-2.5-32.7-5.3-49.2-6.8
	c1.1-6.8,2.3-13.6,3.4-20.4c0.4-0.4,0.9-0.9,1.4-0.9C59.1,152.2,78.7,153.7,97.5,160.5z"/>
<path class="st52" d="M97.5,160.5c-19.8-2.8-39.6-5.7-59.5-8.5c1.1-6.2,2.2-12.5,3.3-18.7c15.4,0.1,30.4,4,45.6,5.9
	c3.9,0.5,7.8,0.9,10.6,4.3C97.5,149.1,97.5,154.8,97.5,160.5z"/>
<path class="st53" d="M97.5,271.3c-18.9-1-37.3-5.4-56.1-7.7c-5-0.6-10.2-0.2-15-2.3c-3-1.3-5.4,0.7-7.2,3.1c0.7-5.7,1-11.5,3.1-17
	c3.4-2.4,7.2-1.1,10.7-0.6c17.9,2.8,35.9,5.2,53.8,8c3.9,0.6,7.9,1.2,10.6,4.6C97.5,263.4,97.5,267.4,97.5,271.3z"/>
<path class="st46" d="M97.5,259.4c-21.8-3.4-43.5-6.8-65.3-10.2c-3.3-0.5-6.6-1.1-9.9-1.7c-0.4-4.1,0.6-8.1,1.9-11.9
	c2.6-2.4,5.7-2.1,8.8-1.6c18.7,2.7,37.3,5.8,56.1,8.2c3.1,0.4,6,1.4,8.4,3.6C97.5,250.3,97.5,254.8,97.5,259.4z"/>
<path class="st54" d="M97.5,220.2c0,4,0,7.9,0,11.9c-2.8,2.4-6.2,2.7-9.7,2.2c-19.1-2.5-38.2-5.5-57.3-8.5c-1.7-0.3-3.3-0.9-4.5-2.2
	c0.6-3.4,1.1-6.9,1.7-10.3c0.8-4.7,4.1-5.7,8.2-5.1c18.5,2.4,36.9,5.2,55.4,8.1C94,216.7,96.1,217.9,97.5,220.2z"/>
<path class="st55" d="M17.5,274.7c25.5,4,51,8,76.4,11.9c-1.8,8-8,11-15.1,12.8c-18.3-2.4-36.5-5.3-54.7-8.1c-3-0.5-6.3-0.5-8.7-3
	C15,283.7,16.6,279.2,17.5,274.7z"/>
<path class="st56" d="M34.6,172.4c4.8-4.2,10-1.2,15.1-0.7c16,1.4,31.6,6.1,47.8,5.9c0,5.1,0,10.2,0,15.3c-2.6,2.2-5.6,2.4-8.8,1.9
	c-15.8-2.7-31.7-4.6-47.5-7c-3-0.5-6.1-1.1-8.5-3.4C33.4,180.4,34,176.4,34.6,172.4z"/>
<path class="st57" d="M97.5,220.2c-13.6-2.3-27.2-4.6-40.8-6.8c-6.7-1.1-13.4-1.8-20-3.1c-3.7-0.7-6.7-0.4-8.9,2.9
	c0.7-5.7,1-11.5,3.1-17c2.3-2.1,5.1-2.2,7.9-1.7c17.7,2.9,35.6,5.1,53.3,7.9c2,0.3,3.8,1.1,5.3,2.3C97.5,210,97.5,215.1,97.5,220.2z
	"/>
<path class="st58" d="M26.1,223.6c19.3,0.7,38.1,5.4,57.2,7.7c4.8,0.6,9.5,0.5,14.2,0.8c0,4.5,0,9.1,0,13.6
	c-21.6-3.1-43.3-6.3-64.9-9.4c-2.8-0.4-5.6-0.6-8.4-0.9C24.8,231.5,25.5,227.6,26.1,223.6z"/>
<path class="st59" d="M97.5,204.8c-19.6-1-38.9-4.9-58.3-7.7c-2.8-0.4-5.6-0.6-8.4-0.8c-0.4-4.1,0.7-8,1.9-11.9
	c18,2.5,36,4.8,53.9,7.6c3.7,0.6,7.2,0.7,10.9,0.9C97.5,196.9,97.5,200.8,97.5,204.8z"/>
<path class="st60" d="M97.5,143.4c-14.1-2.3-28.2-4.8-42.4-6.7c-4.8-0.6-9.4-1.5-13.8-3.5c-0.4-3.6,0.9-6.9,1.7-10.3
	c1.8-3.7,5-3,8.1-2.6c13.1,1.8,26.1,3.8,39.2,5.6c2.9,0.4,5.3,1.7,7.3,3.9C97.5,134.3,97.5,138.9,97.5,143.4z"/>
<path class="st47" d="M10.7,315.6c0.6-5.7,1-11.5,3.1-17c1.1-0.9,2.4-1.8,3.8-1.6c17.8,2.3,35.7,3.7,53,8.6c3.5,3.1,0.6,5.4-1.2,7.6
	c-2.3,2.7-4.7,5.4-7.9,7c-0.9,0.3-1.8,0.5-2.7,0.6c-10-1.3-19.9-3.1-29.8-4.6C22.8,315.2,16.8,314.8,10.7,315.6z"/>
<path class="st5" d="M97.5,129.8c-17.1-2.7-34.2-5.4-51.4-8c-1-0.1-2.1,0.7-3.1,1.1c0.3-5.4,1-10.7,2.9-15.9
	c8.3,4.6,17.9,3.1,26.7,5.3c8.1,2.1,16.6,2.6,24.9,3.8C97.5,120.7,97.5,125.3,97.5,129.8z"/>
<path class="st61" d="M71.8,307.1c-19.3-2.8-38.7-5.7-58-8.5c-0.2-3.5,0-7,1.7-10.2c21.8,2.5,43.5,4.7,64.8,10.2
	c0.7,5-3.4,6.6-6.3,9C73.2,307.9,72.4,307.7,71.8,307.1z"/>
<path class="st48" d="M10.7,315.6c2.1-3.3,5.4-4,8.8-3.3c13.4,2.6,27.1,3.2,40.4,6.8c-0.7,7.9-7.1,9.6-12.9,11.9
	c-12.7-1.3-25.3-3.6-38-5.2C9.5,322.4,10.1,319,10.7,315.6z"/>
<path class="st62" d="M9,325.8c7.9-4.3,15.4,0.8,23.2,0.9c5.3,0.1,10.5,1.7,15.8,2.6c1,3-1.3,4.5-2.8,6.5c-2.5,2.4-4.8,4.9-8.5,5.3
	c-9.8-1.3-19.9-1.6-29.3-4.9C7.8,332.7,8.4,329.3,9,325.8z"/>
<path class="st63" d="M7.3,336.1c10.4-0.8,20.4,1.6,30.4,3.5c0.6,5.1-3.3,6.7-6.8,8.5c-1.7,1.1-3.4,2.3-5.1,3.4
	c-6.8-1.1-13.6-2.3-20.3-3.4C4.9,343.9,6.5,340.1,7.3,336.1z"/>
<path class="st64" d="M196.5,271.9c-40.8,0.3-69.3-26.7-70.4-63.5c-1.2-38.6,25.6-68.3,63.2-70.4c19.4-1.1,37.1,3,52.3,16
	c3.6,3.1,4,5.1,0.6,8.5c-4.6,4.6-7.7,11.5-13.1,14.3c-6.5,3.3-10.3-5.2-15.8-7.8c-17.2-8.2-36.9-4.5-48.4,10.1
	c-12.3,15.6-11.7,39.4,1.2,54.2c11.6,13.3,32.1,16.5,48.2,7.4c2-1.1,3.7-2.7,5.8-3.5c3.5-1.3,5.3-8,9.2-5.1
	c6.1,4.5,11.2,10.4,16.1,16.2c1.3,1.6-2,3.6-3.6,5.1C228.3,266.6,211.9,272.4,196.5,271.9z"/>
<path class="st64" d="M266.2,204.8c0-19.6,0.1-39.2-0.1-58.8c-0.1-4.6,0.9-6.2,5.9-6.3c22.8-0.3,22.8-0.5,22.8,21.9
	c0,25.6,0.3,51.1-0.2,76.7c-0.1,7,2.1,8.4,8.5,8.2c14.2-0.5,28.4,0,42.6-0.2c4.3-0.1,5.8,1,5.9,5.6c0.6,18.8,0.8,18.8-18.2,18.8
	c-19.9,0-39.8-0.3-59.7,0.2c-6.7,0.2-7.9-2-7.8-8.1C266.5,243.5,266.2,224.1,266.2,204.8z"/>
<path class="st64" d="M187,374.3c-17.3,0-34.7-0.2-52,0.1c-5.4,0.1-7.9-1.1-7-6.9c0.4-2.5,0.3-5.1,0-7.7c-0.5-4.2,1.2-5.2,5.2-5.2
	c36.1,0.1,72.2,0.2,108.2,0c4.5,0,4.9,1.7,5,5.5c0.4,14.1,0.5,14.1-13.5,14.1C217.7,374.3,202.3,374.3,187,374.3z"/>
<path class="st37" d="M30.9,348.1c2.3-2.8,4.6-5.7,6.8-8.5c2.3-1.7,4.5-3.4,6.8-5.1c3.2-2.3,5.4,0.1,7.3,2
	c14.8,15.1,31.6,28.2,45.7,44c0.7,8.5,0.7,17.1,0,25.6c-8.1-3.1-13.5-10-19.6-15.5c-13.5-12.1-26.3-24.8-39.3-37.4
	C36.3,350.9,33.7,349.4,30.9,348.1z"/>
<path class="st26" d="M97.5,380.5c-4,0-5.8-3.2-8.2-5.5c-13.1-12.4-26.1-24.9-39.1-37.4c-1.6-1.6-3.2-3.2-5.7-3.2
	c1.1-1.7,2.3-3.4,3.4-5.1c4.3-3.1,9.3-5.2,11.9-10.2c0.6,0,1.1,0,1.7,0c12.9,9.8,24.8,20.7,36,32.4
	C98.2,361.1,98.2,370.8,97.5,380.5z"/>
<path class="st22" d="M97.5,351.5c-9.7-3.8-14.8-13.4-23.1-19.1c-5-3.4-8.6-8.8-12.8-13.3c3.4-4,6.8-7.9,10.2-11.9
	c0.6,0,1.1,0,1.7,0c3.6-2.4,5.8,0.5,7.8,2.5c5.1,5.2,10.6,9.8,16.2,14.5C98.2,333.3,98.2,342.4,97.5,351.5z"/>
<path class="st42" d="M97.5,324.2c-5.9-0.5-9.1-5.1-13-8.5c-3.5-3-5.6-7.9-11-8.5c2.3-2.8,4.6-5.7,6.8-8.5
	c4.4-4.2,10.2-6.8,13.6-11.9c1.2-0.6,2.4-1.2,3.6-1.8C98.2,298,98.2,311.1,97.5,324.2z"/>
<path class="st65" d="M286.9,91c1.1-1.2,2.2-2.4,3.3-3.6c2.2-1.3,3.9-3.1,5-5.3c1.6-1.2,3.2-2.4,4.8-3.6
	c7.2,5.5,13.5,11.9,19.1,19.1c-12.2,0.7-24.3,0.7-36.5,0C284,95.3,285.4,93.1,286.9,91z"/>
</svg>
