<?xml version="1.0" encoding="utf-8"?>
<!-- Generator: Adobe Illustrator 26.1.0, SVG Export Plug-In . SVG Version: 6.00 Build 0)  -->
<svg version="1.0" id="Calque_1" xmlns="http://www.w3.org/2000/svg" xmlns:xlink="http://www.w3.org/1999/xlink" x="0px" y="0px"
	 viewBox="0 0 512 512" style="enable-background:new 0 0 512 512;" xml:space="preserve">
<g>
	<g>
		<path style="fill:#23D78F;" d="M337.92,513.71c-9.45-5.09-20.13-4.77-30.26-6.41c-97.25-15.79-194.56-31.23-291.85-46.77
			c-10.14-1.62-10.14-1.66-4.84-15.4c4.56,0.55,8.92-0.05,13.44-1.1c31.11-7.18,62.34-13.88,93.4-21.26
			c4.69-1.11,11.25,0.17,13.61-6.46c31.74,0,63.48-0.01,95.22-0.01c7.47,7.1,15.28,13.77,24.05,19.23
			c14.72,13.28,30.41,25.37,46.22,37.3c16.13,14.1,34.01,26.08,49.56,40.88C343.61,513.71,340.76,513.71,337.92,513.71z"/>
		<path style="fill:#23D78F;" d="M63.48,287.76C43.24,271.04,23.17,254.1,1.7,238.93c0-77.94,0-155.88,0-233.81
			C15.35,7.48,29,9.84,42.65,12.2c0,76.1,0.13,152.2-0.17,228.3c-0.03,8.31,1.85,13.74,10.43,15.49c3.42,1.13,6.84,2.26,10.26,3.39
			c7.95,2.88,15.89,5.76,23.84,8.63c-3.44,9.29-7.22,18.39-14.05,25.83C68.9,293.21,67.33,288.71,63.48,287.76z"/>
		<path style="fill:#9875F7;" d="M481.06,85.34c6.32,39.37,12.68,78.73,18.95,118.11c4.13,25.97,8.13,51.97,12.25,77.94
			c0.11,0.69,0.95,1.27,1.45,1.91c0,2.84,0,5.69,0,8.53c-14,5.87-26.44,14.58-39.66,21.87c-6.63,3.66-13.24,7.36-19.85,11.03
			c1.61-15.19,3.24-30.37,4.84-45.56c2.43-23.09,4.75-46.19,7.28-69.27c3.21-29.26,6.5-58.5,9.9-87.73
			C477.65,109.88,479.44,97.62,481.06,85.34z"/>
		<path style="fill:#9875F7;" d="M346.45,513.71c-15.55-14.8-33.43-26.78-49.56-40.88c10.91-18.49,22.4-36.65,30.78-56.52
			c15.47-0.62,30.94-0.88,46.42,0.06c-8.26,30.52-16.52,61.04-24.75,91.57c-0.51,1.89-0.79,3.84-1.18,5.77
			C347.59,513.71,347.02,513.71,346.45,513.71z"/>
		<path style="fill:#23D78F;" d="M280.05,17.12c5.64-5.14,11.27-10.28,16.91-15.41c1.14,0,2.28,0,3.41,0
			c15.37,9.07,32.23,14.9,48.45,22.1c38.11,16.9,76.41,33.35,114.59,50.07c2.76,1.21,6.1,1.67,7.87,4.66
			c-0.78,1.54-1.99,1.53-3.52,1.27c-11.36-1.89-22.74-3.69-34.12-5.52c-13.08-2.92-26.6-3.33-39.52-7.09
			c-1.66-7.58-9.05-6.77-13.97-8.86C346.95,44.2,312.77,32.46,280.05,17.12z"/>
		<path style="fill:#030304;" d="M416.31,380.57c-0.16-3.1-0.46-6.21-0.46-9.31c-0.02-87.12-0.18-174.24,0.22-261.35
			c0.01-1.84-0.1-3.39-0.35-4.69c-0.03-0.18-0.07-0.36-0.11-0.53c-0.06-0.34-0.15-0.65-0.26-0.95c-0.2-0.61-0.44-1.13-0.74-1.59
			c-0.07-0.11-0.14-0.22-0.21-0.32c-0.32-0.44-0.7-0.81-1.13-1.12c-0.21-0.16-0.44-0.3-0.68-0.42c-0.33-0.18-0.69-0.32-1.07-0.44
			c-0.18-0.06-0.36-0.11-0.55-0.16c-0.27-0.07-0.55-0.12-0.84-0.17c-0.2-0.03-0.41-0.06-0.62-0.08c-0.1-0.02-0.2-0.03-0.3-0.03
			c-0.2-0.02-0.39-0.04-0.59-0.05c-1.03-0.07-2.18-0.05-3.47,0.02c-11,0.62-22.09-0.11-33.13-0.26c-0.01,0-0.01,0-0.02,0
			c-40.95,0.84-81.91,0.71-122.86-0.03h-0.01c-1.04,0.07-2.08,0.14-3.12,0.2c-0.85,0.06-1.7,0.1-2.55,0.13
			c-0.37,0.01-0.73,0.03-1.09,0.05c-3.08,0.12-6.17,0.17-9.26,0.17c-1.22,0-2.42-0.01-3.64-0.03c-0.56,0-1.12-0.01-1.69-0.03
			c-1.23-0.02-2.46-0.05-3.7-0.09c-3.03-0.1-6.05-0.25-9.07-0.42c-6.81,0.84-13.63,0.68-20.45,0.04c-1.05,0.07-2.11,0.14-3.16,0.19
			c-0.08,0.01-0.16,0.01-0.23,0.01c-0.41,0.03-0.82,0.04-1.23,0.06c-0.96,0.05-1.91,0.09-2.86,0.12c-8.89,0.31-17.77,0.1-26.66-0.39
			h-0.01c-3.33,0.18-6.66,0.31-9.99,0.4c-3.4,0.09-6.8,0.12-10.2,0.12c-1.36,0-2.72-0.01-4.08-0.02c-0.6-0.01-1.19-0.02-1.79-0.02
			c-1.04-0.01-2.07-0.03-3.1-0.06c-1.03-0.02-2.07-0.04-3.1-0.07c-0.21,0.01-0.41,0-0.61-0.01c-0.7-0.02-1.4-0.03-2.1-0.06
			c-0.26,0-0.52-0.01-0.78-0.03c-0.66-0.01-1.33-0.03-2-0.06c-1.63-0.06-3.26-0.12-4.89-0.19c-1.43,0.11-2.74,0.22-3.95,0.33
			c-0.46,0.04-0.9,0.08-1.33,0.12c-0.03,0.01-0.05,0.01-0.08,0.01c-0.28,0.02-0.56,0.05-0.83,0.08c-0.59,0.06-1.16,0.13-1.7,0.19
			c-0.78,0.09-1.5,0.2-2.17,0.32c-0.84,0.15-1.59,0.32-2.26,0.52c-0.14,0.03-0.27,0.08-0.4,0.12c-0.9,0.29-1.65,0.64-2.28,1.09
			c-0.13,0.1-0.27,0.19-0.39,0.3c-0.12,0.1-0.24,0.2-0.36,0.32c-0.11,0.11-0.22,0.23-0.32,0.35c-0.11,0.12-0.21,0.24-0.3,0.38
			c-0.12,0.17-0.24,0.36-0.35,0.55c-0.11,0.2-0.21,0.4-0.31,0.62c-0.09,0.21-0.18,0.43-0.26,0.66c-0.48,1.41-0.72,3.22-0.84,5.57
			c-0.02,0.39-0.04,0.79-0.05,1.21v0.08c-0.01,0.25-0.02,0.5-0.02,0.77c-0.01,0.26-0.02,0.53-0.02,0.8
			c-0.01,0.34-0.01,0.69-0.01,1.04c-0.02,1.45-0.02,3.05-0.02,4.81c0,47.58,0.01,95.16-0.02,142.74c0,0.77-0.02,1.55-0.04,2.32
			c-0.02,0.78-0.06,1.56-0.1,2.33c-0.06,1.16-0.13,2.32-0.19,3.49c-0.02,0.38-0.04,0.77-0.06,1.16c0.25,5.49,0.41,10.97,0.48,16.46
			c0.1,8.88-0.04,17.78-0.53,26.67v0.01c0.02,2.12,0.04,4.22,0.06,6.34v30.73c0,10.23,0,20.47-0.01,30.7v27.31
			c0.01,1.16,0.14,2.13,0.41,2.95c0.05,0.15,0.1,0.3,0.17,0.44c0,0.02,0.01,0.03,0.02,0.05c0.02,0.07,0.05,0.13,0.09,0.2
			c0.05,0.12,0.11,0.24,0.18,0.35c0.03,0.06,0.06,0.12,0.1,0.17c0.1,0.17,0.22,0.34,0.36,0.49c0.19,0.25,0.42,0.47,0.68,0.66
			c0,0,0.01-0.01,0.01,0c0.13,0.09,0.27,0.18,0.41,0.26c0.12,0.07,0.25,0.14,0.39,0.2c0.09,0.05,0.19,0.09,0.3,0.13
			c0.14,0.06,0.28,0.11,0.42,0.15c0.13,0.04,0.27,0.08,0.42,0.11c0.03,0.02,0.06,0.02,0.1,0.03c0.11,0.03,0.23,0.05,0.36,0.07
			c0.18,0.04,0.38,0.07,0.58,0.09c0.58,0.07,1.22,0.1,1.91,0.08c0.12,0,0.24-0.01,0.37-0.01c1.72-0.07,3.45-0.11,5.18-0.11
			c4.26-0.02,8.52,0.11,12.79,0.22c2.36,0.07,4.71,0.14,7.06,0.18c31.73,0,63.46-0.01,95.2-0.01c0.01,0,0.01,0,0.02,0
			c10.35-0.64,20.7-0.78,31.06,0.02c23.33-0.66,46.64-0.84,69.97-0.01h0.01c15.48-0.62,30.94-0.88,46.41,0.06
			c11.32-0.19,22.67-0.84,33.98-0.4c6.66,0.26,8.15-2.05,7.88-8.23C415.56,398.7,416.14,389.63,416.31,380.57z M247.53,363.24
			c-0.43,2.78-0.25,5.69-0.03,8.51c0.25,3.3-0.96,4.4-4.32,4.39c-36.37-0.1-72.73-0.13-109.1,0.03c-4.4,0.02-5.33-1.8-5.03-5.57
			c0.2-2.54,0.34-5.16-0.03-7.66c-0.8-5.41,1.45-6.59,6.59-6.5c17.9,0.32,35.8,0.12,53.7,0.12c17.05,0,34.1,0.2,51.14-0.12
			C245.71,356.35,248.44,357.32,247.53,363.24z M252.41,212.79c-3.22,32.3-29.54,57.09-62.88,58.43c-17.31,0.7-34.68,0.02-52.01,0.4
			c-5.3,0.12-5.9-2.1-5.86-6.52c0.19-19.61,0.08-39.23,0.08-58.84c0-19.33,0.18-38.66-0.11-58c-0.09-5.61,0.94-8.16,7.31-7.83
			c20.95,1.09,42.15-2.21,62.87,2.63C235.25,150.87,255.73,179.43,252.41,212.79z M382.32,243c0.98,8.17-2.33,13-9.09,17.15
			c-23.5,14.42-48.37,17.87-74.23,8.65c-27.67-9.86-44.04-38.12-41.1-68.56c2.9-30.05,25.19-55.06,54.1-60.24
			c21.85-3.92,42.32-0.74,60.74,12.59c4.22,3.06,5.23,5.52,0.91,9.01c-0.22,0.17-0.37,0.43-0.55,0.65
			c-4.21,4.99-7.5,12.01-12.87,14.42c-5.52,2.47-10.04-5.35-15.59-7.7c-16.36-6.94-35.21-3.63-46.28,8.79
			c-12.18,13.66-14.05,36.54-4.28,52.49c8.99,14.68,27.06,21.14,45.6,16.29c13.95-3.65,15.85-6.54,14.79-20.56
			c-0.29-3.82-1.66-4.87-5.17-4.77c-5.96,0.17-11.96-0.3-17.9,0.14c-5.44,0.4-6.6-1.78-6.64-6.84
			c-0.16-18.25-0.35-18.25,17.91-18.25h12.74c7.61,0.72,19.99-3.96,25.28,1.75c4.59,4.96,1.34,17.21,1.47,26.25
			C382.24,230.51,381.58,236.83,382.32,243z"/>
		<path style="fill:#FFFFFF;" d="M247.53,363.24c-0.43,2.78-0.25,5.69-0.03,8.51c0.25,3.3-0.96,4.4-4.32,4.39
			c-36.37-0.1-72.73-0.13-109.1,0.03c-4.4,0.02-5.33-1.8-5.03-5.57c0.2-2.54,0.34-5.16-0.03-7.66c-0.8-5.41,1.45-6.59,6.59-6.5
			c17.9,0.32,35.8,0.12,53.7,0.12c17.05,0,34.1,0.2,51.14-0.12C245.71,356.35,248.44,357.32,247.53,363.24z"/>
		<path style="fill:#FFFFFF;" d="M382.32,243c0.98,8.17-2.33,13-9.09,17.15c-23.5,14.42-48.37,17.87-74.23,8.65
			c-27.67-9.86-44.04-38.12-41.1-68.56c2.9-30.05,25.19-55.06,54.1-60.24c21.85-3.92,42.32-0.74,60.74,12.59
			c4.22,3.06,5.23,5.52,0.91,9.01c-0.22,0.17-0.37,0.43-0.55,0.65c-4.21,4.99-7.5,12.01-12.87,14.42
			c-5.52,2.47-10.04-5.35-15.59-7.7c-16.36-6.94-35.21-3.63-46.28,8.79c-12.18,13.66-14.05,36.54-4.28,52.49
			c8.99,14.68,27.06,21.14,45.6,16.29c13.95-3.65,15.85-6.54,14.79-20.56c-0.29-3.82-1.66-4.87-5.17-4.77
			c-5.96,0.17-11.96-0.3-17.9,0.14c-5.44,0.4-6.6-1.78-6.64-6.84c-0.16-18.25-0.35-18.25,17.91-18.25h12.74
			c7.61,0.72,19.99-3.96,25.28,1.75c4.59,4.96,1.34,17.21,1.47,26.25C382.24,230.51,381.58,236.83,382.32,243z"/>
		<path style="fill:#FFFFFF;" d="M201.81,143.06c-20.72-4.84-41.92-1.54-62.87-2.63c-6.37-0.33-7.4,2.22-7.31,7.83
			c0.29,19.34,0.11,38.67,0.11,58c0,19.61,0.11,39.23-0.08,58.84c-0.04,4.42,0.56,6.64,5.86,6.52c17.33-0.38,34.7,0.3,52.01-0.4
			c33.34-1.34,59.66-26.13,62.88-58.43C255.73,179.43,235.25,150.87,201.81,143.06z M221.71,211.8
			c-2.01,18.85-16.64,32.94-35.54,33.95c-6.8,0.36-13.66-0.23-20.45,0.27c-5.02,0.37-5.42-1.99-5.36-5.96
			c0.19-11.37,0.07-22.74,0.07-34.11c0-11.08,0.21-22.17-0.1-33.24c-0.12-4.45,1.14-6.01,5.65-5.65c9.57,0.75,19.25-1.05,28.77,1.8
			C213.09,174.34,223.9,191.31,221.71,211.8z"/>
		<path style="fill:#FB5AE5;" d="M433.64,74.29c11.37,1.83,22.75,3.63,34.12,5.52c1.53,0.25,2.75,0.26,3.52-1.27
			c2.63,3.18,9.95-0.38,9.78,6.81c-1.63,12.28-3.42,24.54-4.85,36.84c-3.4,29.23-6.7,58.48-9.9,87.73
			c-2.53,23.08-4.85,46.18-7.28,69.27c-1.6,15.19-3.23,30.37-4.84,45.56c-2.3,18.97-5.16,37.89-6.65,56.91
			c-0.63,8.01-2.5,10.05-9.59,6.24c-1.46-0.78-2.99-1.41-4.49-2.11C433.52,281.96,433.58,178.13,433.64,74.29z"/>
		<path style="fill:#F35BE6;" d="M433.64,74.29c-0.06,103.83-0.12,207.66-0.18,311.49c-5.72-1.74-11.44-3.47-17.16-5.21
			c-0.16-3.1-0.46-6.2-0.46-9.31c-0.03-87.12-0.18-174.23,0.22-261.35c0.04-8.99-2.57-11-10.91-10.53
			c-11.01,0.62-22.1-0.11-33.15-0.26c0.01-11.47,0.01-22.95,0.01-34.42c7.37,0.83,14.73,1.67,22.1,2.5
			C407.04,70.97,420.57,71.38,433.64,74.29z"/>
		<path style="fill:#47BCA7;" d="M99.12,351.59c0,10.23,0,20.47-0.01,30.7c-5.49,0.98-10.99,1.97-16.48,2.95
			c-18.43,3.29-36.12,10.4-55.13,10.73c3.61-10.95,7.23-21.89,10.84-32.84c2.82,0.47,5.49-0.06,8.29-0.55
			C64.27,359.52,81.27,353.53,99.12,351.59z"/>
		<path style="fill:#2AD193;" d="M99.12,409.6c0.04,4.84,2.22,6.62,7.27,6.42c8.32-0.34,16.68,0.15,25.03,0.29
			c-2.36,6.62-8.92,5.34-13.61,6.46c-31.06,7.38-62.29,14.08-93.4,21.26c-4.52,1.04-8.88,1.65-13.44,1.1
			c2.11-6.15,4.22-12.29,6.32-18.44c3.95-0.03,7.79-0.39,11.73-1.31C52.33,419.9,75.74,414.81,99.12,409.6z"/>
		<path style="fill:#69A4BD;" d="M99.12,351.59c-17.85,1.94-34.85,7.93-52.48,10.99c-2.81,0.49-5.48,1.03-8.29,0.55
			c3.77-11.23,7.53-22.47,11.3-33.7c7.09,0.43,13.89-0.93,20.75-2.65c9.47-2.37,19.14-3.98,28.72-5.92
			C99.12,331.1,99.12,341.34,99.12,351.59z"/>
		<path style="fill:#30CC98;" d="M99.12,409.6c-23.38,5.21-46.78,10.3-70.1,15.77c-3.94,0.92-7.77,1.28-11.73,1.31
			c1-5.35,2.82-10.43,5.11-15.35c8.57,0.08,16.52-3.12,24.77-4.73c17.35-3.39,34.27-8.89,51.95-10.65
			C99.12,400.5,99.12,405.05,99.12,409.6z"/>
		<path style="fill:#3CC49F;" d="M99.12,395.95c-17.69,1.75-34.6,7.26-51.95,10.65c-8.25,1.61-16.2,4.81-24.77,4.73
			c1.18-5.29,2.58-10.52,5.11-15.36c19.01-0.33,36.7-7.44,55.13-10.73c5.49-0.98,10.99-1.96,16.48-2.95
			C99.12,386.84,99.12,391.39,99.12,395.95z"/>
		<path style="fill:#8088E3;" d="M63.48,287.76c3.85,0.95,5.42,5.45,9.48,6.07c5.82,5.15,11.64,10.3,17.45,15.45
			c-0.25,2.78-2.45,3.89-4.57,4.24c-10.94,1.8-21.41,6.36-32.78,5.62C56.54,308.69,60.01,298.22,63.48,287.76z"/>
		<path style="fill:#7F94CC;" d="M53.06,319.15c11.37,0.74,21.84-3.82,32.78-5.62c2.12-0.35,4.32-1.46,4.57-4.24
			c2.88,1.74,5.77,3.49,8.65,5.23c0.02,2.12,0.04,4.23,0.06,6.35c-9.58,1.94-19.24,3.56-28.72,5.92
			c-6.87,1.71-13.66,3.08-20.75,2.65C50.79,326,51.93,322.57,53.06,319.15z"/>
		<path style="fill:#8088E3;" d="M257.7,416.32c23.33-0.66,46.65-0.84,69.98-0.01c-8.38,19.86-19.87,38.03-30.78,56.52
			c-15.81-11.94-31.49-24.02-46.21-37.3C251.26,428.48,258.86,423.99,257.7,416.32z"/>
		<path style="fill:#7F94CC;" d="M257.7,416.32c1.16,7.68-6.43,12.16-7.01,19.21c-8.77-5.46-16.58-12.13-24.05-19.23
			C236.99,415.66,247.34,415.52,257.7,416.32z"/>
		<path style="fill:#3CC49F;" d="M63.14,15.54c8.64,1.33,17.28,2.67,25.92,4.01c-0.11,2.83-0.31,5.66-0.31,8.5
			c-0.01,79.96,0,159.92,0.01,239.88c-0.58,0.03-1.17,0.06-1.75,0.1c-7.95-2.88-15.89-5.76-23.84-8.63
			C63.16,178.1,63.15,96.82,63.14,15.54z"/>
		<path style="fill:#30CC98;" d="M63.14,15.54c0.01,81.28,0.02,162.56,0.04,243.84c-3.42-1.13-6.84-2.26-10.26-3.39
			c-0.01-80.7-0.01-161.41-0.02-242.11C56.31,14.43,59.73,14.98,63.14,15.54z"/>
		<path style="fill:#2AD193;" d="M52.9,13.88c0.01,80.7,0.01,161.41,0.02,242.11c-8.57-1.75-10.46-7.18-10.43-15.49
			c0.3-76.1,0.17-152.2,0.17-228.3C46.07,12.76,49.49,13.32,52.9,13.88z"/>
		<path style="fill:#2AD193;" d="M87.01,268.01c0.58-0.03,1.17-0.06,1.75-0.1c3.45,1.16,6.9,2.31,10.35,3.47
			c0.63,14.37,0.74,28.75-0.05,43.13c-2.88-1.74-5.77-3.48-8.65-5.23c-5.82-5.15-11.63-10.3-17.45-15.45
			C79.79,286.4,83.58,277.3,87.01,268.01z"/>
		<path style="fill:#47BCA7;" d="M99.12,271.38c-3.45-1.16-6.9-2.31-10.35-3.47C88.76,187.96,88.75,108,88.76,28.04
			c0-2.83,0.2-5.66,0.31-8.5c9.56,1.53,19.11,3.06,28.66,4.59c0.01,24.99,0.03,49.99,0.04,74.98c-18.25,1.45-18.25,1.45-18.25,20.23
			c0,47.58,0.01,95.16-0.02,142.74C99.5,265.17,99.25,268.28,99.12,271.38z"/>
		<path style="fill:#69A4BD;" d="M117.77,99.11c-0.01-24.99-0.03-49.99-0.04-74.98c14.22,2.27,28.45,4.55,42.67,6.82
			c0,22.72,0.01,45.44,0.01,68.17C146.2,99.87,131.99,99.71,117.77,99.11z"/>
		<path style="fill:#7F94CC;" d="M160.42,99.11c0-22.72-0.01-45.44-0.01-68.17c11.39,1.77,22.77,3.54,34.16,5.31
			c0,20.95,0,41.91-0.01,62.86C183.18,99.9,171.8,99.75,160.42,99.11z"/>
		<path style="fill:#9875F7;" d="M249.13,99.1c-11.37,0.81-22.74,0.64-34.12-0.02c0.01-19.83,0.02-39.65,0.03-59.48
			c10.87,1.48,21.74,2.96,32.62,4.44c0.54,0.36,1.08,0.72,1.63,1.07C249.23,63.11,249.18,81.11,249.13,99.1z"/>
		<path style="fill:#3CC49F;" d="M260.06,33.72c4.4-4.32,8.81-8.62,14.19-11.75c3.69,2.03,7.17,4.28,11.21,5.84
			c23.2,8.96,46.26,18.27,69.27,27.7c3.44,1.41,7.96,2.11,8.82,7.04c-21.62-3.43-43.23-6.87-64.85-10.3
			c-0.3-2.58-2.02-3.92-4.22-4.8C283.01,42.86,271.53,38.29,260.06,33.72z"/>
		<path style="fill:#8088E3;" d="M215.04,39.6c-0.01,19.83-0.02,39.65-0.03,59.48c-6.82,0.84-13.63,0.68-20.45,0.04
			c0-20.95,0-41.91,0.01-62.86C201.39,37.38,208.21,38.49,215.04,39.6z"/>
		<path style="fill:#30CC98;" d="M363.56,62.54c-0.86-4.92-5.38-5.63-8.82-7.04c-23.01-9.43-46.07-18.74-69.27-27.7
			c-4.04-1.56-7.52-3.81-11.21-5.84c1.52-2.11,3.31-3.9,5.8-4.84c32.71,15.34,66.9,27.08,100.09,41.22
			c4.92,2.1,12.31,1.28,13.97,8.86c-7.37-0.83-14.73-1.67-22.1-2.5C369.2,63.98,366.38,63.26,363.56,62.54z"/>
		<path style="fill:#47BCA7;" d="M260.06,33.72c11.47,4.57,22.95,9.14,34.42,13.72c2.21,0.88,3.93,2.22,4.22,4.8
			c-16.48-2.37-32.95-4.75-49.43-7.13c-0.54-0.36-1.08-0.72-1.63-1.07C251.24,39.94,255.54,36.69,260.06,33.72z"/>
		<path style="fill:#C667ED;" d="M249.28,45.11c16.48,2.38,32.95,4.75,49.43,7.13c21.62,3.43,43.23,6.87,64.85,10.3
			c2.82,0.72,5.65,1.44,8.47,2.17c0,11.47-0.01,22.95-0.01,34.42c-40.96,0.85-81.92,0.71-122.88-0.03
			C249.18,81.11,249.23,63.11,249.28,45.11z"/>
		<path style="fill:#030304;" d="M221.71,211.8c-2.01,18.85-16.64,32.94-35.54,33.95c-6.8,0.36-13.66-0.23-20.45,0.27
			c-5.02,0.37-5.42-1.99-5.36-5.96c0.19-11.37,0.07-22.74,0.07-34.11c0-11.08,0.21-22.17-0.1-33.24c-0.12-4.45,1.14-6.01,5.65-5.65
			c9.57,0.75,19.25-1.05,28.77,1.8C213.09,174.34,223.9,191.31,221.71,211.8z"/>
	</g>
</g>
</svg>
