<?xml version="1.0" encoding="utf-8"?>
<!-- Generator: Adobe Illustrator 26.1.0, SVG Export Plug-In . SVG Version: 6.00 Build 0)  -->
<svg version="1.0" id="Calque_1" xmlns="http://www.w3.org/2000/svg" xmlns:xlink="http://www.w3.org/1999/xlink" x="0px" y="0px"
	 viewBox="0 0 512 512" style="enable-background:new 0 0 512 512;" xml:space="preserve">
<g>
	<path style="fill:#010102;" d="M402.95,220.57v-0.01c-0.79-2.5-0.62-5.03-0.26-7.57c-0.1-25.59-0.2-51.18-0.32-76.77
		c-0.03-5.92-0.07-11.84-0.11-17.76v-0.01c-0.05-5.92-0.1-11.84-0.14-17.76l-0.5,0.03l-0.45-0.21
		c-37.52,0.04-75.03,0.08-112.54,0.13c-0.07,0-0.13,0-0.19-0.01c-0.77-0.02-1.42-0.21-1.73-1.01l-0.2-0.03
		c-0.72,0.01-1.45,0.01-2.17,0.01c-0.04,0.13-0.09,0.25-0.14,0.35c-0.04,0.09-0.09,0.16-0.15,0.23c-0.05,0.05-0.1,0.1-0.16,0.14
		c-0.04,0.03-0.08,0.05-0.13,0.07c-0.05,0.02-0.12,0.04-0.18,0.06c-0.07,0.01-0.14,0.02-0.22,0.02c-0.07,0-0.14-0.01-0.22-0.02
		c-7.76,0.09-15.53,0.25-23.29,0.26c-14.57,0.01-29.14,0.02-43.72,0.02c-29.18,0.02-58.36,0.02-87.54-0.01
		c-15.99-0.02-31.98-0.05-47.97-0.1c-5.58-0.02-7.24,1.28-7.18,6.6c0.04,3.77,0.06,7.55,0.06,11.32c0,2.23-0.01,4.46-0.02,6.69
		c-0.01,3.18-0.04,6.35-0.07,9.53c-0.03,3.6-0.08,7.21-0.12,10.81c-0.04,3.59-0.09,7.18-0.13,10.77c-0.02,1.81-0.03,3.63-0.05,5.44
		c0.04,0.43,0.08,0.86,0.13,1.28c0.06,0.54,0.12,1.07,0.17,1.61c0.05,0.54,0.09,1.07,0.11,1.61c0.01,0.21,0.01,0.42,0.01,0.64
		c0.02,70.44,0.03,140.88,0.01,211.32c0,1.9-0.33,3.8-0.5,5.7c0.04,0.4,0.08,0.79,0.12,1.19c0.1,6.11,0.59,12.25,0.18,18.33
		c-0.33,4.94,1.56,5.88,6.51,5.88c15.92,0.01,31.86-0.91,47.76,0.53c0.63-0.08,1.25-0.17,1.88-0.25c0.4-0.05,0.8-0.1,1.21-0.15h0.01
		c0.01-0.01,0.03-0.02,0.04-0.02h0.01c0.1-0.05,0.19-0.1,0.29-0.14c0.06-0.03,0.13-0.05,0.19-0.07s0.12-0.04,0.18-0.06
		c1.1-0.36,2.25-0.31,3.4-0.26c0.43,0.02,0.87,0.04,1.3,0.04c86.29-0.03,172.58-0.12,258.88,0.04c1.13,0,2.1-0.05,2.93-0.18
		c0.14-0.02,0.27-0.04,0.4-0.07c0.13-0.02,0.25-0.05,0.38-0.08c0.12-0.03,0.24-0.06,0.35-0.09c0.11-0.04,0.22-0.07,0.33-0.11
		c0.11-0.04,0.22-0.08,0.32-0.12c0.72-0.3,1.28-0.72,1.7-1.29c0.1-0.14,0.19-0.29,0.28-0.45c0.21-0.35,0.36-0.76,0.47-1.22
		c0.03-0.11,0.05-0.23,0.08-0.35c0.02-0.12,0.05-0.24,0.07-0.37c0.02-0.12,0.04-0.25,0.06-0.38v-0.03c0.04-0.26,0.07-0.53,0.08-0.81
		v-0.03c0.04-0.47,0.05-0.97,0.05-1.51c-0.21-58.16-0.13-116.33-0.1-174.5C402.4,225.12,402.76,222.85,402.95,220.57z M113,138.48
		c19.64,0.66,39.42-1.71,58.92,1.28c32.2,4.94,52.38,29.27,50.76,60.23c-1.48,28.08-25.99,51.08-57.18,52.69
		c-16.96,0.88-34.01,0.29-51.01,0.59c-3.9,0.07-4.74-1.2-4.71-4.63c0.17-17.66,0.08-35.32,0.08-52.98
		c-0.01-17.47-0.03-34.94,0.02-52.41C109.88,141.17,108.77,138.34,113,138.48z M232.48,374.07c-2.82,2.31-9.35,0.73-14.24,0.74
		c-15.58,0.03-31.15,0.01-46.72,0.01c-18.85,0.01-37.7-0.09-56.54,0.09c-3.84,0.03-5.71-0.62-5.17-4.66
		c0.65-4.89-2.23-11.45,1.27-14.29c2.98-2.41,9.75-0.82,14.85-0.82c34.02-0.03,68.03,0.07,102.04-0.12c4.57-0.02,6.3,0.97,5.66,5.35
		C232.94,365.05,235.8,371.35,232.48,374.07z M326.59,248.21c0.43,4.14-1.29,5.11-5.47,5.08c-23.55-0.17-47.11-0.19-70.66-0.03
		c-3.76,0.02-4.76-0.86-4.72-4.42c0.21-17.64,0.1-35.29,0.1-52.94c0-17.65,0.1-35.3-0.09-52.94c-0.04-3.4,0.64-4.77,4.63-4.53
		c5.91,0.36,11.89,0.37,17.8,0.01c4.23-0.25,4.96,1.25,4.94,4.84c-0.14,27.81,0.05,55.63-0.19,83.44c-0.04,4.38,1.19,5.4,5.74,5.3
		c14.12-0.29,28.26,0.03,42.39-0.19c4.06-0.07,6.02,0.58,5.54,4.89C326.17,240.51,326.2,244.41,326.59,248.21z M284.34,99.54v0.01
		l-0.03,0.05h0.01c0.01,0,0.01,0,0.02,0l0.01-0.01c0-0.01,0-0.01,0-0.02s0.01-0.03,0.01-0.05
		C284.35,99.52,284.35,99.53,284.34,99.54z"/>
	<path style="fill:#FFFFFF;" d="M232.48,374.07c-2.82,2.31-9.35,0.73-14.24,0.74c-15.58,0.03-31.15,0.01-46.72,0.01
		c-18.85,0.01-37.7-0.09-56.54,0.09c-3.84,0.03-5.71-0.62-5.17-4.66c0.65-4.89-2.23-11.45,1.27-14.29
		c2.98-2.41,9.75-0.82,14.85-0.82c34.02-0.03,68.03,0.07,102.04-0.12c4.57-0.02,6.3,0.97,5.66,5.35
		C232.94,365.05,235.8,371.35,232.48,374.07z"/>
	<path style="fill:#FFFFFF;" d="M326.59,248.21c0.43,4.14-1.29,5.11-5.47,5.08c-23.55-0.17-47.11-0.19-70.66-0.03
		c-3.76,0.02-4.76-0.86-4.72-4.42c0.21-17.64,0.1-35.29,0.1-52.94c0-17.65,0.1-35.3-0.09-52.94c-0.04-3.4,0.64-4.77,4.63-4.53
		c5.91,0.36,11.89,0.37,17.8,0.01c4.23-0.25,4.96,1.25,4.94,4.84c-0.14,27.81,0.05,55.63-0.19,83.44c-0.04,4.38,1.19,5.4,5.74,5.3
		c14.12-0.29,28.26,0.03,42.39-0.19c4.06-0.07,6.02,0.58,5.54,4.89C326.17,240.51,326.2,244.41,326.59,248.21z"/>
	<path style="fill:#FFFFFF;" d="M171.92,139.76c-19.5-2.99-39.28-0.62-58.92-1.28c-4.23-0.14-3.12,2.69-3.12,4.77
		c-0.05,17.47-0.03,34.94-0.02,52.41c0,17.66,0.09,35.32-0.08,52.98c-0.03,3.43,0.81,4.7,4.71,4.63c17-0.3,34.05,0.29,51.01-0.59
		c31.19-1.61,55.7-24.61,57.18-52.69C224.3,169.03,204.12,144.7,171.92,139.76z M194.4,199.45c-1.02,16.5-13.28,28.73-30.98,30.32
		c-7.31,0.66-14.72,0.23-22.07,0.6c-3.79,0.19-4.38-1.45-4.34-4.44c0.12-10.16,0.05-20.32,0.05-30.48c0.01,0.01,0.03,0.01,0.04,0.01
		c0-9.97,0.13-19.94-0.07-29.9c-0.07-3.31,1.04-4.38,4.53-4.18c8.75,0.5,17.61-0.84,26.29,1.15
		C185.7,166.62,195.58,180.38,194.4,199.45z"/>
	<path style="fill:#F9F74C;" d="M402.13,100.68l-0.5,0.03l-0.45-0.21c-1.49-7.15-8.28-1.02-11.85-4.63
		c3.28-2.34,0.82-6.66,4.7-10.09c-7.15,1.78-7.04-3.74-9.77-5.98c-4.22-3.48-1.8-5.66,1.4-8.04c1.92-1.44,5.02-1.72,5.55-4.62v-0.01
		c7.22-0.29,13.26-4.11,19.86-6.19c3.51-1.11,8.3-1.63,10.23-5.33c2.09-4,5.25-4.86,9.49-4.59c3.25,0.2,6.54,0.01,9.81,0
		c12.52-0.31,23.87,3.13,34.34,9.41c0.72,3.63,4.71,3.72,6.97,5.67c5.81,5,11.1,10.52,17.44,14.97c5.37,4.32,7.3,10.55,9.69,16.33
		c3.65,8.8,3,18.2,2.83,27.48c-0.06,3.33-0.7,6.35-2.59,9.15c-7.39,3.4-4.36,10.94-7.28,16.12c-4.07,9.04-11.36,15.38-19.84,20.7
		c-3.19-0.87-5,2.52-7.91,2.31c-3.83-0.28-4.52,1.72-4.23,4.62c-4.11,3.65-9.01,5.86-14.49,7.05c-2.06-0.15-3.78,0.65-5.7,1.25
		c-5.24,1.62-9.33,6.87-16.03,5.02c0.12-2.68,3.86-3.26,3.25-6.11c-2.23-0.53-5.37,0.34-6.19-2.62c-1.02-3.69-3.24-6.87-4.18-10.7
		c-2.19-8.88-5.03-17.62-12.02-24.7c-2.47-2.51-6.23-5.28-5.98-8.98c0.79-11.64-4.68-22.83-2.51-34.47
		C406.88,99.52,404.08,100.84,402.13,100.68z"/>
	<path style="fill:#33D67C;" d="M283.14,100.45c-7.76,0.09-15.53,0.25-23.29,0.26c-59.74,0.03-119.49,0.1-179.23-0.09
		c-5.58-0.02-7.24,1.28-7.18,6.6c0.21,18.19-0.17,36.38-0.33,54.56l-0.42,0.19c-5.76,4.5-13.54,3.78-19.86,6.67
		c-6.19,2.83-13.52,1.17-19.4,4.8c-2.93,1.8-4.93,5.04-9.36,4.41c-5.16-0.74-9.35,1.75-12.97,4.77c-1.88,1.57-3.4,2.62-5.78,1.22
		c-1.31-2.06-2.8-4.05-3-6.55c-0.62-2.47-1.24-4.94-1.87-7.41c-0.56-3.51-0.47-7.02-0.03-10.54c3.38,0.38,4.71-0.89,4.62-4.19
		c-0.2-7.43-0.06-14.86-0.06-22.29l0,0c1.7,0.16,2.64,1.11,2.39,2.64c-0.88,5.34,4.04,7.23,7.11,11.73
		c0.16-2.99,0.25-4.65,0.34-6.31l-0.01,0.01c4.24-2.54,8.29-5.46,12.78-7.52c4.56-2.1,8.55-4.02,11.47-8.48
		c3.14-4.8,15.43-6.94,19.72-4.52c1.25-5.28-1.82-11.57,5.16-16.55c-0.89,5.66,1.7,9.82,2.51,14.37c0.32,1.78-0.51,4.29,2.76,4.05
		c2.72-0.2,2.12-2.42,2.15-4.03c0.07-4.6,0.04-9.21,0.03-13.81c-0.01-4.94,1.63-7.91,7.89-7.38c5.69,0.48,11.46,0.19,17.19,0.06
		c2.57-0.06,7.17,1.44,3.88-4.13c-1.16-1.96,1.61-2.49,3.5-2.74c5.45-0.71,10.31-2.03,11.93-8c0.7-2.59,3.56-3.54,5.97-4.63
		c7-3.15,13.9-6.39,18.83-12.36c3.43-4.16,8.45-6.17,13.69-7.07c8.02-1.38,11.44-9.87,19.69-10.63c3.52-8.11,12.43-9.11,19.3-12.71
		c7.71-4.04,13.21-5.02,20.84-4.5l0,0c2.22,5.27,6.83,7.76,12.3,9.23c4.44,2.87,7.72,6.87,10.71,10.87s7.43,6.54,11.03,9.59
		c3.56,3.02,5.07,8.09,10.19,9.49c5.66,7.09,11.97,13.66,18.45,20.1c2.99,2.97,6.79,5.5,7.52,10l0.06-0.11
		C283.96,99.81,283.55,100.13,283.14,100.45z"/>
	<path style="fill:#3BE863;" d="M258.34,69.5c-5.12-1.4-6.63-6.47-10.19-9.49c-3.6-3.05-8.05-5.59-11.03-9.59
		c-2.99-4-6.27-8-10.71-10.87c-3.65-3.61-5.74-9.03-12.3-9.23l0,0c-4.06-7.79-14.56-9.87-18.24-18.01
		c-0.06-0.13-0.36-0.26-0.53-0.25c-5.86,0.64-10.99-3.09-16.83-2.47c-1.28,0.14-3.61-0.41-3.14,1.58c0.75,3.18-1.69,3.56-3.59,4.35
		c-18.01,7.43-33.44,18.65-48.98,29.6c-10.92,7.7-23.11,13.39-34.43,20.42c-10.9,6.76-22.82,11.71-33.34,19.5
		c-9.7,7.18-20.01,14.18-30.74,20.31c-1.73,0.99-3.62,1.62-4.7,3.51c-1.73,3.02-3.89,4.42-6.13,0.04c-1.69,2.23-0.82,4.21-1.1,6.04
		c-0.23,1.55,0.67,3.94-2.3,3.74c-2.35-0.16-2.41-2.14-2.64-3.92c-0.29-2.18,1.06-4.77-2.43-7.72c0,9.47,0,17.65,0,25.83l0,0
		c-3.42-0.57-2.41-3.13-2.42-5.04c-0.08-11.52,0.4-23.05-0.17-34.54C1.86,82.45,8.66,74.45,12.83,65.32
		c3.23-7.06,11.49-10.36,13.84-17.67c1.42-4.43,4.92-7.43,8.46-9.46c5-2.88,8.89-6.66,13.06-10.27c2.45-2.12,4.88-4.2,8.11-5.36
		c4.91-1.76,9.01-4.92,13.82-7.05c7.81-3.46,15.15-7.81,23.98-8.15c7.16-0.27,12.16-5.62,19.01-6.35c0.07-0.01,0.1-0.35,0.15-0.54
		c0.82,0,1.64,0,2.46,0c0.72,3.16,3.47,2.18,5.48,2.14c20.73-0.35,41.54-0.76,61.63,4.85c7.52,2.1,15.4,3.33,22.75,3.85
		c10.76,0.76,20.32,5.23,31.16,5.84c10.78,0.61,21.5,4.08,32.62,3.93c1.26,0.09,2.51,0.18,3.77,0.27c-1.01,0.83-4.04,7.08-4.31,8.88
		c-0.03,0.18-0.16,0.35-0.23,0.53c-2.57,7.26-3.93,14.62-4.33,22.35C263.95,58.77,263.33,65.02,258.34,69.5z M5.4,104.39
		c0.39-0.01,0.78-0.02,1.18-0.03c0-5.98,0-11.96,0-17.95c-0.39,0.02-0.78,0.04-1.18,0.05C5.4,92.45,5.4,98.42,5.4,104.39z"/>
	<path style="fill:#0C7EF3;" d="M457.94,482.05c-13.21,9.15-27.31,16.76-42.88,21.86c-1.33,0.44-2.73,0.66-4.11,0.99
		c0.12-3.2-5.18-1.16-5.2-4.53c3.58,0.39,5.9-0.72,7.32-4.48c-3.55,0.23-5.47,1.74-7.32,4.48c-0.96,0.05-2.19,0.1-3.41,0.03
		c-1.15-0.07-2.73,0.34-3.07-1.14c-0.33-1.43,0.6-3.04,1.99-3.14c9.2-0.63,10.15-5.83,8.5-12.74c-0.3-1.28-0.05-2.68-0.03-4.02
		c0.03-3.53,1.74-6.03,5.56-6.47c5.6-0.65,6.84-3.89,6.8-8.48c-0.03-2.78-1.51-6.58,1.34-8.15c5.98-3.31,4.77-8.29,4.71-13.1
		c-0.04-3.3,0.3-6.33,4.37-7.21c4.82-1.05,5.82-3.96,5.6-8.12c-0.19-3.5-1.19-7.41,2.68-10.07c2.95-2.03,3.57-4.82,3.46-8.1
		c-0.1-3.02-1.53-7.02,0.69-8.93c4.7-4.04,4.06-8.84,4.19-13.75c0.09-3.08,1.38-5.63,4.65-6.81c3.18-1.15,4.36-3.27,3.93-6.31
		c-1.28-8.89,5.55-16.61,4.09-25.63c-0.39-2.38,2.51-3.7,4.84-4.65c1.95-0.8,3.31-1.83,3.44-4.21c0.32-5.85,2.24-11.62,0.11-17.57
		c-0.64-1.8-1.22-4.75,0.62-5.95c2.16-1.41,3.16,1.63,4.79,2.53c2,1.1,5.6,1.86,4.88-0.68c-1.02-3.62-1.9-7.98-5.33-10.66
		c-1.17-0.91-2.79-0.92-1.12-2.66c1.23-1.29,2.29-2.06,3.95-0.36c2.47,2.54,3.45,6.02,6.39,8.29c1.48,1.14,3.11,2.38,2.75,4.77
		c-1.04,6.89,2.58,3.61,5.36,2.06c2.35,2.39,3.87,5.19,4.63,8.36c-1.9,0.3-2.76,1.32-2.25,3.09c0.11,0.38,0.91,0.96,1.1,0.88
		c1.88-0.83,0.79-2.56,1.22-3.86c10.17,17.87,13.24,37.14,12.74,57.09c-0.72,28.95-11.85,54.35-30.24,77.25
		C472.75,468.94,465.54,475.69,457.94,482.05z"/>
	<path style="fill:#0D84ED;" d="M492.46,319.11c-2.78,1.55-6.41,4.83-5.36-2.06c0.36-2.4-1.27-3.64-2.75-4.77
		c-2.94-2.26-3.92-5.75-6.39-8.29c-1.66-1.7-2.72-0.93-3.95,0.36c-1.67,1.74-0.05,1.75,1.12,2.66c3.43,2.68,4.31,7.04,5.33,10.66
		c0.72,2.54-2.88,1.78-4.88,0.68c-1.63-0.9-2.63-3.94-4.79-2.53c-1.84,1.2-1.26,4.15-0.62,5.95c2.12,5.95,0.2,11.72-0.11,17.57
		c-0.13,2.38-1.48,3.41-3.44,4.21c-2.33,0.95-5.22,2.27-4.84,4.65c1.46,9.02-5.37,16.74-4.09,25.63c0.44,3.04-0.75,5.16-3.93,6.31
		c-3.27,1.18-4.56,3.73-4.65,6.81c-0.14,4.91,0.51,9.7-4.19,13.75c-2.22,1.91-0.79,5.9-0.69,8.93c0.11,3.29-0.51,6.08-3.46,8.1
		c-3.87,2.65-2.87,6.56-2.68,10.07c0.22,4.16-0.78,7.07-5.6,8.12c-4.06,0.88-4.41,3.91-4.37,7.21c0.07,4.82,1.27,9.8-4.71,13.1
		c-2.84,1.57-1.36,5.37-1.34,8.15c0.04,4.59-1.2,7.83-6.8,8.48c-3.83,0.44-5.53,2.94-5.56,6.47c-0.01,1.34-0.27,2.74,0.03,4.02
		c1.65,6.91,0.7,12.11-8.5,12.74c-1.38,0.1-2.32,1.7-1.99,3.14c0.34,1.48,1.92,1.08,3.07,1.14c1.22,0.07,2.46,0.02,3.68,0.02
		c-0.25,3.32,5.06,1.28,4.93,4.48c-0.75,0.07-1.5,0.13-2.25,0.2c-7.69-1.1-14.99,1.52-22.08,3.23c-6,1.44-11.68,0.7-17.47,1.21
		c-1.07,0.1-1.95-0.48-2.28-1.55c-1.46-4.7-2.37-10.91,0.67-13.66c5.21-4.7,3.68-9.66,3.98-14.73c0.18-2.98,0.19-6,3.62-7.29
		c4.75-1.79,5.28-5.22,5.12-9.35c-0.1-2.59-1.44-6.23,1.19-7.6c5.59-2.9,4.94-7.37,4.89-11.94c-0.02-1.53-0.11-3.09,1.05-4.38
		c7.05-7.87,2.82-17.66,5.13-26.34c1.92-0.99,3.97-1.26,6.13-0.97c0.55,1.93-1.42,5.35,2.28,5.41c4.27,0.07,2.05-3.6,2.58-5.67
		c0.09-0.35-0.04-0.75-0.07-1.12c0.06-0.71,0.12-1.43,0.17-2.14c3.05-0.44,2.37-2.69,2.38-4.49c0.06-6.14-0.02-12.28,0.05-18.42
		c0.02-1.61-0.77-4.05,1.64-4.41c5.12-0.76,4.3-4.14,4.53-7.37c0.24-3.34-1.63-7.32,1.61-9.86c4.15-3.25,5.11-7.21,4.45-11.77
		c-0.71-4.93,1.47-7.61,6.63-8.49c2.79-0.48,5.79-2.12,5.04-4.75c-2.47-8.61,2.99-16.51,1.9-24.89c-0.43-3.31,0.74-5.38,4.51-6.28
		c5.13-1.23,7.16-4.63,6.58-9.56c-0.43-3.67,0.62-7.06,4.13-9c2.78-1.53,3.29-3.53,3.3-6.21c0.01-1.72-0.99-3.81,1.16-5.23
		c3.8,6.79,3.8,6.79,11.5,6.15C474.11,294.55,485.51,305.21,492.46,319.11z"/>
	<path style="fill:#20ADB5;" d="M27.01,362.2c-8.42-3.01-15.68-7.72-22.18-13.51c-0.09-2.66-2.45-4.46-2.44-7.43
		c0.19-47.57,0.2-95.14,0.04-142.71c-0.02-4.86,5.92-4.98,6.84-8.96c0.14-0.61,2.62-0.01,3.01,1.7c1.04,4.58,3.16,8.87,2.71,13.86
		c-0.36,4.02-2.46,9.64,5.4,10.22c0.39,0.03,0.79,0.85,1.03,1.37c2.65,5.54,7.17,10.31,8,16.6c0.29,2.16,0.82,4.27,2.45,5.77
		c3.7,3.43,5.32,7.83,5.95,12.33c0.53,3.83,2.22,6.89,4.42,9.88c2.46,3.33,4.51,6.65,4.74,10.97c0.16,3.06,2.15,6.2,5.44,7.05
		c6.7,1.74,7.17,5.99,6.77,11.36c-0.4,5.34-0.15,10.74-0.04,16.11c0.03,1.34-0.83,3.12,1.63,4.07c1.56-2.09-0.11-5.09,2.08-6.9
		c1.27-1.04,3.26-2.35,3.39,0.24c0.41,8.25,4.42,15.93,4.86,23.91c0.89,16.26,0.28,32.59,0.28,48.9c0,3.14-1.53,4.61-4.52,2.63
		c-6.24-4.13-13.28-6.71-20.2-9.47C40.11,367.57,34.5,362.84,27.01,362.2z"/>
	<path style="fill:#108BE3;" d="M392.52,412.71c-2.3,8.68,1.93,18.47-5.13,26.34c-1.16,1.29-1.07,2.85-1.05,4.38
		c0.05,4.56,0.7,9.03-4.89,11.94c-2.63,1.37-1.28,5.02-1.19,7.6c0.15,4.13-0.37,7.56-5.12,9.35c-3.42,1.29-3.44,4.31-3.62,7.29
		c-0.3,5.06,1.23,10.03-3.98,14.73c-3.04,2.75-2.13,8.96-0.67,13.66c0.33,1.07,1.21,1.64,2.28,1.55c5.79-0.52,11.48,0.23,17.47-1.21
		c7.08-1.7,14.38-4.33,22.08-3.23c-9.22,4.3-19.35,5.79-29.3,6.5c-23.57,1.67-46.26-1.78-66.92-13.43
		c-5.96-9.08-16.56-11.72-25.86-16.04c-1.84-0.85-5.02-1.71-4.11-2.95c1.52-2.06-0.95-6.07,2.99-6.28c4.84-0.26,4.78-2.96,4.95-6.25
		c0.19-3.54-1.82-7.88,1.36-10.46c4.71-3.81,5.16-8.35,4.7-13.42c-0.27-2.97,0.52-5.26,3.8-6.37c4.16-1.41,5.08-4.4,4.91-8.24
		c-0.12-2.75-1.38-6.33,1.65-8.04c4.09-2.3,4.72-5.86,5.65-9.52c24.72-0.04,49.44-0.07,74.17-0.12
		C388.98,410.49,391.28,410.36,392.52,412.71z"/>
	<path style="fill:#1594D5;" d="M312.54,410.62c-0.92,3.66-1.55,7.22-5.65,9.52c-3.03,1.7-1.77,5.29-1.65,8.04
		c0.16,3.84-0.75,6.84-4.91,8.24c-3.28,1.11-4.07,3.4-3.8,6.37c0.46,5.07,0.01,9.6-4.7,13.42c-3.18,2.58-1.18,6.92-1.36,10.46
		c-0.17,3.28-0.11,5.99-4.95,6.25c-3.95,0.21-1.48,4.22-2.99,6.28c-0.91,1.23,2.28,2.09,4.11,2.95c9.3,4.32,19.9,6.96,25.86,16.04
		c-25.13-11.83-50.3-23.61-75.39-35.52c-12.18-5.78-24.72-10.9-36.43-17.54c1.02-0.81,1.01-1.59-0.2-2.18
		c-9.23-4.55-18.29-9.34-25.88-16.17c-1.5-1.35-2.03-0.26-2.74,0.65c-2.14,2.74-3.23,0.54-4.98-0.63c-3.43-2.28,0.43-2.38,0.95-3.43
		c0.41-0.83,1.47-1.67,1.36-2.37c-0.24-1.47-1.9-1.38-3-1.17c-5.66,1.1-6.44-2.81-8.24-6.93c2.56,0,4.55,0,6.55,0
		c13.09-0.01,26.19,0.02,39.28-0.06c2.04-0.01,4.76,0.96,5.45-2.19C243.66,410.62,278.1,410.62,312.54,410.62z M174.3,418.93
		c-0.14-0.33-0.19-0.83-0.44-0.93c-0.24-0.1-0.68,0.2-1.03,0.33c0.14,0.33,0.19,0.83,0.44,0.93
		C173.51,419.36,173.94,419.06,174.3,418.93z"/>
	<path style="fill:#2CB0AF;" d="M27.01,362.2c7.49,0.64,13.1,5.37,19.67,8c6.91,2.77,13.96,5.34,20.2,9.47
		c2.99,1.98,4.52,0.51,4.52-2.63c0-16.3,0.61-32.64-0.28-48.9c-0.44-7.98-4.45-15.66-4.86-23.91c-0.13-2.59-2.12-1.28-3.39-0.24
		c-2.2,1.81-0.52,4.81-2.08,6.9c-2.46-0.94-1.6-2.72-1.63-4.07c-0.11-5.37-0.36-10.76,0.04-16.11c0.4-5.37-0.08-9.61-6.77-11.36
		c-3.29-0.86-5.27-4-5.44-7.05c-0.23-4.32-2.29-7.64-4.74-10.97c-2.21-2.99-3.89-6.05-4.42-9.88c-0.63-4.5-2.25-8.9-5.95-12.33
		c-1.62-1.51-2.16-3.62-2.45-5.77c-0.84-6.29-5.35-11.06-8-16.6c-0.25-0.52-0.65-1.34-1.03-1.37c-7.86-0.58-5.76-6.21-5.4-10.22
		c0.45-4.98-1.67-9.27-2.71-13.86c-0.39-1.71-2.87-2.31-3.01-1.7c-0.92,3.98-6.86,4.1-6.84,8.96C2.6,246.13,2.59,293.7,2.4,341.27
		c-0.01,2.97,2.35,4.77,2.44,7.43c-3.87-1.3-4.81-3.96-4.8-7.64c0.1-48,0.1-96.01-0.01-144.01c-0.01-3.38,0.61-6.08,3.84-7.74
		c2.73-1.4,1.88-3.43,1.46-5.46c2.38,1.4,3.9,0.34,5.78-1.22c3.63-3.02,7.81-5.5,12.97-4.77c4.43,0.63,6.43-2.61,9.36-4.41
		c5.88-3.62,13.21-1.97,19.4-4.8c6.32-2.89,14.1-2.17,19.86-6.68c-0.02,55.77-0.05,111.54-0.04,167.31c0,18.2,0.12,36.41,0.18,54.61
		c-0.18,0.15-0.36,0.29-0.55,0.43C56.73,377.78,41.59,370.48,27.01,362.2z"/>
	<path style="fill:#6FEC5C;" d="M258.34,69.5c4.99-4.49,5.61-10.73,5.9-16.38c0.4-7.73,1.75-15.09,4.33-22.35
		c0.06-0.18,0.2-0.35,0.23-0.53c0.27-1.79,3.3-8.05,4.31-8.88c15.14,1.24,29.81,4.92,44.69,7.52c2.78,0.49,5.53,1.14,8.3,1.72
		c0.81,2.64,4.64,1.13,5.8,3.66c-3.43,3.37-5.02,7-1.62,11.21c0.65,0.81,0.88,1.94,0.02,2.63c-4.88,3.89-4.51,9.53-5.69,14.63
		c-1.51,6.49-1.49,13.28-4.52,19.48c-1.18,2.43-2.14,5.91-5.3,5.47c-6.44-0.9-11.22,2.54-15.43,5.42
		c-4.09,2.79-9.78,2.32-12.81,6.48c-0.73,0-1.47,0-2.2,0.01c-0.74-4.49-4.54-7.03-7.52-10C270.3,83.16,264,76.59,258.34,69.5z"/>
	<path style="fill:#108BE3;" d="M463.03,283.65c-7.7,0.63-7.7,0.63-11.5-6.15c-2.15,1.42-1.15,3.51-1.16,5.23
		c-0.01,2.68-0.52,4.68-3.3,6.21c-3.51,1.93-4.55,5.33-4.13,9c0.58,4.93-1.46,8.33-6.58,9.56c-3.77,0.9-4.94,2.97-4.51,6.28
		c1.09,8.39-4.37,16.28-1.9,24.89c0.75,2.63-2.24,4.27-5.04,4.75c-5.16,0.88-7.34,3.56-6.63,8.49c0.66,4.57-0.31,8.52-4.45,11.77
		c-3.24,2.54-1.37,6.52-1.61,9.86c-0.23,3.23,0.58,6.61-4.53,7.37c-2.41,0.36-1.62,2.8-1.64,4.41c-0.08,6.14,0,12.28-0.05,18.42
		c-0.02,1.8,0.67,4.05-2.38,4.49c0.03-33.8,0.06-67.59,0.09-101.39c3.66-0.88,2.23-3.7,2.25-5.71c0.12-14.74,0.04-29.49,0.1-44.23
		c0.01-1.93-0.61-4.06,1.53-6.73c1.51,4.51,0.76,8.25,0.87,11.89c0.09,2.77,1.13,3.47,3.73,2.15c4.3-2.2,8.61-4.36,12.89-6.57
		c3.19-1.65,8.33-2.99,9.46-0.54c1.96,4.27,7.28,5.27,8.57,9.91c0.68,2.45,4.09,3.3,7.13,3.01
		C455.03,274.12,459.42,278.57,463.03,283.65z"/>
	<path style="fill:#AAF056;" d="M286.51,99.59c3.03-4.16,8.72-3.69,12.81-6.48c4.21-2.88,8.99-6.32,15.43-5.42
		c3.16,0.44,4.12-3.04,5.3-5.47c3.03-6.2,3.01-12.99,4.52-19.48c1.19-5.11,0.81-10.75,5.69-14.63c0.87-0.69,0.63-1.82-0.02-2.63
		c-3.4-4.21-1.8-7.84,1.62-11.21c-1.16-2.53-4.99-1.02-5.8-3.66c11.37,0.86,22.38,3.63,33.54,5.56c11.35,1.95,22.68,4.04,34.02,6.07
		c1.8,2.39,7.61,3.01,3.65,7.91c-3.75,4.64-0.6,11.7-6.05,15.87c-0.2,0.16-0.04,0.73-0.05,1.11v0.01c-3.02-0.36-5.49,1-8.13,2.06
		c-5.74,2.31-11.45,4.99-17.47,6.34c-9.59,2.15-18.86,5.14-27.99,8.4c-5.74,2.05-10.92,5.51-16.26,8.48
		c-1.39,0.77-2.67,2.17-1.95,3.8c0.66,1.52,2.51,0.74,3.84,0.96c2.7,0.45,5.82-1.02,9.76,2.43c-16.56,0-31.42,0-46.28,0
		L286.51,99.59z"/>
	<path style="fill:#E8EE59;" d="M402.13,100.68c1.95,0.16,4.76-1.17,4.02,2.83c-2.16,11.63,3.31,22.83,2.51,34.47
		c-0.25,3.7,3.51,6.47,5.98,8.98c6.99,7.08,9.82,15.82,12.02,24.7c0.95,3.83,3.16,7.01,4.18,10.7c0.82,2.96,3.96,2.09,6.19,2.62
		c0.61,2.85-3.13,3.43-3.25,6.11c6.7,1.85,10.79-3.4,16.03-5.02c1.92-0.59,3.64-1.4,5.7-1.25c-2.86,5.22-9.04,6-13.74,8.53
		c-11.31,6.08-23.03,11.48-33.97,18.2c-1.44,0.88-3.12,1.83-5.09,1.44c-0.11-25.6-0.2-51.19-0.32-76.78
		C402.32,124.37,402.21,112.53,402.13,100.68z"/>
	<path style="fill:#2CB0AF;" d="M403.7,306.84c-0.03,33.8-0.06,67.59-0.09,101.39c-0.06,0.71-0.12,1.43-0.17,2.14
		c-1.6,0.46-3.2,0.92-4.8,1.38c-2.15-0.3-4.21-0.02-6.13,0.97c-1.24-2.35-3.53-2.22-5.82-2.21c-24.72,0.05-49.44,0.08-74.17,0.12
		c-34.44,0-68.88,0-103.32,0.01c-26.17,0.05-52.31-1.94-78.5-1.17c1.73-0.89,3.6-0.5,5.42-0.51c86.29-0.03,172.58-0.12,258.88,0.04
		c5.98,0.01,7.51-1.57,7.49-7.09c-0.21-58.17-0.13-116.33-0.1-174.5c0-2.28,0.36-4.57,0.55-6.85c9.4,7.96,17.48,17.04,25.35,26.29
		c-8.48-4.42-13.28-12.73-22.33-17.92c1.24,4.79-2.28,8.59-2.31,12.98C403.52,263.54,403.66,285.19,403.7,306.84z"/>
	<path style="fill:#1594D5;" d="M403.7,306.84c-0.04-21.65-0.18-43.3-0.04-64.94c0.03-4.38,3.55-8.19,2.31-12.98
		c9.05,5.19,13.85,13.5,22.33,17.92c7.72,7.38,15.28,14.89,21.93,23.16c-3.04,0.3-6.45-0.56-7.13-3.01
		c-1.29-4.64-6.61-5.64-8.57-9.91c-1.12-2.44-6.27-1.1-9.46,0.54c-4.29,2.21-8.6,4.38-12.89,6.57c-2.6,1.33-3.64,0.63-3.73-2.15
		c-0.11-3.63,0.64-7.38-0.87-11.89c-2.14,2.67-1.52,4.8-1.53,6.73c-0.06,14.74,0.02,29.49-0.1,44.23
		C405.94,303.14,407.36,305.96,403.7,306.84z"/>
	<path style="fill:#39E36A;" d="M113.24,0.48c-0.05,0.19-0.08,0.53-0.15,0.54c-6.85,0.73-11.85,6.08-19.01,6.35
		c-8.83,0.33-16.17,4.68-23.98,8.15c-4.8,2.13-8.91,5.29-13.82,7.05c-3.23,1.16-5.66,3.24-8.11,5.36
		c-4.18,3.61-8.06,7.39-13.06,10.27c-3.54,2.04-7.04,5.03-8.46,9.46c-2.35,7.31-10.61,10.62-13.84,17.67
		C8.66,74.45,1.86,82.45,2.4,93.29c0.57,11.49,0.09,23.03,0.17,34.54c0.01,1.91-1,4.47,2.42,5.04c0,7.43-0.14,14.87,0.06,22.29
		c0.09,3.3-1.24,4.57-4.62,4.19c-0.1-24.72-0.97-49.46,0.09-74.14c0.44-10.25,7.8-19.16,13.89-27.72
		C32.73,31.7,58.22,14.69,89.45,5.01C97.18,2.61,104.85-0.15,113.24,0.48z"/>
	<path style="fill:#20ADB5;" d="M130.72,409.45c26.19-0.77,52.33,1.22,78.5,1.17c-0.69,3.15-3.41,2.18-5.45,2.19
		c-13.09,0.08-26.19,0.05-39.28,0.06c-2,0-3.99,0-6.55,0c1.8,4.11,2.58,8.03,8.24,6.93c1.09-0.21,2.75-0.3,3,1.17
		c0.12,0.7-0.95,1.54-1.36,2.37c-0.51,1.05-4.38,1.15-0.95,3.43c1.75,1.16,2.85,3.37,4.98,0.63c0.71-0.91,1.24-2,2.74-0.65
		c7.59,6.83,16.65,11.63,25.88,16.17c1.21,0.6,1.22,1.37,0.2,2.18c-19.68-7.99-38.4-17.81-57.58-26.76
		c-5.32-2.48-11.47-3.83-15.48-8.47C128.65,409.73,129.68,409.59,130.72,409.45z"/>
	<path style="fill:#E8EE59;" d="M391.2,67.13c0.01-0.38-0.16-0.96,0.05-1.11c5.45-4.17,2.29-11.23,6.05-15.87
		c3.96-4.9-1.85-5.53-3.65-7.91c5.04-1.45,9.27,1.73,14.05,2.23c10.36,1.08,20.43,4.15,30.94,4.66c1.18,0.06,1.64,0.96,1.95,1.9
		c-3.27,0.01-6.55,0.21-9.81,0c-4.24-0.27-7.4,0.59-9.49,4.59c-1.93,3.7-6.72,4.22-10.23,5.33
		C404.46,63.02,398.42,66.84,391.2,67.13z"/>
	<path style="fill:#39E36A;" d="M269.33,21.1c-11.12,0.15-21.84-3.32-32.62-3.93c-10.84-0.61-20.4-5.08-31.16-5.84
		c-7.34-0.52-15.23-1.76-22.75-3.85c-20.08-5.6-40.89-5.2-61.63-4.85c-2.02,0.03-4.76,1.02-5.48-2.14
		c13.47-0.01,27.11-1.27,40.37,0.31c15.1,1.8,30.06,5.03,45.11,7.53c19.84,3.29,39.6,6.99,59.4,10.52
		C263.56,19.37,266.68,19.43,269.33,21.1z"/>
	<path style="fill:#E8EE59;" d="M499.33,81.07c-6.34-4.45-11.63-9.98-17.44-14.97c-2.26-1.95-6.25-2.04-6.97-5.67
		C482.74,61.51,497.96,74.39,499.33,81.07z"/>
	<path style="fill:#E8EE59;" d="M501.97,150.14c2.92-5.18-0.11-12.71,7.28-16.12C510.24,140.75,506.72,145.69,501.97,150.14z"/>
	<path style="fill:#E8EE59;" d="M469.99,177.77c-0.29-2.91,0.41-4.91,4.23-4.62c2.9,0.22,4.72-3.17,7.91-2.31
		C479.45,175.26,474.97,176.9,469.99,177.77z"/>
	<path style="fill:#39E36A;" d="M0.46,169.89c0.62,2.47,1.24,4.94,1.87,7.41C-0.37,175.29,0.21,172.55,0.46,169.89z"/>
	<path style="fill:#2CB0AF;" d="M73.04,383.94c0.04,0.4,0.08,0.79,0.12,1.19c-0.29-0.27-0.59-0.54-0.88-0.8
		c0.19-0.14,0.37-0.28,0.55-0.42C72.84,383.9,73.04,383.94,73.04,383.94z"/>
	<path style="fill:#E8EE59;" d="M286.71,99.61c14.86,0,29.72,0,46.28,0c-3.94-3.45-7.07-1.98-9.76-2.43
		c-1.33-0.22-3.18,0.56-3.84-0.96c-0.71-1.63,0.57-3.04,1.95-3.8c5.34-2.97,10.52-6.43,16.26-8.48c9.14-3.26,18.41-6.25,27.99-8.4
		c6.02-1.35,11.72-4.04,17.47-6.34c2.64-1.06,5.11-2.42,8.13-2.06c-0.53,2.9-3.63,3.19-5.55,4.62c-3.19,2.38-5.62,4.56-1.4,8.04
		c2.72,2.25,2.62,7.76,9.77,5.98c-3.87,3.43-1.42,7.75-4.7,10.09c3.57,3.61,10.36-2.52,11.85,4.63
		c-37.51,0.04-75.02,0.09-112.54,0.13C287.77,100.64,287.04,100.48,286.71,99.61z"/>
	<path style="fill:#20ADB5;" d="M73.04,383.94l-0.21-0.04c-0.06-18.21-0.18-36.41-0.18-54.62c-0.01-55.77,0.02-111.54,0.04-167.31
		l0.42-0.19c0.15,1.71,0.42,3.42,0.42,5.14c0.02,70.44,0.03,140.88,0.01,211.32C73.54,380.14,73.21,382.04,73.04,383.94z"/>
	<path style="fill:#6FEC5C;" d="M283.14,100.45c0.41-0.32,0.82-0.64,1.23-0.96C284.21,100.08,283.94,100.56,283.14,100.45z"/>
	<path style="fill:#39E36A;" d="M4.98,132.87c0-8.18,0-16.36,0-25.83c3.48,2.95,2.14,5.54,2.43,7.72c0.24,1.78,0.29,3.77,2.64,3.92
		c2.97,0.2,2.07-2.2,2.3-3.74c0.28-1.83-0.59-3.81,1.1-6.04c2.24,4.37,4.4,2.98,6.13-0.04c1.08-1.88,2.97-2.52,4.7-3.51
		c10.73-6.13,21.04-13.13,30.74-20.31c10.52-7.79,22.44-12.73,33.34-19.5c11.33-7.03,23.51-12.72,34.43-20.42
		c15.54-10.96,30.97-22.17,48.98-29.6c1.9-0.78,4.34-1.16,3.59-4.35c-0.46-1.99,1.87-1.44,3.14-1.58
		c5.84-0.62,10.97,3.11,16.83,2.47c0.17-0.02,0.47,0.11,0.53,0.25c3.68,8.14,14.17,10.22,18.24,18.01
		c-7.63-0.51-13.13,0.47-20.84,4.5c-6.88,3.6-15.79,4.6-19.3,12.71c-8.25,0.76-11.67,9.25-19.69,10.63
		c-5.25,0.9-10.26,2.91-13.69,7.07c-4.93,5.97-11.83,9.21-18.83,12.36c-2.41,1.08-5.27,2.03-5.97,4.63c-1.62,5.97-6.48,7.29-11.93,8
		c-1.88,0.25-4.65,0.78-3.5,2.74c3.29,5.58-1.3,4.07-3.88,4.13c-5.73,0.13-11.5,0.43-17.19-0.06c-6.26-0.53-7.9,2.44-7.89,7.38
		c0.01,4.6,0.04,9.21-0.03,13.81c-0.03,1.61,0.57,3.84-2.15,4.03c-3.27,0.24-2.45-2.27-2.76-4.05c-0.81-4.55-3.41-8.71-2.51-14.37
		c-6.98,4.97-3.91,11.27-5.16,16.55c-4.29-2.42-16.58-0.28-19.72,4.52c-2.92,4.47-6.91,6.39-11.47,8.48
		c-4.49,2.07-8.54,4.98-12.78,7.52c-0.31-2.08,0.69-4.4-1.57-7.17c-0.7,3.33-2.44,5.79,1.58,7.17c-0.09,1.66-0.18,3.32-0.34,6.31
		c-3.08-4.5-8-6.39-7.11-11.73C7.63,133.98,6.69,133.04,4.98,132.87z"/>
	<path style="fill:#39E36A;" d="M214.11,30.33c6.56,0.2,8.65,5.62,12.3,9.23C220.93,38.08,216.33,35.6,214.11,30.33z"/>
	<path style="fill:#39E36A;" d="M5.4,104.39c0-5.97,0-11.95,0-17.92c0.39-0.02,0.78-0.04,1.18-0.05c0,5.98,0,11.96,0,17.95
		C6.18,104.37,5.79,104.38,5.4,104.39z"/>
	<path style="fill:#0D84ED;" d="M405.48,500.32c2.12-2.69,4.04-4.2,7.59-4.43C411.65,499.65,409.34,500.76,405.48,500.32z"/>
	<path style="fill:#0D84ED;" d="M497.16,327.58c-0.43,1.3,0.66,3.02-1.22,3.86c-0.19,0.09-1-0.5-1.1-0.88
		c-0.51-1.78,0.35-2.8,2.25-3.09C497.09,327.47,497.16,327.58,497.16,327.58z"/>
	<path style="fill:#108BE3;" d="M398.65,411.75c1.6-0.46,3.2-0.92,4.8-1.38c0.03,0.37,0.16,0.77,0.07,1.12
		c-0.53,2.07,1.68,5.74-2.58,5.67C397.23,417.1,399.2,413.68,398.65,411.75z"/>
	<path style="fill:#20ADB5;" d="M174.3,418.93c-0.35,0.13-0.79,0.43-1.03,0.33s-0.3-0.61-0.44-0.93c0.35-0.13,0.79-0.43,1.03-0.33
		S174.16,418.6,174.3,418.93z"/>
	<path style="fill:#010102;" d="M194.4,199.45c-1.02,16.5-13.28,28.73-30.98,30.32c-7.31,0.66-14.72,0.23-22.07,0.6
		c-3.79,0.19-4.38-1.45-4.34-4.44c0.12-10.16,0.05-20.32,0.05-30.48c0.01,0.01,0.03,0.01,0.04,0.01c0-9.97,0.13-19.94-0.07-29.9
		c-0.07-3.31,1.04-4.38,4.53-4.18c8.75,0.5,17.61-0.84,26.29,1.15C185.7,166.62,195.58,180.38,194.4,199.45z"/>
	<path style="fill:#33D67C;" d="M14.83,140.93c-4.02-1.37-2.28-3.83-1.58-7.17C15.51,136.54,14.51,138.86,14.83,140.93
		C14.82,140.94,14.83,140.93,14.83,140.93z"/>
</g>
</svg>
