<?xml version="1.0" encoding="utf-8"?>
<!-- Generator: Adobe Illustrator 26.3.1, SVG Export Plug-In . SVG Version: 6.00 Build 0)  -->
<svg version="1.1" id="Calque_1" xmlns="http://www.w3.org/2000/svg" xmlns:xlink="http://www.w3.org/1999/xlink" x="0px" y="0px"
	 viewBox="0 0 2500 2500" style="enable-background:new 0 0 2500 2500;" xml:space="preserve">
<style type="text/css">
	.st0{fill:url(#SVGID_1_);}
	.st1{fill:url(#SVGID_00000099630020537062680140000005131118062599445401_);}
	.st2{fill:url(#SVGID_00000181085185441020043910000017545735696674191289_);}
	.st3{fill:url(#SVGID_00000163042686090202482070000003165882017457106063_);}
	.st4{fill:#FFFFFF;}
</style>
<linearGradient id="SVGID_1_" gradientUnits="userSpaceOnUse" x1="-6992.8945" y1="-6861.0137" x2="-6813.9224" y2="-6896.7642" gradientTransform="matrix(8.4733 0 0 -8.4733 60017.2031 -57515.3633)">
	<stop  offset="0.242" style="stop-color:#3BEA62"/>
	<stop  offset="0.857" style="stop-color:#FCF84A"/>
</linearGradient>
<path class="st0" d="M2235.1,897.4c-71.4,14.3-1160.4,282.1-1403.2,335.6c-135.7,32.1-278.5,3.6-399.9-67.8
	C-78.6,851,78.5,97.6,696.2,8.3c32.1-3.6,71.4-7.1,103.5-3.6c71.4,7.1,1399.6,260.6,1421.1,260.6c32.1,3.6,71.4,17.9,100,32.1
	C2602.8,443.9,2535,833.1,2235.1,897.4z"/>
<linearGradient id="SVGID_00000003823362387681967020000004599232582858327713_" gradientUnits="userSpaceOnUse" x1="-7011.8315" y1="-6808.542" x2="-6840.5122" y2="-7069.7144" gradientTransform="matrix(8.4733 0 0 -8.4733 60017.2031 -57515.3633)">
	<stop  offset="1.800000e-02" style="stop-color:#3BEA62"/>
	<stop  offset="0.786" style="stop-color:#087CFA"/>
</linearGradient>
<path style="fill:url(#SVGID_00000003823362387681967020000004599232582858327713_);" d="M1970.9,2486.3
	c-142.8,32.1-285.6,7.1-407-67.8c-75-46.4-132.1-100-178.5-157.1c-10.7-14.3-1046.2-1160.4-1081.9-1199.7
	C-42.9,711.7,139.2,90.5,696.2,4.8C799.7-9.5,906.8,8.3,999.7,58.3c53.6,28.6,100,60.7,139.3,92.8
	c199.9,175,1142.6,1242.5,1192.6,1303.2C2642.1,1797.2,2477.9,2372,1970.9,2486.3z"/>
<linearGradient id="SVGID_00000088108132778069586830000007085471540475909002_" gradientUnits="userSpaceOnUse" x1="-7014.48" y1="-6953.832" x2="-6796.9131" y2="-7032.5938" gradientTransform="matrix(8.4733 0 0 -8.4733 60017.2031 -57515.3633)">
	<stop  offset="0.121" style="stop-color:#1FAEB5"/>
	<stop  offset="0.975" style="stop-color:#087CFA"/>
</linearGradient>
<path style="fill:url(#SVGID_00000088108132778069586830000007085471540475909002_);" d="M1967.3,2486.3
	c-103.5,21.4-210.7,14.3-310.6-21.4c-32.1-10.7-1310.4-649.8-1406.8-710.5c-414.2-257.1-285.6-867.6,214.2-939
	c50-7.1,103.5-7.1,157.1,7.1c32.1,7.1,1431.8,449.9,1449.6,453.5c21.4,7.1,42.8,17.9,64.3,28.6
	C2688.5,1590.1,2563.6,2354.2,1967.3,2486.3z"/>
<linearGradient id="SVGID_00000101809894902287951030000017697889186714363534_" gradientUnits="userSpaceOnUse" x1="-7077.061" y1="-6966.1387" x2="-6796.1001" y2="-6841.3276" gradientTransform="matrix(8.4733 0 0 -8.4733 60017.2031 -57515.3633)">
	<stop  offset="0.121" style="stop-color:#1FAEB5"/>
	<stop  offset="0.856" style="stop-color:#FCF84A"/>
</linearGradient>
<path style="fill:url(#SVGID_00000101809894902287951030000017697889186714363534_);" d="M2335.1,858.1
	c-28.6,14.3-1438.9,810.5-1635.3,903.3c-35.7,17.9-82.1,32.1-125,42.8c-114.3,28.6-232.1,7.1-328.5-53.6
	c-364.2-228.5-307.1-735.5,67.8-896.2c42.8-21.4,1646-514.2,1767.4-560.6c28.6-10.7,53.6-17.9,82.1-21.4c57.1-7.1,110.7,0,157.1,25
	C2563.6,426.1,2545.7,740.3,2335.1,858.1z"/>
<path d="M1999.4,2000.7H499.8V501.1h1499.6V2000.7z"/>
<path class="st4" d="M1228.2,1832.9H667.6v-96.4h560.6C1228.2,1736.5,1228.2,1832.9,1228.2,1832.9z"/>
<g>
	<path class="st4" d="M1285.3,1240.2h367.8v-103.5h-242.8V683.2h-125V1240.2z"/>
	<path class="st4" d="M667.6,1240.2h217.8c175,0,296.4-121.4,296.4-278.5v-3.6c0-153.5-121.4-274.9-296.4-274.9H667.6V1240.2z
		 M789,793.8h92.8c100,0,167.8,67.8,167.8,167.8v3.6c0,96.4-67.8,164.2-167.8,164.2H789V793.8L789,793.8z"/>
</g>
</svg>
