<?xml version="1.0" encoding="utf-8"?>
<!-- Generator: Adobe Illustrator 26.1.0, SVG Export Plug-In . SVG Version: 6.00 Build 0)  -->
<svg version="1.0" id="Capa_1" xmlns="http://www.w3.org/2000/svg" xmlns:xlink="http://www.w3.org/1999/xlink" x="0px" y="0px"
	 viewBox="0 0 512 512" style="enable-background:new 0 0 512 512;" xml:space="preserve">
<g>
	<path style="fill:#4AD295;" d="M277.22,186.23H160.85l-36.46-63.17h189.29L369,27.05H56.13c-19.92,0-38.79,10.6-48.54,28.19
		c-10.17,17.59-10.17,38.79,0,56.38l199.46,345.72c15.69,26.71,50.24,35.61,77.16,19.92c8.27-5.09,15.26-11.45,19.92-19.92
		l6.36-11.45l-91.78-159.19L277.22,186.23z"/>
	<path style="fill:#4AD295;" d="M504.45,55.24c-10.17-17.59-28.62-28.19-48.54-28.19h-13.78L292.06,286.49l54.9,96.02l156.86-271.53
		C514.62,94.03,514.62,72.83,504.45,55.24L504.45,55.24z"/>
</g>
</svg>
