<?xml version="1.0" encoding="utf-8"?>
<!-- Generator: Adobe Illustrator 26.1.0, SVG Export Plug-In . SVG Version: 6.00 Build 0)  -->
<svg version="1.0" id="Calque_1" xmlns="http://www.w3.org/2000/svg" xmlns:xlink="http://www.w3.org/1999/xlink" x="0px" y="0px"
	 viewBox="0 0 512 512" style="enable-background:new 0 0 512 512;" xml:space="preserve">
<g>
	<path style="fill:#010102;" d="M427.06,409.1c-0.01-13.25-0.01-26.49-0.01-39.74V326c-0.01-14.45-0.01-28.87,0-43.31v-45.41
		c-0.02-35.95-0.04-71.89-0.05-107.83c-0.1-11.65-0.61-23.32-0.14-34.95c0.26-6.52-1.22-8.63-8.25-8.53
		c-25.77,0.36-51.56-0.07-77.34-0.21c-9.01-0.01-18.02-0.01-27.02-0.01h-28.99c-0.01,0-0.01,0-0.02,0H261.7c-0.01,0-0.01,0-0.02,0
		H149.39c-0.01,0-0.01,0-0.02,0c-21.49,0.09-42.99,0.19-64.48,0.28c-0.31,11.39-0.63,22.77-0.94,34.16
		c0.12,54.15,0.29,108.3,0.34,162.45c0.02,19.85-0.25,39.69-0.39,59.54c0.14,25.52,0.58,51.03,0.24,76.54
		c-0.04,2.3,0.17,4.06,0.68,5.38c0.17,0.42,0.36,0.79,0.58,1.13c0.08,0.12,0.16,0.23,0.25,0.33c0.07,0.08,0.14,0.17,0.22,0.25
		c0.1,0.11,0.21,0.21,0.33,0.31c0.1,0.08,0.2,0.16,0.3,0.23c0.11,0.08,0.23,0.16,0.35,0.23s0.24,0.14,0.37,0.2
		c0.2,0.1,0.41,0.18,0.63,0.26c0.36,0.13,0.76,0.23,1.19,0.31c0.28,0.05,0.58,0.1,0.89,0.13c0.31,0.04,0.64,0.06,0.98,0.08
		c0.71,0.04,1.49,0.03,2.34,0c10.8-0.45,21.65,0.12,32.48,0.25h0.02c16.29,0,32.6-0.01,48.9-0.01h99.36c33.34,0,66.66,0.01,100,0.01
		h0.01c6.04-0.01,12.07-0.01,18.11-0.01h27.21c3.34,0.21,5.6-0.47,6.75-2.23c0.1-0.16,0.2-0.32,0.28-0.49
		c0.09-0.16,0.16-0.33,0.23-0.51c0.14-0.39,0.25-0.81,0.32-1.26c0.07-0.44,0.1-0.92,0.1-1.43c0-0.69-0.06-1.45-0.18-2.27
		c-0.04-0.23-0.07-0.46-0.09-0.7c-0.02-0.13-0.03-0.27-0.04-0.4c-0.02-0.26-0.04-0.52-0.05-0.78c-0.11-2.84,0.31-5.76,0.4-8.62
		V409.1z M329.9,120.36c41.88,0.26,74.96,34.22,74.78,76.76c-0.19,43.51-33.04,76.87-75.52,76.69
		c-42.47-0.18-74.97-33.86-74.69-77.42C254.74,153.71,288.08,120.11,329.9,120.36z M137.62,134.62
		c26.38-19.23,64.46-18.97,91.57,0.03c6.48,4.55,7.25,7.8,1.66,13.52c-5.01,5.12-9.07,11.17-13.74,17.05
		c-6.6-5.1-13.12-9.91-21.03-12.36c-31.95-9.89-59.78,14.96-56.73,50.68c2.77,32.48,37.68,50.98,66.44,35.2
		c4.34-2.38,8.14-19.47,5.14-23.46c-1.28-1.71-3.3-1.12-5.05-1.13c-6.94-0.04-13.89-0.25-20.82,0.07c-4.09,0.19-4.84-1.33-5.04-5.13
		c-1.21-23.18-1.32-23.17,21.46-23.17c11.16,0,22.33,0.2,33.49-0.09c4.92-0.13,6.85,1.11,6.75,6.46
		c-0.33,17.74-0.14,35.48-0.1,53.23c0.01,2.79-0.34,5.05-2.75,7.14c-38.75,33.67-108.03,29.94-128.22-28.35
		C99.14,191.09,110.5,154.4,137.62,134.62z M144.98,391.57h-12.65c-14.09,0-16.41-3.15-13.83-17.15c0.82-4.5,3.7-3.14,6.02-3.15
		c19.58-0.1,39.16-0.06,58.74-0.06c18.67,0,37.35,0.27,56.01-0.15c6.2-0.14,9,1.28,7.88,7.77c-0.3,1.75-0.27,3.63,0,5.39
		c0.88,5.8-1.28,7.55-7.29,7.49C208.24,391.4,176.61,391.57,144.98,391.57z"/>
	<path style="fill:#FFFFFF;" d="M247.15,384.22c0.88,5.8-1.28,7.55-7.29,7.49c-31.62-0.31-63.25-0.14-94.88-0.14h-12.65
		c-14.09,0-16.41-3.15-13.83-17.15c0.82-4.5,3.7-3.14,6.02-3.15c19.58-0.1,39.16-0.06,58.74-0.06c18.67,0,37.35,0.27,56.01-0.15
		c6.2-0.14,9,1.28,7.88,7.77C246.85,380.58,246.88,382.46,247.15,384.22z"/>
	<path style="fill:#FFFFFF;" d="M329.9,120.36c-41.82-0.25-75.16,33.35-75.43,76.03c-0.28,43.56,32.22,77.24,74.69,77.42
		c42.48,0.18,75.33-33.18,75.52-76.69C404.86,154.58,371.78,120.62,329.9,120.36z M322.86,243.02
		c-21.53-3.77-35.85-22.28-35.86-46.33c-0.01-25.94,18.18-45.85,42-45.98c24.01-0.13,43.05,20.23,43.16,46.12
		C372.28,226.3,349.45,247.69,322.86,243.02z"/>
	<path style="fill:#FFFFFF;" d="M241.62,245.52c0.01,2.79-0.34,5.05-2.75,7.14c-38.75,33.67-108.03,29.94-128.22-28.35
		c-11.51-33.22-0.15-69.91,26.97-89.69c26.38-19.23,64.46-18.97,91.57,0.03c6.48,4.55,7.25,7.8,1.66,13.52
		c-5.01,5.12-9.07,11.17-13.74,17.05c-6.6-5.1-13.12-9.91-21.03-12.36c-31.95-9.89-59.78,14.96-56.73,50.68
		c2.77,32.48,37.68,50.98,66.44,35.2c4.34-2.38,8.14-19.47,5.14-23.46c-1.28-1.71-3.3-1.12-5.05-1.13
		c-6.94-0.04-13.89-0.25-20.82,0.07c-4.09,0.19-4.84-1.33-5.04-5.13c-1.21-23.18-1.32-23.17,21.46-23.17
		c11.16,0,22.33,0.2,33.49-0.09c4.92-0.13,6.85,1.11,6.75,6.46C241.39,210.03,241.58,227.77,241.62,245.52z"/>
	<path style="fill:#088EFB;" d="M83.93,120.17c0.12,54.15,0.29,108.3,0.34,162.45c0.02,19.85-0.25,39.69-0.39,59.54
		c-12.78,8.45-23.26,19.67-35.24,29.08c-4.61,3.62-4.07,6.92-1.09,11.41c14.7,22.2,29.14,44.57,43.66,66.89
		c2.77,4.26,5.82,8.44,5.54,13.92c-5.85-0.88-10.25-4.81-15.27-7.37c-25.77-13.12-51.37-26.6-77.19-39.63
		c-4.58-2.31-5.05-4.27-2.99-8.73c12.23-26.47,24.01-53.15,36.3-79.58c2.22-4.78,2.36-8.78,0.63-13.61
		C25.93,280.34,14,246,1.52,211.85c-2.19-5.99-1.59-10.41,1.6-15.8C22.9,162.7,42.31,129.12,61.85,95.62
		c3.79,4.89,7.6,9.77,11.38,14.67C76.24,114.19,78.09,119.32,83.93,120.17z"/>
	<path style="fill:#BA4FFB;" d="M274,427.78c33.34,0,66.67,0.01,100.01,0.01c0.89,7.75,3.64,14.78,10.22,19.23
		c14.63,9.9,29.58,19.35,44.39,28.98c-6.2,10.94-12.54,21.8-18.56,32.84c-2.92,5.36-6.59,2.52-10.02,1.35
		c-51.45-17.54-102.88-35.15-154.32-52.75C255.14,447.56,264.57,437.67,274,427.78z"/>
	<path style="fill:#7666FB;" d="M218.2,85.74c-22.94,0-45.88,0-68.82,0c0.2-2.83-0.97-4.99-2.72-7.26
		c-14.31-18.58-28.44-37.28-42.63-55.95c5.2-16.47,15.01-25.27,33.64-21.78c7.28,1.37,15,0.41,22.51,0.51
		c-0.13,5.3,3.63,8.62,6.46,12.35c15.65,20.61,31.46,41.1,47,61.78C215.86,78.36,218.93,81.32,218.2,85.74z"/>
	<path style="fill:#088EFB;" d="M427.05,282.69c0-15.13,0-30.27,0-45.4c8.28-11.93,16.55-23.87,24.83-35.81
		c20.09,42.88,39.67,85.99,58.38,129.49c-4.01,4.28-6.45-0.21-9.03-1.88c-21.84-14.12-43.54-28.45-65.35-42.63
		C433.2,284.73,430.81,282.03,427.05,282.69z"/>
	<path style="fill:#3CE863;" d="M451.87,201.48c-8.28,11.94-16.55,23.87-24.83,35.81c-0.02-35.95-0.03-71.89-0.05-107.84
		c27.49-6.28,54.98-12.56,84.74-19.36C490.94,141.85,471.41,171.67,451.87,201.48z"/>
	<path style="fill:#13A0DC;" d="M96.75,463.47c0.27-5.48-2.77-9.65-5.54-13.92c-14.51-22.32-28.95-44.7-43.66-66.89
		c-2.98-4.49-3.52-7.79,1.09-11.41c11.98-9.41,22.46-20.62,35.24-29.08c0.14,25.51,0.58,51.03,0.24,76.54
		c-0.1,7.3,2.17,9.13,9.11,8.84c10.81-0.45,21.67,0.11,32.5,0.25c1.32,2.99,2.29,6.21,4.02,8.93
		c11.21,17.58,22.55,35.08,33.97,52.54c2.18,3.33,4.16,6.57,3.58,10.73C143.48,488.41,119.77,476.59,96.75,463.47z"/>
	<path style="fill:#BA4FFB;" d="M341.27,85.76c-9.01-0.01-18.02-0.01-27.03-0.02c0.74-4.42-2.36-7.36-4.56-10.34
		c-11.31-15.31-23.22-30.2-34.3-45.67c-6.65-9.28-16.5-16.5-19.13-28.47c18.05-0.1,36.1-0.06,54.15-0.4c5-0.1,6.53,2.1,7.8,6.51
		C325.69,33.55,333.54,59.64,341.27,85.76z"/>
	<path style="fill:#1CB3BC;" d="M167.3,499.99c0.58-4.17-1.4-7.4-3.58-10.73c-11.41-17.45-22.75-34.96-33.97-52.54
		c-1.74-2.73-2.7-5.94-4.02-8.93c16.31,0,32.62-0.01,48.92-0.01c-0.1,3.06,0.64,5.67,2.43,8.39c9.92,15.01,19.63,30.15,29.21,45.38
		c2,3.18,5.4,5.93,4.59,10.41c-2.36,2.66-4.62,5.42-7.1,7.97c-13.3,13.7-13.32,13.68-29.6,4.14
		C171.88,502.73,169.59,501.36,167.3,499.99z"/>
	<path style="fill:#9859FB;" d="M218.2,85.74c0.74-4.42-2.34-7.38-4.56-10.34c-15.54-20.69-31.35-41.18-47-61.78
		c-2.83-3.73-6.58-7.05-6.46-12.35c14.51,0,29.01,0,43.52-0.01c-0.22,3.51,1.27,6.44,3.3,9.12c11.38,15.04,23.13,29.83,34.08,45.18
		c7.07,9.91,16.46,18.3,20.62,30.19C247.19,85.74,232.69,85.74,218.2,85.74z"/>
	<path style="fill:#26C39B;" d="M210.89,491.96c0.81-4.48-2.59-7.23-4.59-10.41c-9.58-15.23-19.29-30.38-29.21-45.38
		c-1.8-2.72-2.54-5.33-2.43-8.39c33.11,0,66.23,0,99.34,0c-9.43,9.89-18.85,19.78-28.28,29.67
		C234.11,468.95,222.5,480.46,210.89,491.96z"/>
	<path style="fill:#2582FA;" d="M427.05,282.69c3.76-0.66,6.15,2.04,8.83,3.78c21.8,14.18,43.51,28.5,65.35,42.63
		c2.58,1.67,5.03,6.16,9.03,1.88c3.11,2.77,1.11,5.35-0.39,7.84c-5.75,9.55-11.56,19.06-17.35,28.59c-0.66-0.98-1.11-2.28-2.02-2.89
		c-18.8-12.45-37.66-24.81-56.47-37.24c-2.22-1.47-4.6-1.14-6.98-1.27C427.04,311.56,427.04,297.13,427.05,282.69z"/>
	<path style="fill:#4E73FA;" d="M104.02,22.54c14.19,18.67,28.33,37.37,42.63,55.95c1.75,2.27,2.92,4.42,2.72,7.26
		c-21.5,0.09-43,0.19-64.5,0.28c-5.45-1.44-7.63-6.81-11.81-9.78C82.46,57.81,93.05,40.06,104.02,22.54z"/>
	<path style="fill:#4E73FA;" d="M427.04,326c2.38,0.12,4.77-0.2,6.98,1.27c18.81,12.43,37.67,24.79,56.47,37.24
		c0.91,0.6,1.36,1.91,2.02,2.89c-5.51,10.12-10.29,20.69-18.24,29.31c-11.19-4.87-20.73-12.43-31.09-18.67
		c-5.21-3.14-9.35-8.43-16.14-8.68C427.04,354.9,427.04,340.45,427.04,326z"/>
	<path style="fill:#B051FB;" d="M256.24,1.26c2.63,11.97,12.48,19.19,19.13,28.47c11.08,15.47,22.99,30.35,34.3,45.67
		c2.2,2.98,5.3,5.92,4.56,10.34c-9.66,0-19.33,0-28.99,0c0.1-2.46-0.53-4.53-2.11-6.6c-13-17.02-26.16-33.93-38.64-51.33
		c-6.14-8.55-14.95-15.49-17.24-26.56C236.91,1.26,246.58,1.26,256.24,1.26z"/>
	<path style="fill:#A455FB;" d="M227.25,1.26c2.29,11.06,11.1,18.01,17.24,26.56c12.49,17.39,25.64,34.31,38.64,51.33
		c1.58,2.07,2.21,4.15,2.11,6.6c-7.85,0-15.71,0-23.56,0c-4.16-11.89-13.55-20.28-20.62-30.19c-10.95-15.35-22.7-30.13-34.08-45.18
		c-2.03-2.68-3.52-5.61-3.3-9.12C211.54,1.26,219.4,1.26,227.25,1.26z"/>
	<path style="fill:#7666FB;" d="M427.04,369.35c6.79,0.25,10.93,5.54,16.14,8.68c10.35,6.24,19.9,13.8,31.09,18.67
		c-3.04,10.71-10.55,18.99-15.6,28.6c-3.09-0.43-5.36-2.59-8.06-3.75c-8.21-3.53-13.95-11.66-23.57-12.45
		C427.04,395.85,427.04,382.6,427.04,369.35z"/>
	<path style="fill:#B051FB;" d="M428.62,476.01c-14.82-9.63-29.76-19.08-44.39-28.98c-6.58-4.45-9.34-11.48-10.22-19.23
		c6.04,0,12.08,0,18.12-0.01c-0.31,4.69,3.01,6.6,6.31,8.95c12.41,8.84,26.64,15.04,37.73,25.79
		C434.94,467.74,431.83,471.9,428.62,476.01z"/>
	<path style="fill:#9859FB;" d="M427.05,409.1c9.62,0.79,15.36,8.92,23.57,12.45c2.69,1.16,4.97,3.33,8.06,3.75
		c-4.68,7.83-9.36,15.66-14.03,23.48c-6.96-4.67-13.82-9.5-20.94-13.92c-2.86-1.77-4.67-3.64-4.37-7.09c5.87,0.36,8.41-2,7.5-8.16
		C426.32,416.21,426.94,412.62,427.05,409.1z"/>
	<path style="fill:#A455FB;" d="M419.33,427.79c-0.29,3.44,1.52,5.31,4.37,7.09c7.12,4.42,13.98,9.25,20.94,13.92
		c-2.12,5.01-4.56,9.82-8.47,13.73c-11.08-10.75-25.31-16.94-37.73-25.78c-3.3-2.35-6.63-4.26-6.31-8.95
		C401.19,427.79,410.26,427.79,419.33,427.79z"/>
	<path style="fill:#2582FA;" d="M73.06,76.23c4.18,2.97,6.36,8.34,11.81,9.78c-0.31,11.38-0.63,22.77-0.94,34.16
		c-5.84-0.85-7.69-5.98-10.7-9.88c-3.78-4.9-7.58-9.78-11.38-14.67C64.8,88.71,68.68,82.33,73.06,76.23z"/>
	<path style="fill:#010102;" d="M372.16,196.83c0.12,29.47-22.71,50.86-49.3,46.19c-21.53-3.77-35.85-22.28-35.86-46.33
		c-0.01-25.94,18.18-45.85,42-45.98C353.01,150.58,372.05,170.94,372.16,196.83z"/>
</g>
</svg>
