<?xml version="1.0" encoding="utf-8"?>
<!-- Generator: Adobe Illustrator 26.1.0, SVG Export Plug-In . SVG Version: 6.00 Build 0)  -->
<svg version="1.0" id="Calque_1" xmlns="http://www.w3.org/2000/svg" xmlns:xlink="http://www.w3.org/1999/xlink" x="0px" y="0px"
	 viewBox="0 0 187 30" style="enable-background:new 0 0 187 30;" xml:space="preserve">
<g id="Linkedin" transform="translate(-209 -845)">
	<path id="Rectangle_14" style="fill:#FFFFFF;" d="M214,845h177c2.76,0,5,2.24,5,5v20c0,2.76-2.24,5-5,5H214c-2.76,0-5-2.24-5-5v-20
		C209,847.24,211.24,845,214,845z"/>
	<g style="enable-background:new    ;">
		<path style="fill:#2A2A2A;" d="M245.14,867v-12.8h3.94c1.12,0,2.13,0.25,3.02,0.76c0.89,0.51,1.58,1.23,2.08,2.16
			c0.5,0.94,0.75,2,0.75,3.19v0.59c0,1.19-0.24,2.25-0.73,3.17s-1.18,1.64-2.07,2.15s-1.9,0.77-3.01,0.77H245.14z M247.78,856.34
			v8.54h1.27c1.03,0,1.82-0.34,2.36-1.01s0.82-1.64,0.83-2.89v-0.68c0-1.3-0.27-2.29-0.81-2.96s-1.33-1.01-2.36-1.01H247.78z"/>
		<path style="fill:#2A2A2A;" d="M256.28,862.16c0-0.94,0.18-1.78,0.54-2.52s0.89-1.31,1.57-1.71s1.48-0.61,2.38-0.61
			c1.28,0,2.33,0.39,3.14,1.18s1.26,1.85,1.36,3.2l0.02,0.65c0,1.46-0.41,2.63-1.22,3.51s-1.91,1.32-3.28,1.32s-2.47-0.44-3.28-1.32
			s-1.23-2.07-1.23-3.59V862.16z M258.82,862.34c0,0.9,0.17,1.59,0.51,2.07c0.34,0.48,0.83,0.72,1.46,0.72
			c0.62,0,1.1-0.24,1.44-0.71c0.35-0.47,0.52-1.23,0.52-2.27c0-0.89-0.17-1.57-0.52-2.06s-0.83-0.73-1.46-0.73
			c-0.62,0-1.1,0.24-1.44,0.73C258.99,860.57,258.82,861.32,258.82,862.34z"/>
		<path style="fill:#2A2A2A;" d="M272.2,859.87c-0.35-0.05-0.65-0.07-0.91-0.07c-0.96,0-1.59,0.33-1.89,0.98V867h-2.54v-9.51h2.4
			l0.07,1.13c0.51-0.87,1.22-1.31,2.12-1.31c0.28,0,0.54,0.04,0.79,0.11L272.2,859.87z"/>
		<path style="fill:#2A2A2A;" d="M273.4,855.03c0-0.38,0.13-0.69,0.38-0.94s0.6-0.37,1.04-0.37c0.43,0,0.78,0.12,1.04,0.37
			s0.39,0.56,0.39,0.94c0,0.39-0.13,0.7-0.39,0.95s-0.6,0.37-1.03,0.37s-0.77-0.12-1.03-0.37S273.4,855.42,273.4,855.03z M276.1,867
			h-2.55v-9.51h2.55V867z"/>
		<path style="fill:#2A2A2A;" d="M283.7,867c-0.12-0.23-0.2-0.51-0.25-0.85c-0.62,0.69-1.42,1.03-2.4,1.03
			c-0.93,0-1.7-0.27-2.32-0.81s-0.92-1.22-0.92-2.04c0-1.01,0.37-1.78,1.12-2.32s1.83-0.81,3.24-0.82h1.17v-0.54
			c0-0.44-0.11-0.79-0.34-1.05s-0.58-0.4-1.07-0.4c-0.43,0-0.76,0.1-1.01,0.31s-0.36,0.49-0.36,0.84h-2.54
			c0-0.55,0.17-1.06,0.51-1.53s0.82-0.84,1.44-1.1s1.32-0.4,2.09-0.4c1.17,0,2.1,0.29,2.79,0.88c0.69,0.59,1.03,1.42,1.03,2.48v4.12
			c0.01,0.9,0.13,1.58,0.38,2.05V867H283.7z M281.6,865.23c0.38,0,0.72-0.08,1.04-0.25c0.32-0.17,0.55-0.39,0.7-0.67v-1.63h-0.95
			c-1.27,0-1.95,0.44-2.03,1.32l-0.01,0.15c0,0.32,0.11,0.58,0.33,0.78S281.21,865.23,281.6,865.23z"/>
		<path style="fill:#2A2A2A;" d="M290.18,857.49l0.08,1.1c0.68-0.85,1.59-1.27,2.73-1.27c1.01,0,1.76,0.3,2.25,0.89
			s0.74,1.48,0.76,2.65V867h-2.54v-6.08c0-0.54-0.12-0.93-0.35-1.17c-0.23-0.24-0.62-0.36-1.17-0.36c-0.71,0-1.25,0.3-1.61,0.91V867
			h-2.54v-9.51H290.18z"/>
		<path style="fill:#2A2A2A;" d="M302.01,862.17c0-1.48,0.33-2.66,1-3.54s1.57-1.32,2.73-1.32c0.93,0,1.69,0.35,2.29,1.04v-4.85
			h2.55V867h-2.29l-0.12-1.01c-0.63,0.79-1.45,1.19-2.44,1.19c-1.12,0-2.02-0.44-2.69-1.32S302.01,863.75,302.01,862.17z
			 M304.55,862.36c0,0.89,0.16,1.58,0.47,2.05s0.76,0.71,1.35,0.71c0.79,0,1.34-0.33,1.66-1v-3.76c-0.32-0.66-0.86-1-1.64-1
			C305.16,859.38,304.55,860.38,304.55,862.36z"/>
		<path style="fill:#2A2A2A;" d="M316.92,867.18c-1.39,0-2.53-0.43-3.41-1.28s-1.31-2-1.31-3.42v-0.25c0-0.96,0.18-1.81,0.55-2.56
			s0.89-1.33,1.57-1.74s1.45-0.61,2.32-0.61c1.3,0,2.32,0.41,3.07,1.23s1.12,1.98,1.12,3.49v1.04h-6.06
			c0.08,0.62,0.33,1.12,0.74,1.49s0.94,0.56,1.57,0.56c0.98,0,1.74-0.35,2.29-1.06l1.25,1.4c-0.38,0.54-0.9,0.96-1.55,1.26
			C318.43,867.02,317.71,867.18,316.92,867.18z M316.63,859.36c-0.5,0-0.91,0.17-1.23,0.51c-0.31,0.34-0.51,0.83-0.6,1.47h3.53v-0.2
			c-0.01-0.57-0.16-1-0.46-1.31C317.59,859.52,317.17,859.36,316.63,859.36z"/>
		<path style="fill:#2A2A2A;" d="M331.65,863.83l2.9-9.62h2.94l-4.46,12.8h-2.75l-4.44-12.8h2.93L331.65,863.83z"/>
		<path style="fill:#2A2A2A;" d="M341.5,867h-2.64v-12.8h2.64V867z"/>
		<path style="fill:#2A2A2A;" d="M346.58,864.88h5.6V867h-8.24v-12.8h2.64V864.88z"/>
		<path style="fill:#2A2A2A;" d="M356.32,864.88h5.6V867h-8.24v-12.8h2.64V864.88z"/>
		<path style="fill:#2A2A2A;" d="M371.13,861.45h-5.06v3.43h5.94V867h-8.58v-12.8H372v2.14h-5.92v3.05h5.06V861.45z"/>
		<path style="fill:#2A2A2A;" d="M376.2,864.88h5.6V867h-8.24v-12.8h2.64V864.88z"/>
		<path style="fill:#2A2A2A;" d="M391.01,861.45h-5.06v3.43h5.94V867h-8.58v-12.8h8.56v2.14h-5.92v3.05h5.06V861.45z"/>
	</g>
	<g>
		<defs>
			<rect id="SVGID_1_" x="214" y="850" width="20" height="20"/>
		</defs>
		<clipPath id="SVGID_00000183961327889718240170000011676758296146734474_">
			<use xlink:href="#SVGID_1_"  style="overflow:visible;"/>
		</clipPath>
		
			<g id="Groupe_de_masques_2" transform="translate(104.841 165.841)" style="clip-path:url(#SVGID_00000183961327889718240170000011676758296146734474_);">
			<g id="_031-linkedin" transform="translate(109 684)">
				<g id="Groupe_4" transform="translate(0 6.349)">
					<g id="Groupe_3">
						<rect id="Rectangle_11" x="0" y="0" style="fill:#2A2A2A;" width="4.54" height="13.97"/>
					</g>
				</g>
				<g id="Groupe_6" transform="translate(6.349 6.349)">
					<g id="Groupe_5">
						<path id="Tracé_2" style="fill:#2A2A2A;" d="M10.57,0.16c-0.05-0.02-0.09-0.03-0.15-0.05s-0.12-0.02-0.18-0.04
							C9.97,0.03,9.7,0,9.43,0C7.47,0.08,5.67,1.07,4.54,2.67V0H0v13.97h4.54V6.35c0,0,3.43-4.78,4.88-1.27v8.89h4.54V4.54
							C13.96,2.48,12.57,0.68,10.57,0.16z"/>
					</g>
				</g>
				<g id="Groupe_8">
					<g id="Groupe_7">
						<circle id="Ellipse_1" style="fill:#2A2A2A;" cx="2.22" cy="2.22" r="2.22"/>
					</g>
				</g>
			</g>
		</g>
	</g>
</g>
</svg>
