<?xml version="1.0" encoding="utf-8"?>
<!-- Generator: Adobe Illustrator 26.3.1, SVG Export Plug-In . SVG Version: 6.00 Build 0)  -->
<svg version="1.1" id="Calque_1" xmlns="http://www.w3.org/2000/svg" xmlns:xlink="http://www.w3.org/1999/xlink" x="0px" y="0px"
	 viewBox="0 0 183.4 30" style="enable-background:new 0 0 183.4 30;" xml:space="preserve">
<style type="text/css">
	.st0{stroke:#000000;stroke-width:0.5;stroke-miterlimit:10;}
	.st1{stroke:#000000;stroke-miterlimit:10;}
	.st2{font-family:'MyriadPro-Regular';}
	.st3{font-size:22.2205px;}
</style>
<path class="st0" d="M178.4,1c2.2,0,4,1.8,4,4v20c0,2.2-1.8,4-4,4H5c-2.2,0-4-1.8-4-4V5c0-2.2,1.8-4,4-4H178.4 M178.4,0H5
	C2.2,0,0,2.2,0,5v20c0,2.8,2.2,5,5,5h173.4c2.8,0,5-2.2,5-5V5C183.4,2.2,181.2,0,178.4,0L178.4,0z"/>
<g>
	<rect x="4.4" y="10.3" width="4.1" height="12.7"/>
	<path d="M19.8,10.4c0,0-0.1,0-0.1,0c-0.1,0-0.1,0-0.2,0c-0.2,0-0.5-0.1-0.7-0.1c-2.4,0-4,1.8-4.5,2.4v-2.4h-4.1V23h4.1v-7
		c0,0,3.1-4.4,4.5-1.2c0,2.9,0,8.1,0,8.1h4.1v-8.6C22.9,12.5,21.6,10.9,19.8,10.4z"/>
	<circle cx="6.4" cy="6.5" r="2"/>
</g>
<text transform="matrix(1 0 0 1 37.5004 23.0014)" class="st1 st2 st3">TheR7angelo</text>
</svg>
