<?xml version="1.0" encoding="utf-8"?>
<!-- Generator: Adobe Illustrator 26.1.0, SVG Export Plug-In . SVG Version: 6.00 Build 0)  -->
<svg version="1.0" id="Calque_1" xmlns="http://www.w3.org/2000/svg" xmlns:xlink="http://www.w3.org/1999/xlink" x="0px" y="0px"
	 viewBox="0 0 512 512" style="enable-background:new 0 0 512 512;" xml:space="preserve">
<g>
	<g>
		<path style="fill:#9EE270;" d="M382.26,2.32c4.61,32.35,9.23,64.7,13.84,97.05c-40.82-0.02-81.64-0.03-122.46-0.05
			c-0.01-0.59,0.04-1.18,0.17-1.76c13.56-10.81,26.53-22.29,38.78-34.57c22.84-19.79,46.38-38.8,67.35-60.67
			C380.72,2.32,381.49,2.32,382.26,2.32z"/>
		<path style="fill:#4CDA7F;" d="M2.32,386.9c5.33-9.42,2.98-20.2,5.35-30.14c6.23,1.35,8.81,6.52,12.04,11.16
			c3.56,5.11,6.66,6.12,11.02-0.19c4.2-6.07,5.73-14.3,13.28-17.9c17.28,9.63,36.63,13.07,55.31,18.51
			c0.27,15.39,0.53,30.78,0.8,46.17c-3.39-0.37-6.92-0.25-10.13-1.2c-19.76-5.87-39.4-12.1-59.15-17.99
			c-17.62-5.26-20.19-3.67-26.36,15.2c-0.77,0.12-1.49-0.02-2.15-0.44C2.32,402.34,2.32,394.62,2.32,386.9z"/>
		<path style="fill:#21D495;" d="M222.41,2.32c19.03,16.02,41.04,27.68,61.38,41.8c9.43,6.54,19.2,12.6,28.81,18.87
			c-12.25,12.28-25.22,23.76-38.78,34.57c-4.2-2.18-7-5.7-9.75-9.45c-19.32-26.39-38.77-52.68-58.19-79
			c3.96-2.26,7.93-4.53,11.89-6.79C219.32,2.32,220.86,2.32,222.41,2.32z"/>
		<path style="fill:#010201;" d="M414.57,119.16c-0.1-18.81-0.08-18.81-18.47-19.81h-0.01c-40.82-0.02-81.63-0.03-122.45-0.05h-0.01
			c-3.61,0.01-7.2,0.02-10.81,0.04c-6.4,0.02-12.8,0.04-19.2,0.06c-8.94,0.03-17.89,0.07-26.83,0.1c-0.99,0.01-1.99,0.01-2.98,0.01
			c-9.35,0.03-18.71,0.06-28.07,0.09h-0.5c-24.49,0.05-48.98,0.05-73.47-0.09c-9.35-0.05-12.35,2-12.28,11.87
			c0.38,51.64-0.03,103.29-0.17,154.93c0,0.01,0,0.01,0,0.02v0.06c-0.01,16.98-0.01,33.96-0.02,50.94v0.01
			c0.01,17,0.01,33.99,0.01,50.99v0.01c0.27,15.39,0.53,30.77,0.8,46.16h0.01c2.23,0.09,4.47,0.17,6.7,0.25
			c2.24,0.08,4.47,0.16,6.71,0.24c14.58-0.02,29.16-0.03,43.74-0.04c3.17,0,6.35,0.01,9.53,0.02h113.53
			c17,0.01,33.99,0.01,50.98,0.02c24.65-0.15,49.31-0.63,73.95-0.25c3.43,0.06,5.68-0.4,7.13-1.56c0.1-0.08,0.2-0.17,0.3-0.26
			c0.19-0.19,0.37-0.38,0.53-0.6c0.04-0.04,0.07-0.08,0.1-0.13c0.09-0.14,0.18-0.29,0.27-0.44c0.18-0.33,0.34-0.68,0.47-1.06
			c0.06-0.19,0.12-0.39,0.18-0.59c0.16-0.59,0.27-1.25,0.34-1.97c0.04-0.35,0.07-0.72,0.09-1.1c0.02-0.26,0.03-0.53,0.03-0.81
			c0.02-0.38,0.02-0.78,0.02-1.2c0-0.01,0-0.01,0-0.02c-0.13-58.14,0.15-116.28,0.3-174.42V129.4
			C414.86,125.99,414.59,122.58,414.57,119.16z M129.04,149.51c-0.15-6.51,1.62-8.56,8.25-8.35c15.8,0.5,31.63-0.15,47.42,0.33
			c27.62,0.85,45.88,17.69,46.91,42.61c1.09,26.46-14.62,44.44-42.54,48.08c-7.61,0.99-15.42,1.42-23.05,0.86
			c-7.53-0.56-9.25,2.28-8.68,9.12c0.58,6.89-0.44,13.93,0.28,20.79c0.8,7.61-2.42,8.74-9.13,8.7c-19.3-0.13-19.3,0.18-19.3-19.2
			v-46.27C129.2,187.29,129.47,168.39,129.04,149.51z M247.45,372.86c-0.06,0.13-0.13,0.26-0.21,0.39c-0.01,0.01,0,0.01,0,0.01
			c-0.16,0.25-0.34,0.48-0.57,0.7c-0.12,0.12-0.24,0.23-0.38,0.34c-0.38,0.28-0.83,0.52-1.39,0.7c-0.1,0.04-0.22,0.07-0.33,0.1
			c-0.23,0.07-0.48,0.12-0.74,0.17c-0.19,0.03-0.38,0.06-0.58,0.09c-0.69,0.09-1.48,0.12-2.37,0.09c-3.69-0.12-7.37-0.2-11.06-0.25
			c-0.04-0.01-0.08-0.01-0.12,0c-8.67-0.11-17.34-0.06-26,0c-5.36,0.03-10.7,0.07-16.05,0.07c-15.21,0-30.44-0.4-45.63,0.03
			c-0.91,0.03-1.83,0.05-2.74,0.09c-0.22,0-0.45,0.01-0.67,0.03c-0.63,0.02-1.25,0.05-1.88,0.07c-8.51,0.36-7.3-4.62-6.98-9.46
			c0.13-2.02-0.38-4.36-0.22-6.36c0.02-0.28,0.05-0.55,0.1-0.81c0.02-0.08,0.04-0.16,0.05-0.25c0.04-0.16,0.08-0.32,0.14-0.48
			c0.28-0.78,0.75-1.46,1.54-1.98c0.13-0.09,0.27-0.17,0.41-0.24c0.14-0.07,0.28-0.13,0.44-0.2c0.01,0,0.03-0.01,0.05-0.02
			c0.06-0.02,0.11-0.04,0.17-0.07c0.06-0.02,0.12-0.04,0.18-0.06c0.05-0.01,0.1-0.03,0.15-0.04v-0.01c0.18-0.06,0.38-0.11,0.58-0.15
			c0.2-0.04,0.41-0.08,0.63-0.12c0.74-0.11,1.6-0.17,2.59-0.16c34.72,0.38,69.44,0.39,104.16-0.01c1.25-0.01,2.29,0.08,3.16,0.26
			c0,0,0,0,0.01,0c0.8,0.18,1.45,0.43,1.97,0.74h0.01c0.18,0.1,0.33,0.21,0.48,0.34c0,0,0,0,0.01,0c0.08,0.07,0.16,0.14,0.24,0.21
			c0.07,0.07,0.14,0.14,0.21,0.22c0.04,0.04,0.07,0.08,0.11,0.13c0.03,0.03,0.06,0.07,0.08,0.11c0.09,0.11,0.17,0.23,0.25,0.36
			c0.05,0.08,0.1,0.17,0.14,0.26c0.03,0.04,0.05,0.09,0.07,0.14c0.05,0.09,0.09,0.18,0.12,0.28c0.04,0.09,0.07,0.19,0.09,0.28
			c0.07,0.18,0.11,0.37,0.15,0.57c0.01,0,0.01,0.01,0,0.02c0.02,0.1,0.04,0.2,0.05,0.31c0.01,0.05,0.02,0.1,0.03,0.16
			c0,0.05,0.01,0.1,0.01,0.15c0.09,0.73,0.08,1.51,0.05,2.3c0,0.01,0,0.02,0,0.02v0.01c-0.02,0.35-0.04,0.7-0.06,1.05v0.11
			c-0.02,0.35-0.05,0.7-0.06,1.05v0.1c-0.01,0.07-0.01,0.14-0.01,0.21c-0.02,0.47-0.03,0.94-0.01,1.4c0.1,2.38,0.44,4.77-0.2,6.58
			C247.57,372.58,247.51,372.72,247.45,372.86z M357.92,255.38c-13.22,12.78-29.45,17.67-42.61,17.85
			c-45.15,0.23-74.63-31.33-71.87-71.74c2.71-40.02,38.61-67.88,79.37-61.68c12.43,1.89,23.72,6.12,33.71,14.01
			c4.85,3.83,6.74,7.11,1.19,11.65c-0.88,0.72-1.64,1.66-2.25,2.63c-6,9.46-11.04,13.22-22.71,4.52
			c-16.49-12.29-38.92-7.32-50.77,7.84c-12.48,15.96-11.36,40.86,2.5,55.32c13.01,13.58,34.91,14.76,51.96,3.2
			c3.19-2.16,5.76-8.45,10.17-5.36c5.9,4.12,10.91,9.81,15.38,15.54C363.59,251.22,359.77,253.59,357.92,255.38z"/>
		<path style="fill:#FFFFFF;" d="M357.92,255.38c-13.22,12.78-29.45,17.67-42.61,17.85c-45.15,0.23-74.63-31.33-71.87-71.74
			c2.71-40.02,38.61-67.88,79.37-61.68c12.43,1.89,23.72,6.12,33.71,14.01c4.85,3.83,6.74,7.11,1.19,11.65
			c-0.88,0.72-1.64,1.66-2.25,2.63c-6,9.46-11.04,13.22-22.71,4.52c-16.49-12.29-38.92-7.32-50.77,7.84
			c-12.48,15.96-11.36,40.86,2.5,55.32c13.01,13.58,34.91,14.76,51.96,3.2c3.19-2.16,5.76-8.45,10.17-5.36
			c5.9,4.12,10.91,9.81,15.38,15.54C363.59,251.22,359.77,253.59,357.92,255.38z"/>
		<path style="fill:#FFFFFF;" d="M231.62,184.1c-1.03-24.92-19.29-41.76-46.91-42.61c-15.79-0.48-31.62,0.17-47.42-0.33
			c-6.63-0.21-8.4,1.84-8.25,8.35c0.43,18.88,0.16,37.78,0.16,56.67v46.27c0,19.38,0,19.07,19.3,19.2c6.71,0.04,9.93-1.09,9.13-8.7
			c-0.72-6.86,0.3-13.9-0.28-20.79c-0.57-6.84,1.15-9.68,8.68-9.12c7.63,0.56,15.44,0.13,23.05-0.86
			C217,228.54,232.71,210.56,231.62,184.1z M202.18,188.95c-0.59,8.88-5.81,14.02-13.72,16.67c-2.85,0.96-6.08,0.93-9.16,1.06
			c-21.82,0.97-21.82,0.95-21.82-21.02c0-19.14,0-19.08,19.38-18.88c5.46,0.05,10.85,0.38,15.79,2.81
			C200.7,173.56,202.73,180.62,202.18,188.95z"/>
		<path style="fill:#FBF74B;" d="M331.31,415.01c24.65-0.15,49.31-0.63,73.95-0.25c7.79,0.12,9.48-2.37,9.46-9.74
			c-0.14-58.17,0.14-116.35,0.3-174.53c8.26-3.06,16.75-5.63,24.72-9.33c7.18-3.33,9.78-1.25,11.62,5.95
			c5.19,20.38,10.99,40.6,16.55,60.88c8.9,34.66,17.76,69.34,26.73,103.98c4.73,18.27,9.35,36.57,14.63,54.68
			c2.45,8.4,1.61,12.38-8.03,15.5c-42.16,13.61-84.18,27.74-125.77,42.99c-15.74,5.77-29.85,5.11-44.39-1.8
			C331.15,473.89,331.23,444.45,331.31,415.01z"/>
		<path style="fill:#3AD985;" d="M100.11,414.5c4.47,0.17,8.94,0.33,13.41,0.5c0.23,2.51,1.56,4.25,3.91,5.01
			c11.75,3.81,23.03,9.16,35.42,10.9c-0.15,2.3-0.05,4.64-0.49,6.88c-3.3,16.75-3.34,16.74,13.97,19.16
			c15.08,4.57,30.16,9.15,45.24,13.72c-10.29,12.43-20.67,24.78-30.8,37.32c-2.8,3.47-5.17,3.32-8.73,1.21
			c-55.82-32.97-111.7-65.82-167.57-98.71c6.16-18.87,8.73-20.46,26.36-15.2c19.75,5.89,39.4,12.12,59.15,17.99
			C93.19,414.25,96.72,414.13,100.11,414.5z"/>
		<path style="fill:#0DC5E8;" d="M467.91,287.99c-5.56-20.28-11.37-40.5-16.55-60.88c-1.83-7.2-4.44-9.28-11.62-5.95
			c-7.97,3.7-16.46,6.27-24.72,9.33c0-33.69,0-67.39,0-101.08c29.6,24.56,59.16,49.15,88.82,73.63c3.13,2.58,4.2,4.8,2.18,8.79
			C493.19,237.16,480.59,262.59,467.91,287.99z"/>
		<path style="fill:#D5ED5C;" d="M211.57,470.68c-15.08-4.57-30.16-9.15-45.23-13.72c0.16-13.99,0.31-27.98,0.46-41.97
			c37.84,0,75.69,0,113.53,0c0,5,0.21,10.02-0.05,15.01c-1.01,19.51,2.49,39.2-2.26,58.57
			C255.87,482.61,233.72,476.64,211.57,470.68z"/>
		<path style="fill:#EDF450;" d="M278.02,488.58c4.75-19.37,1.25-39.06,2.26-58.57c0.26-4.99,0.05-10.01,0.05-15.01
			c16.99,0.01,33.98,0.01,50.98,0.02c-0.08,29.44-0.16,58.89-0.24,88.33C313.02,499.76,295.47,494.35,278.02,488.58z"/>
		<path style="fill:#22D689;" d="M273.64,99.31c-53.96,0.14-107.91,0.52-161.86,0.21c-9.35-0.05-12.35,2-12.28,11.87
			c0.38,51.64-0.03,103.28-0.17,154.93c-10.37,13.17-19.71,27.02-27.7,41.77c-9.09,12.45-18.19,24.91-27.28,37.36
			c-3.56-1.7-5.28-5.18-7.84-7.86c-8.43-8.82-11.43-22.55-24.45-27.18c4.81-51.79,9.61-103.59,14.43-155.38
			c2.03-21.87,4.17-43.73,6.06-65.62C33,84.2,33.6,80.1,39.53,77.64C93.91,55.11,148.16,32.25,202.46,9.53
			c1.02-0.43,2.27-0.3,3.42-0.43c19.41,26.32,38.86,52.61,58.18,79c2.75,3.75,5.55,7.27,9.75,9.45
			C273.69,98.13,273.63,98.72,273.64,99.31z"/>
		<path style="fill:#3AD985;" d="M12.06,310.41c13.02,4.63,16.01,18.36,24.45,27.18c2.56,2.68,4.28,6.16,7.84,7.86
			c-0.12,1.46-0.23,2.92-0.34,4.38c-7.55,3.6-9.08,11.82-13.28,17.9c-4.36,6.31-7.46,5.3-11.02,0.19
			c-3.23-4.65-5.82-9.82-12.04-11.16C9.13,341.3,10.6,325.86,12.06,310.41z"/>
		<path style="fill:#70DE78;" d="M44.01,349.83c0.11-1.46,0.22-2.92,0.34-4.38c9.1-12.45,18.19-24.91,27.29-37.36
			c8.83,4.28,17.83,8.01,27.68,9.25c0,17,0,34,0.01,51C80.63,362.9,61.29,359.46,44.01,349.83z"/>
		<path style="fill:#FFFFFF;" d="M247.62,372.44c-0.2,0.57-0.51,1.09-0.95,1.52c-0.12,0.12-0.24,0.23-0.38,0.34
			c-0.38,0.28-0.83,0.52-1.39,0.7c-0.1,0.04-0.22,0.07-0.33,0.1c-0.23,0.07-0.48,0.12-0.74,0.17c-0.82,0.15-1.79,0.21-2.94,0.17
			c-3.69-0.12-7.38-0.2-11.07-0.24c-0.04-0.01-0.08-0.01-0.12,0c-8.67-0.11-17.34-0.06-26,0c-5.36,0.03-10.7,0.07-16.05,0.07
			c-15.21,0-30.44-0.4-45.63,0.03c-1.76,0.05-3.52,0.11-5.28,0.18c-8.51,0.36-7.3-4.62-6.98-9.46c0.15-2.29-0.54-5-0.13-7.16
			c0.02-0.08,0.04-0.16,0.05-0.25c0.04-0.16,0.09-0.32,0.14-0.48c0.28-0.78,0.75-1.46,1.54-1.98c1.07-0.69,2.71-1.1,5.2-1.07
			c34.72,0.38,69.44,0.39,104.16-0.01c1.25-0.01,2.29,0.08,3.16,0.26c0,0,0.01-0.01,0.01,0c0.8,0.18,1.45,0.43,1.97,0.74
			c0.01-0.01,0.01,0,0.01,0c0.18,0.11,0.33,0.22,0.48,0.34c0,0,0.01-0.01,0.01,0c1.83,1.49,1.69,4,1.54,6.58v0.11
			c-0.06,0.93-0.12,1.86-0.08,2.76C247.92,368.24,248.26,370.63,247.62,372.44z"/>
		<path style="fill:#EFEFEF;" d="M240.73,355.06c1.25-0.01,2.29,0.08,3.15,0.27c-0.87-0.18-1.91-0.27-3.16-0.26
			c-34.72,0.4-69.44,0.39-104.16,0.01c-2.49-0.03-4.13,0.38-5.2,1.07c1.07-0.7,2.71-1.11,5.21-1.08
			C171.29,355.46,206.01,355.47,240.73,355.06z"/>
		<path style="fill:#EFEFEF;" d="M243.89,355.33c0.8,0.17,1.45,0.42,1.97,0.74C245.34,355.76,244.69,355.51,243.89,355.33z"/>
		<path style="fill:#EFEFEF;" d="M246.67,373.96c0.44-0.43,0.75-0.95,0.95-1.52C247.42,373.02,247.12,373.53,246.67,373.96z"/>
		<path style="fill:#EFEFEF;" d="M247.62,372.44c0.64-1.81,0.3-4.2,0.2-6.58c-0.04-0.9,0.02-1.83,0.08-2.76
			c-0.06,0.93-0.11,1.86-0.07,2.75C247.93,368.23,248.27,370.64,247.62,372.44z"/>
		<path style="fill:#EFEFEF;" d="M246.36,356.41c1.84,1.48,1.7,4,1.54,6.58C248.05,360.41,248.19,357.9,246.36,356.41z"/>
		<path style="fill:#9EE270;" d="M99.31,317.33c-9.84-1.24-18.85-4.97-27.68-9.25c7.99-14.75,17.32-28.6,27.69-41.77
			C99.32,283.32,99.32,300.33,99.31,317.33z"/>
		<path style="fill:#9EE270;" d="M166.8,414.99c-0.15,13.99-0.31,27.97-0.46,41.97c-17.31-2.42-17.28-2.41-13.97-19.16
			c0.44-2.24,0.34-4.58,0.49-6.88c3.57-4.74,2.22-10.83,4.41-15.95C160.45,414.97,163.62,414.98,166.8,414.99z"/>
		<path style="fill:#4CDA7F;" d="M157.27,414.96c-2.19,5.12-0.85,11.21-4.41,15.95c-12.39-1.74-23.67-7.09-35.42-10.9
			c-2.35-0.76-3.68-2.51-3.91-5.01C128.1,414.99,142.69,414.98,157.27,414.96z"/>
		<path style="fill:#010201;" d="M202.18,188.95c-0.59,8.88-5.81,14.02-13.72,16.67c-2.85,0.96-6.08,0.93-9.16,1.06
			c-21.82,0.97-21.82,0.95-21.82-21.02c0-19.14,0-19.08,19.38-18.88c5.46,0.05,10.85,0.38,15.79,2.81
			C200.7,173.56,202.73,180.62,202.18,188.95z"/>
	</g>
</g>
</svg>
