<?xml version="1.0" encoding="utf-8"?>
<!-- Generator: Adobe Illustrator 26.3.1, SVG Export Plug-In . SVG Version: 6.00 Build 0)  -->
<svg version="1.1" id="Calque_1" xmlns="http://www.w3.org/2000/svg" xmlns:xlink="http://www.w3.org/1999/xlink" x="0px" y="0px"
	 viewBox="0 0 2500 2500" style="enable-background:new 0 0 2500 2500;" xml:space="preserve">
<style type="text/css">
	.st0{fill:url(#SVGID_1_);}
	.st1{fill:url(#SVGID_00000180325225251725675020000012522778702417705892_);}
	.st2{fill:url(#SVGID_00000049930796201254821020000014666002412510561187_);}
	.st3{fill:url(#SVGID_00000003088803914192247930000007757641285502273676_);}
	.st4{fill:url(#SVGID_00000116933415952228975270000018418311991180414647_);}
	.st5{fill:#FFFFFF;}
</style>
<g id="XMLID_00000015350367880136185650000014276833358518312888_">
	
		<linearGradient id="SVGID_1_" gradientUnits="userSpaceOnUse" x1="991.9348" y1="1507.5621" x2="1001.7006" y2="1507.5621" gradientTransform="matrix(152.36 0 0 -160.0328 -150238.4219 242224.125)">
		<stop  offset="0" style="stop-color:#21D789"/>
		<stop  offset="1" style="stop-color:#07C3F2"/>
	</linearGradient>
	<polygon class="st0" points="1754.1,394.5 2484.2,1000 2218.5,1534.9 1781.5,1414.4 1398.6,1414.4 	"/>
	
		<linearGradient id="SVGID_00000163775997703265655030000004864669999546937504_" gradientUnits="userSpaceOnUse" x1="988.6547" y1="1507.1973" x2="998.4204" y2="1507.1973" gradientTransform="matrix(313.7 -231.58 -189.0633 -384.245 -26062.1113 810195.625)">
		<stop  offset="0" style="stop-color:#FCF84A"/>
		<stop  offset="1.000000e-02" style="stop-color:#FCF84A"/>
		<stop  offset="0.11" style="stop-color:#A7EB62"/>
		<stop  offset="0.21" style="stop-color:#5FE077"/>
		<stop  offset="0.27" style="stop-color:#32DA84"/>
		<stop  offset="0.31" style="stop-color:#21D789"/>
		<stop  offset="0.58" style="stop-color:#21D789"/>
		<stop  offset="0.6" style="stop-color:#21D789"/>
		<stop  offset="0.69" style="stop-color:#20D68C"/>
		<stop  offset="0.76" style="stop-color:#1ED497"/>
		<stop  offset="0.83" style="stop-color:#19D1A9"/>
		<stop  offset="0.9" style="stop-color:#13CCC2"/>
		<stop  offset="0.97" style="stop-color:#0BC6E1"/>
		<stop  offset="1" style="stop-color:#07C3F2"/>
	</linearGradient>
	<polygon style="fill:url(#SVGID_00000163775997703265655030000004864669999546937504_);" points="1015.8,789 875.3,1534.9 
		863,1793.2 504.1,1945.2 0,2000 152.1,382.9 1070.5,0 1632.9,371.2 	"/>
	
		<linearGradient id="SVGID_00000150812273948164510280000000609672357999732900_" gradientUnits="userSpaceOnUse" x1="984.1745" y1="1508.9099" x2="993.9402" y2="1508.9099" gradientTransform="matrix(52.32 -164.18 -104.2056 -82.4322 106078.0234 288737.4062)">
		<stop  offset="0" style="stop-color:#21D789"/>
		<stop  offset="0.16" style="stop-color:#24D788"/>
		<stop  offset="0.3" style="stop-color:#2FD886"/>
		<stop  offset="0.44" style="stop-color:#41DA82"/>
		<stop  offset="0.56" style="stop-color:#5ADC7D"/>
		<stop  offset="0.69" style="stop-color:#7AE077"/>
		<stop  offset="0.81" style="stop-color:#A1E36E"/>
		<stop  offset="0.93" style="stop-color:#CFE865"/>
		<stop  offset="1" style="stop-color:#F1EB5E"/>
	</linearGradient>
	<polygon style="fill:url(#SVGID_00000150812273948164510280000000609672357999732900_);" points="1015.8,789 1085.6,2230.1 
		855.5,2500 0,2000 703.4,949.3 	"/>
	
		<linearGradient id="SVGID_00000096772845785825238130000011629050812106297990_" gradientUnits="userSpaceOnUse" x1="992.9376" y1="1506.4545" x2="1002.7031" y2="1506.4545" gradientTransform="matrix(113.86 -153.08 -194.1929 -89.7545 180496.9219 288589.0938)">
		<stop  offset="0" style="stop-color:#21D789"/>
		<stop  offset="6.000000e-02" style="stop-color:#24D788"/>
		<stop  offset="0.11" style="stop-color:#2FD886"/>
		<stop  offset="0.16" style="stop-color:#41DA82"/>
		<stop  offset="0.21" style="stop-color:#5ADD7D"/>
		<stop  offset="0.25" style="stop-color:#79E077"/>
		<stop  offset="0.26" style="stop-color:#7CE076"/>
		<stop  offset="0.5" style="stop-color:#8CE173"/>
		<stop  offset="0.92" style="stop-color:#B2E56B"/>
		<stop  offset="1" style="stop-color:#B2E56B"/>
	</linearGradient>
	<polygon style="fill:url(#SVGID_00000096772845785825238130000011629050812106297990_);" points="1961,683.6 1093.8,683.6 
		1859.6,0 	"/>
	
		<linearGradient id="SVGID_00000018935974491982780320000005754812501432770702_" gradientUnits="userSpaceOnUse" x1="988.2505" y1="1507.1611" x2="998.0162" y2="1507.1611" gradientTransform="matrix(-229.42 -2.14 -2.0328 241.5213 232498.5938 -360327.0625)">
		<stop  offset="0" style="stop-color:#FCF84A"/>
		<stop  offset="0.39" style="stop-color:#FCF84A"/>
		<stop  offset="0.54" style="stop-color:#ECF451"/>
		<stop  offset="0.83" style="stop-color:#C2E964"/>
		<stop  offset="0.92" style="stop-color:#B2E56B"/>
		<stop  offset="1" style="stop-color:#B2E56B"/>
	</linearGradient>
	<polygon style="fill:url(#SVGID_00000018935974491982780320000005754812501432770702_);" points="2500,2234.2 1738.4,2495.9 
		722.6,2211 1015.8,789 1132.9,683.6 1754.1,625.3 1695.2,1245.9 2187.7,1054.8 	"/>
	<rect id="XMLID_00000115514125119203355610000003727081156928109237_" x="468.5" y="468.5" width="1562.3" height="1562.3"/>
	<path id="XMLID_00000005232463954650435190000015428820753467193764_" class="st5" d="M617.1,1738.4h585.6v97.9H617.1V1738.4z
		 M613,671.9h265.8c156.2,0,245.9,89.7,245.9,222.6c0,148.6-117.1,226.7-261.6,226.7H753.4v195.2H613V671.9z M980.1,902.1
		c0-62.3-43.2-97.9-117.1-97.9H753.4v199.3h113C943.8,1004.1,980.1,956.8,980.1,902.1z M1179.5,1000c-2.1-89.7,32.9-176,95.9-239.7
		c63.7-63.7,150-97.9,239.7-95.9c121.2,0,195.2,39,254.1,101.4l-89.7,105.5c-50.7-46.6-101.4-74-164.4-74
		c-109.6,0-187.7,89.7-187.7,203.4c0,109.6,78.1,203.4,187.7,203.4c74,0,121.2-31.5,171.9-74l89.7,89.7
		c-66.4,70.5-140.4,117.1-265.8,117.1c-89,0-174-35.6-236.3-98.6C1213,1174,1178.8,1089,1179.5,1000z"/>
</g>
</svg>
