<?xml version="1.0" encoding="utf-8"?>
<!-- Generator: Adobe Illustrator 26.1.0, SVG Export Plug-In . SVG Version: 6.00 Build 0)  -->
<svg version="1.0" id="Calque_1" xmlns="http://www.w3.org/2000/svg" xmlns:xlink="http://www.w3.org/1999/xlink" x="0px" y="0px"
	 viewBox="0 0 894.84 340.06" style="enable-background:new 0 0 894.84 340.06;" xml:space="preserve">
<path style="fill:#2A017C;" d="M199.77,238.69c1.73,5.01,6.19,7.12,7.87,11.19c-26.64,0-53.41,0-80.47,0
	c-3.89-2.59-5.44-7.4-8.07-11.29c-6.83-10.1-13.2-20.52-19.8-30.79c-4.21-6.55-8.44-13.12-12.52-19.76
	c-5.74-9.35-11.91-18.43-18.1-27.5c-1.19-1.75-1.22-4.27-3.65-5.41c0,31.55,0,62.99,0,94.41c-4.27,0.77-51.52,1.02-65.03,0.36
	C0,166.79,0,83.68,0,0.41c1.22-0.69,2.73-0.29,4.17-0.29c35-0.03,69.99-0.06,104.99,0.03c4.43,0.01,8.8,1.09,13.19,1.84
	c4.19,0.72,8.22,1.81,12.24,3.09c7.33,2.34,14.07,5.58,20.26,10.33c5.65,4.33,10.69,9.25,14.55,15c4.53,6.77,8.32,14.12,10.44,22.13
	c1.37,5.18,2.58,10.35,3.19,15.73c0.34,3.03,0.92,6.06,0.76,9.1c-0.15,2.87,0.47,5.7-0.8,8.65c-1.03,2.38,0.67,5.51-1.15,8.02
	c0.09,4.35-1.73,8.27-3.08,12.23c-2.54,7.45-5.89,14.55-11.73,20.14c-1.32,1.27-2.6,2.59-3.89,3.88
	c-6.16,6.16-11.45,8.96-20.62,12.96c-4.16,1.82-8.59,2.54-12.94,4.43c15.57,20.23,31.06,40.37,46.67,60.65
	c1.62-2.48-0.18-4.2-0.67-5.8c-1.62-5.24-2.98-10.47-3.93-15.9c-0.62-3.58-0.77-7.08-0.73-10.62c0.02-1.44-1.3-2.19-1.11-3.59
	c0.16-1.15,0.19-2.36,0-3.49c-0.48-2.82,1.36-5.24,1.13-8.1c-0.2-2.49-0.87-5.24,0.9-7.58c-0.64-4.11,1.02-7.93,2.15-11.63
	c2.16-7.05,4.11-14.17,8.19-20.62c3.79-6.01,7.69-11.83,12.92-16.59c6.2-5.65,12.97-10.66,20.57-14.26
	c6.41-3.04,13.21-5.34,20.11-6.88c2.86-0.64,5.89-1.95,9.04-1.19c4.27-1.59,8.71-0.92,13.08-0.97c1.79-0.02,3.15-1.31,5.09-1.11
	c5.17,0.54,10.32,1.63,15.58,1.08c6.75,1.91,13.84,2.27,20.45,4.94c7.66,3.1,15.18,6.18,21.83,11.36c4.86,3.79,9.23,8.03,13.16,12.6
	c4.55,5.3,8.35,11.31,11.08,17.85c1.82,4.37,3.55,8.79,5.28,13.08c2.2-0.65,0.76-3.37,2.48-4.37c2.61-7.82,7.49-15.98,11.93-22.09
	c2.47-3.4,6.09-5.8,7.9-9.69c4.11-2.07,6.54-6.15,10.44-8.56c4.77-2.95,9.29-6.27,14.52-8.42c4.58-1.88,9.23-3.49,14.04-4.75
	c9.3-2.44,18.78-2.38,28.17-1.77c5.81,0.38,11.55,2.26,17.13,4.36c7.45,2.81,14.33,6.43,19.93,12.14c0.99,1.01,2.19,1.29,3.24,1.98
	c0.97,0.64,0.08,2.62,2.44,2.26c0.56-2.34,0.18-4.91,0.25-7.43c0.07-2.66,0.02-5.33,0.02-7.99c4.06-0.66,48.05-0.87,59-0.26
	c0,1.27,0,2.57,0,3.86c0,56.83-0.03,113.66,0.07,170.48c0.01,3.28-1.34,6.26-1.21,9.59c0.12,2.89-1.22,5.81-1.69,8.69
	c-0.51,3.15-1.62,6.06-2.62,8.96c-2.63,7.63-6.62,14.49-12.19,20.49c-1.96,2.11-3.55,4.66-5.77,6.54
	c-8.41,7.14-17.14,13.78-27.88,17.14c-5.2,3.38-11.35,4.1-17.12,5.67c-2.96,0.81-6.37,0.94-9.44,1.53
	c-5.58,1.07-11.09,0.63-16.62,0.77c-5.66,0.14-11.37,0.41-16.99-0.08c-5.32-0.47-10.61-1.38-15.88-2.53
	c-4.91-1.07-9.56-2.58-14.25-4.29c-7.82-2.85-13.74-5.78-19.88-9.98c-6.1-4.18-11.5-9.13-16.41-14.59
	c-2.72-3.03-4.94-6.56-7.09-10.04c-2.11-3.41-3.62-7.14-5.26-10.8c-1.62-3.6-2.21-7.42-3.74-10.96c-0.17-0.39,0.05-0.94,0.12-1.8
	c2.88,0.53,5.79-0.77,8.55,1.04c0.58,0.38,1.63,0.06,2.46,0.06c2.33,0,4.68-0.15,7,0.03c7.91,0.61,15.67-1.27,23.59-1.15
	c8.69,0.13,17.26,2.26,25.8,0.85c2.07,3.26,3.66,6.17,6.12,8.59c2.89,2.85,7.49,5.77,11.18,6.73c6.5,1.7,13.13,1.3,19.58,0.73
	c5.81-0.51,11.25-3.2,16.13-6.78c6.24-4.57,9.44-11.01,11.94-17.99c0.1-0.29,0.52-0.57,0.48-0.78c-0.48-2.18,0.94-4.06,0.98-6.09
	c0.13-7.3,0.05-14.6,0.05-21.73c-1.16-0.79-1.7-0.18-2.32,0.39c-5.98,5.48-12.36,10.41-19.79,13.77
	c-4.98,2.26-10.23,3.52-15.64,4.55c-7.55,1.45-15.08,0.57-22.61,0.8c-2.01,0.06-4.07,0.67-6.18-0.77c-1.58-1.08-4.25,0.84-5.99-1.16
	c-15.02-3.17-11.83-2.98-23.47-8.5c-3.45-1.64-6.23-4.27-9.31-6.43c-2.22-1.56-4.49-3.39-6.21-5.35c-4.08-4.65-8.6-9.03-11.51-14.66
	c-1.28-2.47-2.76-4.83-4.04-7.32c-1.37-2.67-2.66-5.27-3-8.28c-0.02-0.18-0.51-0.3-1.16-0.66c-0.92,2.19-2,4.31-2.72,6.55
	c-1.1,3.42-2.86,6.51-4.56,9.61c-3.94,7.19-9.4,13.24-15.57,18.51c-6.55,5.6-14.03,9.83-22.28,12.53c-3.96,1.3-7.95,2.52-11.92,3.8
	c-1.8,0.58-3.95-0.49-5.5,1.2c-3.63-0.71-6.99,1.11-10.59,1.04c-7-0.14-14.01-0.26-20.99,0.04c-4.29,0.19-8.47-0.68-12.55-1.31
	c-5.59-0.87-11.1-2.69-16.57-4.47c-5.37-1.75-10.26-4.29-15.25-6.66C208.18,243.87,204.6,241.3,199.77,238.69
	c-0.67,0.01-0.38,0.4-0.34,0.37c0.44-0.27,1.53,0.6,1.33-0.42C200.59,237.84,199.61,237.87,199.77,238.69z M445.18,208.17
	c12.17,0.25,21.25-3.68,28.94-10.89c7.94-7.44,11.36-17.21,11.49-27.61c0.11-9-2.67-17.62-9.21-24.58
	c-7.96-8.47-17.51-13.95-29.19-13.88c-20.53,0.14-37.54,16.69-38.44,35.63c-0.56,11.8,2.92,22.17,10.98,30.38
	C426.89,204.49,435.91,208.84,445.18,208.17z M229.82,179.49c0.23,2.92,0.38,5.88,0.81,8.93c0.74,5.29,2.65,9.9,5.22,14.38
	c2.39,4.16,5.75,7.42,9.93,9.67c5.29,2.85,11.24,3.73,17.07,4.53c4.78,0.66,9.59-0.62,14.12-2.01c7.54-2.31,13.85-6.55,17.5-14.12
	c18.47,0,36.89,0,55.36,0c-0.09-1.01,0.07-1.75-0.22-2.59c-0.72-2.04-1.71-4.19-1.64-6.26c0.12-3.62-1.63-6.95-1.19-10.59
	c0.16-1.34-0.85-2.37-2.45-2.34c-0.83,0.01-1.67,0-2.5,0c-36.13,0-72.27,0-108.4,0.01C232.29,179.11,231.12,178.8,229.82,179.49z
	 M64.95,111.09c6.83,0,13.33,0.22,19.81-0.09c3.75-0.18,7.54-0.83,11.16-1.94c4.84-1.49,9.2-4.08,12.84-7.5
	c4.99-4.69,7.21-11.01,7.99-17.61c0.77-6.52-0.22-7.71-2.68-15.31c-1.93-5.98-8.59-11.69-13.46-14.2c-1.62-0.83-3.69-0.76-5.35-1.53
	c-1.86-0.87-3.74-1.9-5.74-1.72c-2.06,0.19-3.68-1.08-5.59-1.08c-6.29-0.02-12.58-0.01-18.97-0.01
	C64.95,70.48,64.95,90.59,64.95,111.09z M231.72,144.92c22.19,0,44.08,0,66.18,0c-0.09-1.63,0.24-3.27-0.33-4.49
	c-2.22-4.74-4.78-9.38-8.81-12.8c-3.19-2.71-6.83-4.97-10.78-6.48c-2.6-1-5.24-2.09-8.15-2.06c-3.66,0.03-7.33,0.01-10.99,0.01
	c-2.89,0-5.58,0.96-8.14,2.06c-4.89,2.09-9.16,5.18-12.66,9.25C234.48,134.54,232.85,139.49,231.72,144.92z"/>
<path style="fill:#FC5902;" d="M825.75,170.69c3,1.86,4.19,5.1,6.51,7.41c2.17,2.16,4.87,3.92,6.08,6.96
	c0.17,0.43,0.66,0.74,1.04,1.07c4.25,3.66,7.45,8.3,11.2,12.42c4.81,5.28,9.59,10.62,14.21,16.07c5.17,6.09,10.48,12.04,15.87,17.94
	c4.71,5.15,8.86,10.81,13.87,15.71c0.44,0.43,0.25,0.9,0.3,1.6c-23.8,0-47.57,0-71.87,0c-3.24-5.95-9.91-9.58-13.66-15.79
	c-0.17-0.28-0.45-0.49-0.7-0.71c-7.62-6.88-13.56-15.36-21.3-22.19c-3.02,2.79-5.5,6.07-7.76,9.6c-1.28,2-3.12,3.65-4.61,5.57
	c-3.52,4.55-7.07,9.08-10.65,13.57c-2.72,3.41-4.94,7.4-9.39,10.06c-70.09,0-140.87,0-211.85,0c0-82.77,0-165.55,0-248.55
	c3.88-0.51,7.89-1.4,12.12-1.39c40.16,0.11,80.33,0.06,120.49,0.06c1.64,0,3.28,0,5.05,0c0,18.67,0,37.12,0,55.92
	c-26.5,0-53.07,0-79.75,0c0,11.8,0,23.25,0,34.89c26.46,0,52.91,0,79.33,0c0.78,4.24,1.01,40.74,0.36,54.19
	c-13.27,0-26.56,0-39.85,0c-13.16,0-26.32,0-39.72,0c0,16.27,0,32.5,0,48.92c26.46,0,52.91,0,79.71,0c0,18.41,0,36.65,0,55.28
	c4.6-3.23,6.89-7.89,10.57-11.28c4.94-4.55,9.05-9.91,13.62-14.83c2.41-2.6,5.22-5.02,7.12-8c2.92-4.57,7.72-7.42,10.4-12.16
	c0.79-1.4,2.29-2.4,3.48-3.57c4.16-4.11,7.85-8.61,11.33-13.3c0.69-0.93,1.57-1.73,2.47-2.48c4.07-3.39,6.65-8.12,10.6-11.61
	c0.78-0.69,0.26-1.55,0.57-2.42c-4.58-3.79-7.92-8.71-11.91-13.05c-5.4-5.87-10.6-11.94-15.93-17.89c-5.1-5.7-10.1-11.5-15.21-17.2
	c-5.22-5.82-10.49-11.62-15.48-17.62c-3.46-4.16-8-7.46-10.41-12.49c0.9-0.6,1.92-0.3,2.87-0.3c21.67-0.02,43.33,0,65-0.03
	c3.72-0.01,6.71,1.17,9.44,3.87c4.33,4.29,8.01,9.13,12.18,13.56c2.78,2.95,5.8,5.81,8.17,9.08c3.12,4.31,7.18,7.62,10.53,11.42
	c5.11-3.86,8.59-9.15,12.79-13.76c3.68-4.04,7.16-8.33,10.6-12.6c3-3.73,6.46-6.96,9.6-10.44c10.01-2.13,20.09-0.85,30.1-1.06
	c10.16-0.21,20.33-0.05,30.5-0.05c3.63,0,7.25,0,10.68,0c0.73,1.27,0.03,1.76-0.5,2.39c-4.95,5.84-9.97,11.61-15.12,17.28
	c-4.91,5.41-9.61,11.02-14.51,16.45c-5.46,6.05-10.81,12.21-16.21,18.31c-2.93,3.3-6.38,6.22-8.84,9.81
	c-3.06,4.45-7.74,7.41-10.41,12.15C828.25,168.6,827.04,169.39,825.75,170.69z"/>
</svg>
