<?xml version="1.0" encoding="utf-8"?>
<!-- Generator: Adobe Illustrator 26.1.0, SVG Export Plug-In . SVG Version: 6.00 Build 0)  -->
<svg version="1.0" id="Calque_1" xmlns="http://www.w3.org/2000/svg" xmlns:xlink="http://www.w3.org/1999/xlink" x="0px" y="0px"
	 viewBox="0 0 512 512" style="enable-background:new 0 0 512 512;" xml:space="preserve">
<g>
	<g>
		<path style="fill:#FE832B;" d="M424.96,1.71c1.14,0,2.28,0,3.41,0c8.49,12.95,20.35,23.14,29.21,35.78
			c-0.56,0.08-1.17,0.05-1.67,0.26c-43.33,18.43-86.66,36.88-129.99,55.33c-2.7,1.15-5.12,2.57-5.08,6.04
			c-17.68,0.72-35.35,0.72-53.03-0.01C244,83.54,220.19,67.97,196.38,52.39c-4.51-5.56-10.03-6.01-16.58-4
			c-8.65,2.66-17.49,4.67-26.25,6.96c-3.36,0.66-6.72,1.32-10.08,1.98c7.35-18.54,14.71-37.08,22.06-55.62c0.57,0,1.14,0,1.71,0
			c0.37,0.42,0.65,1.01,1.11,1.22c36.35,16.62,72.74,33.15,109.04,49.88c3.62,1.67,6.56,0.62,9.72-0.52
			c25.59-9.24,51.22-18.36,76.73-27.8C384.24,16.95,405.15,10.79,424.96,1.71z"/>
		<path style="fill:#FE1F51;" d="M1.71,361.81c0-12.52,0-25.03,0-37.55c1.07-0.31,2.37-0.33,3.19-0.97
			c24.42-19.12,48.66-38.46,73.26-57.35c6.54-5.02,11.94-12.15,20.96-13.39c0.13,3.1,0.38,6.21,0.38,9.31
			c0.03,48.14,0.23,96.29-0.16,144.43c-0.07,8.07,2.4,10.36,10.03,9.71c6.16-0.53,12.42,0.14,18.64,0.28
			c0.06,3.26-2.18,5.19-4.37,6.92c-8.84,6.98-17.6,14.09-26.78,20.61c-7.97,5.67-14.39,13.52-23.83,17.12
			c-3.84-5.22-7.73-10.4-11.51-15.67C41.57,417.47,21.64,389.64,1.71,361.81z"/>
		<path style="fill:#903ACF;" d="M1.71,92.16c47.26-11.61,94.52-23.22,141.77-34.83c3.36-0.66,6.72-1.32,10.08-1.98
			c0.03,2.38-0.71,4.22-2.74,5.78c-11.3,8.68-22.73,17.23-33.63,26.4c-4.08,3.43-10.09,5.3-11.38,11.57c-2.46,0.64-5.6-0.1-6.7,3.3
			c-2.31-0.08-4.34,0.35-6.3,1.9c-21.03,16.58-41.97,33.29-63.3,49.48c-9.13,6.93-16.68,16.09-27.8,20.3
			C1.71,146.77,1.71,119.47,1.71,92.16z"/>
		<path style="fill:#FE6436;" d="M513.71,109.23c-5.56,11.47-5.18,24.33-8.5,36.32c-0.44,1.59-0.99,3.14-1.49,4.72
			c-16.65,3.01-30.97,12.06-46.51,17.96c-13.7,5.2-26.61,12.38-40.9,16.09c-0.69-22.18-0.75-44.36-0.01-66.54
			c3.82,0.4,7.09-1.12,10.54-2.57c23.9-10.1,47.89-20.02,71.84-30c5.85,4.35,8.72,11.59,15.03,15.5
			C513.71,103.54,513.71,106.38,513.71,109.23z"/>
		<path style="fill:#E5246D;" d="M99.11,252.56c-9.03,1.24-14.42,8.37-20.96,13.39c-24.6,18.88-48.84,38.23-73.26,57.35
			c-0.82,0.64-2.12,0.66-3.19,0.97c0-14.22,0-28.44,0-42.67c3.24-0.32,5.77-2.01,8.27-3.98c26.14-20.6,52.32-41.15,78.5-61.7
			c3.23-2.54,5.51-6.81,10.64-6C99.11,224.13,99.11,238.35,99.11,252.56z"/>
		<path style="fill:#FE6436;" d="M109.23,513.71c-4.44-6.83-8.88-13.66-13.32-20.49c1.27-0.54,2.73-0.84,3.78-1.67
			c26.6-20.86,53.25-41.64,79.61-62.79c4.4-3.53,11.02-5.38,11.86-12.45c14.22-0.68,28.43-0.76,42.65-0.01
			c0.08,3.26-2.16,5.2-4.35,6.92c-32.74,25.69-65.59,51.25-98.24,77.06c-3.94,3.12-9.73,5.05-10.06,11.5
			c-0.56,0.64-1.13,1.28-1.69,1.93C116.05,513.71,112.64,513.71,109.23,513.71z"/>
		<path style="fill:#CE2A87;" d="M99.11,209.91c-5.13-0.81-7.4,3.46-10.64,6c-26.18,20.55-52.36,41.1-78.5,61.7
			c-2.5,1.97-5.03,3.66-8.27,3.98c0-13.08,0-26.17,0-39.25c2.66-0.13,4.96-1.32,6.95-2.89c22.31-17.62,44.39-35.54,66.96-52.82
			c7.48-5.73,13.62-13.7,23.5-15.98C99.11,183.74,99.11,196.83,99.11,209.91z"/>
		<path style="fill:#B62FA2;" d="M99.11,170.66c-9.88,2.28-16.02,10.25-23.5,15.98c-22.57,17.28-44.65,35.2-66.96,52.82
			c-1.99,1.57-4.29,2.76-6.95,2.89c0-11.95,0-23.89,0-35.84c2.66-0.13,4.95-1.32,6.95-2.89c21.91-17.22,43.59-34.73,65.73-51.65
			c7.94-6.07,14.54-14.26,24.73-17.14C99.11,146.77,99.11,158.72,99.11,170.66z"/>
		<path style="fill:#A533B6;" d="M99.11,134.83c-10.19,2.88-16.79,11.07-24.73,17.14c-22.14,16.92-43.82,34.43-65.73,51.65
			c-1.99,1.57-4.29,2.76-6.95,2.89c0-10.81,0-21.62,0-32.43c11.12-4.21,18.67-13.37,27.8-20.3c21.33-16.2,42.27-32.9,63.3-49.48
			c1.96-1.55,3.99-1.97,6.3-1.9C99.11,113.22,99.11,124.02,99.11,134.83z"/>
		<path style="fill:#040202;" d="M416.32,382.59c-0.09-4.21-0.17-8.41-0.24-12.62c-0.07-4.21-0.12-8.42-0.16-12.63
			c-0.04-2.97-0.07-5.93-0.08-8.9c-0.1-13.88-0.07-27.77,0.07-41.65c0.09-8.39,0.21-16.79,0.39-25.18v-0.01
			c-0.68-8.54-0.7-17.08,0.01-25.62c-0.69-15.92-0.71-31.84-0.01-47.76c-0.68-7.97-0.72-15.93,0.01-23.9
			c-0.36-11.3-0.54-22.6-0.54-33.91c0-5.23,0.04-10.47,0.12-15.71c0-0.53,0.01-1.05,0.03-1.58c0.08-5.11,0.21-10.23,0.38-15.34
			v-0.01c-0.03-0.34-0.05-0.67-0.08-1c-0.03-0.38-0.06-0.75-0.09-1.11l-0.03-0.33c-0.01-0.2-0.03-0.39-0.05-0.58
			c0-0.09-0.01-0.19-0.02-0.28c-0.06-0.67-0.11-1.3-0.17-1.91c-0.16-1.74-0.33-3.24-0.55-4.55c-0.03-0.22-0.07-0.43-0.11-0.64
			c-0.04-0.2-0.08-0.4-0.12-0.6c-0.23-1.07-0.5-1.98-0.85-2.76c-0.1-0.21-0.21-0.42-0.32-0.62c0.01-0.01,0-0.01,0-0.01
			c-0.09-0.15-0.18-0.3-0.27-0.44c-0.09-0.14-0.19-0.27-0.28-0.4c0,0-0.01-0.01-0.02-0.02c-2.35-2.93-6.98-2.93-17.14-2.97
			c-25.12-0.09-50.23-0.28-75.35-0.42c-1.98,0.07-3.96,0.15-5.94,0.21c-0.16,0-0.31,0.01-0.47,0.01c-0.13,0.01-0.26,0.01-0.39,0.01
			c-4.15,0.13-8.3,0.21-12.45,0.26c-0.68,0.01-1.35,0.02-2.03,0.02c-1.64,0.01-3.27,0.02-4.91,0.02h-0.4
			c-2.16,0-4.33-0.01-6.49-0.03h-0.1c-2.18-0.02-4.37-0.06-6.55-0.11h-0.04c-4.42-0.08-8.84-0.22-13.26-0.4
			c-11.22,0.67-22.44,0.71-33.66-0.03c-14.91,0.01-29.82,0.02-44.73,0.03h-49.47c-11.38,0-22.77-0.01-34.15-0.01
			c-0.15,0.04-0.31,0.07-0.47,0.1c-0.16,0.03-0.32,0.06-0.48,0.08c-0.32,0.05-0.65,0.09-0.98,0.12c-0.16,0.02-0.33,0.04-0.49,0.06
			c-0.17,0.02-0.33,0.04-0.49,0.06c-0.32,0.05-0.64,0.11-0.95,0.19c-0.11,0.03-0.23,0.06-0.34,0.1s-0.23,0.08-0.33,0.12
			c-0.15,0.06-0.29,0.13-0.42,0.2c-0.07,0.04-0.14,0.08-0.2,0.12c-0.05,0.03-0.1,0.06-0.15,0.1c-0.05,0.04-0.09,0.08-0.14,0.11
			c-0.09,0.07-0.19,0.15-0.27,0.24c-0.1,0.1-0.2,0.21-0.29,0.33c-0.1,0.12-0.19,0.25-0.27,0.39c-0.07,0.12-0.14,0.24-0.2,0.38
			c-0.01,0.02-0.02,0.05-0.03,0.07c-0.07,0.16-0.14,0.34-0.2,0.52v32.43c0,11.94,0,23.89,0.02,35.85v81.91
			c0.13,3.1,0.38,6.21,0.38,9.31c0.03,48.14,0.23,96.29-0.16,144.43c-0.01,1.61,0.08,2.99,0.29,4.16c0.01,0.07,0.02,0.12,0.03,0.18
			c0.09,0.45,0.19,0.87,0.32,1.25c0.05,0.16,0.1,0.31,0.16,0.46c0.04,0.1,0.08,0.2,0.13,0.3c0.05,0.12,0.11,0.24,0.17,0.36
			c0.12,0.23,0.24,0.44,0.39,0.64c1.45,2.14,4.13,2.74,8.54,2.36c6.16-0.54,12.41,0.14,18.63,0.28h0.01
			c5.13,0.01,10.25,0.01,15.38,0.01h0.01c11.35-0.68,22.72-0.72,34.07-0.01c0.01,0,0.01,0,0.02,0c4.55,0,9.1,0.01,13.65,0.01h0.02
			c14.22-0.68,28.42-0.76,42.64-0.01h0.01c9.66-0.67,19.34-0.74,29,0.01h0.02c10.24-0.71,20.47-0.75,30.71-0.01h0.01
			c27.47-0.03,54.93-0.07,82.4-0.1c11.25-0.13,22.51-0.5,33.76-0.3c4.89,0.08,6.27-1.61,6.18-6.33
			C415.72,400.6,416.15,391.6,416.32,382.59L416.32,382.59z M135.75,140.4c20.99,0.88,42.06-1,63.03,1.03
			c20.68,2,34.97,14.14,38.28,31.81c4.15,22.18-3.48,39.4-22.73,49.27c-4.81,2.46-3.78,3.98-1.5,7.24
			c9.37,13.42,18.55,26.98,27.62,40.21c-23.99,7.54-39.81-1.28-49.13-23.05c-0.55-1.29-1.52-2.39-2.31-3.57
			c-7.81-11.61-15.34-14.49-29.03-11.94c-4.18,0.78-3,3.42-3.03,5.64c-0.12,9.38-0.24,18.76,0.03,28.13
			c0.13,4.41-0.59,6.37-5.82,6.49c-23.02,0.51-23.02,0.71-23.02-22.46c0-33.53,0.15-67.06-0.14-100.59
			C127.95,142.57,128.95,140.11,135.75,140.4z M188.61,376.09c-17.33,0-34.67-0.23-51.99,0.13c-5.51,0.11-7.76-1.3-6.97-6.96
			c0.39-2.79,0.26-5.69,0.02-8.51c-0.29-3.46,1.23-4.25,4.43-4.24c36.37,0.08,72.74,0.09,109.11-0.01c3.51-0.01,5.33,0.73,4.94,4.66
			c-0.29,2.81-0.37,5.72,0.01,8.51c0.75,5.48-1.62,6.61-6.7,6.53C223.85,375.91,206.23,376.09,188.61,376.09z M386.32,255.53
			c0,16.01,0,16.01-15.67,16.01c-13.65,0-13.65,0-13.65-13.89v-68.23c-0.47-0.26-0.94-0.52-1.41-0.78
			c-11.69,17.91-23.39,35.83-35.39,54.22c-12.17-18.46-23.83-36.16-36.9-55.98v29.92c0,16.21-0.17,32.42,0.1,48.63
			c0.08,4.68-1.05,6.16-6,6.23c-22.8,0.32-22.8,0.49-22.8-21.95c0-33.85,0.13-67.7-0.12-101.54c-0.04-5.77,1.5-7.05,7.39-7.91
			c18.03-2.64,29.65,3.28,37.17,20.45c5.3,12.09,13.72,22.82,21.56,35.46c10.22-16.49,20.17-31.64,29.05-47.34
			c3.8-6.72,8.18-9.22,15.53-8.34c4.48,0.54,9.13,0.47,13.63,0.01c5.95-0.61,7.69,1.51,7.64,7.52
			C386.18,183.86,386.32,219.69,386.32,255.53z"/>
		<path style="fill:#FFFFFF;" d="M241.46,376.2c-17.61-0.29-35.23-0.11-52.85-0.11c-17.33,0-34.67-0.23-51.99,0.13
			c-5.51,0.11-7.76-1.3-6.97-6.96c0.39-2.79,0.26-5.69,0.02-8.51c-0.29-3.46,1.23-4.25,4.43-4.24c36.37,0.08,72.74,0.09,109.11-0.01
			c3.51-0.01,5.33,0.73,4.94,4.66c-0.29,2.81-0.37,5.72,0.01,8.51C248.91,375.15,246.54,376.28,241.46,376.2z"/>
		<path style="fill:#FFFFFF;" d="M386.32,255.53c0,16.01,0,16.01-15.67,16.01c-13.65,0-13.65,0-13.65-13.89v-68.23
			c-0.47-0.26-0.94-0.52-1.41-0.78c-11.69,17.91-23.39,35.83-35.39,54.22c-12.17-18.46-23.83-36.16-36.9-55.98v29.92
			c0,16.21-0.17,32.42,0.1,48.63c0.08,4.68-1.05,6.16-6,6.23c-22.8,0.32-22.8,0.49-22.8-21.95c0-33.85,0.13-67.7-0.12-101.54
			c-0.04-5.77,1.5-7.05,7.39-7.91c18.03-2.64,29.65,3.28,37.17,20.45c5.3,12.09,13.72,22.82,21.56,35.46
			c10.22-16.49,20.17-31.64,29.05-47.34c3.8-6.72,8.18-9.22,15.53-8.34c4.48,0.54,9.13,0.47,13.63,0.01
			c5.95-0.61,7.69,1.51,7.64,7.52C386.18,183.86,386.32,219.69,386.32,255.53z"/>
		<path style="fill:#FFFFFF;" d="M212.83,229.75c-2.28-3.26-3.31-4.78,1.5-7.24c19.25-9.87,26.88-27.09,22.73-49.27
			c-3.31-17.67-17.6-29.81-38.28-31.81c-20.97-2.03-42.04-0.15-63.03-1.03c-6.8-0.29-7.8,2.17-7.75,8.21
			c0.29,33.53,0.14,67.06,0.14,100.59c0,23.17,0,22.97,23.02,22.46c5.23-0.12,5.95-2.08,5.82-6.49c-0.27-9.37-0.15-18.75-0.03-28.13
			c0.03-2.22-1.15-4.86,3.03-5.64c13.69-2.55,21.22,0.33,29.03,11.94c0.79,1.18,1.76,2.28,2.31,3.57
			c9.32,21.77,25.14,30.59,49.13,23.05C231.38,256.73,222.2,243.17,212.83,229.75z M193.95,203.64c-10.66,1.9-21.47,0.43-32.21,0.82
			c-2.69,0.1-3.35-1.45-3.34-3.74c0.02-9.91,0.08-19.83-0.05-29.74c-0.04-2.96,1.01-3.99,3.93-3.9c5.09,0.17,10.19,0.05,15.29,0.05
			v0.17c4.81,0,9.65-0.32,14.43,0.07c10.92,0.89,17.05,7.05,17.51,17.07C209.95,193.93,203.76,201.88,193.95,203.64z"/>
		<path style="fill:#FE862A;" d="M293.55,416.31c27.47-0.03,54.94-0.07,82.4-0.1c8.69,16.88,17.2,33.86,26.17,50.58
			c3.18,5.94,3.6,8.44-4.5,9.49c-62.66,8.09-125.26,16.63-187.89,24.98c-5.61,0.75-11.25,1.2-16.88,1.78
			c-0.32-3.17,1.22-5.36,3.61-7.23c25.58-19.99,51.32-39.78,76.58-60.16C280.31,429.78,289.96,426.16,293.55,416.31z"/>
		<path style="fill:#FE1F51;" d="M416.32,382.59c-0.73-33.66-0.71-67.32-0.02-100.98c9.38-3.82,18.64-7.97,28.16-11.38
			c12.93-4.62,24.63-12.58,38.64-14.22c-4.82,25.87-9.62,51.74-14.49,77.6c-2.73,14.47-5.73,28.88-8.31,43.38
			c-0.89,5-2.83,7.06-8.28,6.71C440.15,382.94,428.22,382.91,416.32,382.59z"/>
		<path style="fill:#FE4542;" d="M416.31,255.98c-0.69-15.92-0.71-31.84-0.01-47.76c18.44-5.51,35.37-14.76,53.33-21.43
			c9.72-3.61,18.5-9.74,29.13-10.89c-2.66,17.79-5.95,35.45-10.31,52.9c-11.66,2.46-21.85,8.72-32.91,12.69
			C442.42,246.19,430.72,254.77,416.31,255.98z"/>
		<path style="fill:#FE832B;" d="M293.55,416.31c-3.58,9.85-13.24,13.48-20.5,19.34c-25.26,20.38-51,40.17-76.58,60.16
			c-2.39,1.87-3.93,4.06-3.61,7.23c-13.08,1.65-26.16,3.3-39.25,4.95c0.5-3.79,3.52-5.85,6.08-7.86
			c27.9-21.96,56.11-43.52,83.74-65.81c6.8-5.48,15.51-9.26,19.4-18C273.07,415.61,283.31,415.57,293.55,416.31z"/>
		<path style="fill:#FE7A2D;" d="M262.83,416.31c-3.88,8.74-12.6,12.52-19.4,18c-27.63,22.29-55.85,43.85-83.74,65.81
			c-2.56,2.02-5.58,4.07-6.08,7.86c-10.82,1.27-21.63,2.53-32.45,3.8c0.33-6.44,6.12-8.38,10.06-11.5
			c32.65-25.81,65.5-51.37,98.24-77.06c2.19-1.72,4.43-3.66,4.35-6.92C243.48,415.63,253.16,415.56,262.83,416.31z"/>
		<path style="fill:#FE513E;" d="M498.77,175.89c-10.63,1.16-19.42,7.28-29.13,10.89c-17.96,6.68-34.9,15.92-53.33,21.43
			c-0.68-7.97-0.72-15.94,0.01-23.91c14.29-3.71,27.21-10.89,40.9-16.09c15.54-5.9,29.86-14.94,46.51-17.96
			C502.96,158.98,501.26,167.51,498.77,175.89z"/>
		<path style="fill:#FE2D4B;" d="M416.31,255.98c14.42-1.2,26.12-9.79,39.24-14.5c11.06-3.97,21.25-10.23,32.91-12.69
			c-2.14,9-1.96,18.45-5.36,27.21c-14.01,1.64-25.71,9.6-38.64,14.22c-9.53,3.41-18.79,7.56-28.16,11.38
			C415.62,273.06,415.6,264.52,416.31,255.98z"/>
		<path style="fill:#FE7A2D;" d="M416.3,117.77c-1.44-18.22-1.44-18.17-20.1-18.23c-25.12-0.09-50.23-0.28-75.35-0.42
			c-0.04-3.47,2.37-4.88,5.08-6.04c43.33-18.45,86.65-36.9,129.99-55.33c0.5-0.21,1.11-0.18,1.67-0.26
			c14.26,15.42,28,31.29,41.09,47.71c-23.96,9.98-47.94,19.89-71.84,30C423.39,116.65,420.12,118.17,416.3,117.77z"/>
		<path style="fill:#A533B6;" d="M139.96,99.11c-11.38,0-22.77-0.01-34.15-0.01c1.3-6.27,7.31-8.14,11.38-11.57
			c10.9-9.18,22.33-17.72,33.63-26.4c2.03-1.56,2.77-3.4,2.74-5.78c8.76-2.29,17.6-4.31,26.25-6.96c6.55-2.01,12.07-1.56,16.58,4
			c-0.07,0.76-0.15,1.53-0.22,2.29c-3.1-0.45-5.17,1.26-7.46,3.09c-13.12,10.47-26.37,20.78-39.6,31.11
			C145.44,91.75,140.52,93.47,139.96,99.11z"/>
		<path style="fill:#903ACF;" d="M196.17,54.68c0.07-0.76,0.15-1.53,0.22-2.29c23.81,15.57,47.62,31.14,71.43,46.72
			c-11.22,0.67-22.44,0.71-33.66-0.03c-6.4-7.41-12.8-14.82-19.2-22.22C208.7,69.46,202.44,62.07,196.17,54.68z"/>
		<path style="fill:#FE2D4B;" d="M128.01,416.3c5.13,0,10.26,0,15.39,0.01c-0.44,4.84-4.34,7.11-7.54,9.72
			c-7.18,5.87-14.41,11.71-21.92,17.16c-11.79,8.56-22.24,18.89-35.01,26.14c-1.97-2.79-3.94-5.58-5.91-8.37
			c9.44-3.6,15.86-11.46,23.83-17.12c9.17-6.52,17.93-13.63,26.78-20.61C125.82,421.49,128.07,419.56,128.01,416.3z"/>
		<path style="fill:#FE4542;" d="M78.94,469.32c12.76-7.24,23.22-17.58,35.01-26.14c7.5-5.45,14.73-11.29,21.92-17.16
			c3.2-2.62,7.1-4.89,7.54-9.72c11.37-0.68,22.73-0.71,34.09-0.01c-0.23,4.25-3.51,6.18-6.38,8.44
			c-15.04,11.81-29.9,23.86-45.15,35.39c-11.62,8.78-22.26,18.88-34.95,26.24C86.98,480.69,82.96,475,78.94,469.32z"/>
		<path style="fill:#FE513E;" d="M91,486.37c12.69-7.36,23.33-17.45,34.95-26.24c15.25-11.53,30.12-23.58,45.15-35.39
			c2.87-2.26,6.15-4.19,6.38-8.44c4.56,0,9.11,0.01,13.67,0.01c-0.84,7.07-7.46,8.92-11.86,12.45
			c-26.36,21.15-53.01,41.93-79.61,62.79c-1.05,0.82-2.51,1.12-3.78,1.67C94.27,490.93,92.64,488.65,91,486.37z"/>
		<path style="fill:#B62FA2;" d="M196.17,54.68c6.26,7.39,12.53,14.78,18.79,22.17c-9.77,5.97-20.15,11.25-25.53,22.26
			c-16.49,0-32.98,0-49.47,0c0.55-5.65,5.47-7.37,9.15-10.24c13.23-10.33,26.48-20.64,39.6-31.11
			C191.01,55.94,193.07,54.23,196.17,54.68z"/>
		<path style="fill:#CE2A87;" d="M189.43,99.11c5.38-11.01,15.76-16.28,25.53-22.26c6.4,7.41,12.8,14.82,19.2,22.22
			C219.25,99.09,204.34,99.1,189.43,99.11z"/>
		<path style="fill:#040202;" d="M193.95,203.64c-10.66,1.9-21.47,0.43-32.21,0.82c-2.69,0.1-3.35-1.45-3.34-3.74
			c0.02-9.91,0.08-19.83-0.05-29.74c-0.04-2.96,1.01-3.99,3.93-3.9c5.09,0.17,10.19,0.05,15.29,0.05v0.17
			c4.81,0,9.65-0.32,14.43,0.07c10.92,0.89,17.05,7.05,17.51,17.07C209.95,193.93,203.76,201.88,193.95,203.64z"/>
	</g>
</g>
</svg>
