<svg id="Icons" height="512" viewBox="0 0 60 60" width="512" xmlns="http://www.w3.org/2000/svg"><path d="m1 7v38c0 3.21 8.86 5.84 20 5.99l22-17.99v-26z" fill="#292d60"/><ellipse cx="22" cy="7" fill="#3b437f" rx="21" ry="6"/><path d="m1 32.993c0 3.314 9.4 6 21 6s21-2.686 21-6v-12.993c0 3.314-9.4 6-21 6s-21-2.686-21-6z" fill="#3b437f"/><rect fill="#aac7c8" height="26" rx="2" width="38" x="21" y="33"/><g fill="#fff"><path d="m40 39a4 4 0 0 0 -4 4v6a4 4 0 0 0 4 4 3.947 3.947 0 0 0 2.019-.567l.274.274a1 1 0 0 0 1.414-1.414l-.274-.274a3.947 3.947 0 0 0 .567-2.019v-6a4 4 0 0 0 -4-4zm1.707 10.293a1 1 0 0 0 -1.414 1.414l.218.218a1.96 1.96 0 0 1 -.511.075 2 2 0 0 1 -2-2v-6a2 2 0 0 1 4 0v6a1.96 1.96 0 0 1 -.075.511z"/><path d="m30 41a2 2 0 0 1 2 2 1 1 0 0 0 2 0 4 4 0 1 0 -4 4 2 2 0 1 1 -2 2 1 1 0 0 0 -2 0 4 4 0 1 0 4-4 2 2 0 0 1 0-4z"/><path d="m53 51h-5v-11a1 1 0 0 0 -2 0v12a1 1 0 0 0 1 1h6a1 1 0 0 0 0-2z"/></g></svg>