<?xml version="1.0" encoding="utf-8"?>
<!-- Generator: Adobe Illustrator 26.1.0, SVG Export Plug-In . SVG Version: 6.00 Build 0)  -->
<svg version="1.1" id="Calque_1" xmlns="http://www.w3.org/2000/svg" xmlns:xlink="http://www.w3.org/1999/xlink" x="0px" y="0px"
	 viewBox="0 0 512 512" style="enable-background:new 0 0 512 512;" xml:space="preserve">
<style type="text/css">
	.st0{fill:#FFF5F5;}
	.st1{fill:#ECE6F2;}
	.st2{fill:#D3CBE4;}
	.st3{fill:#53E261;}
	.st4{fill:#20CA78;}
	.st5{font-family:'ArialRoundedMTBold';}
	.st6{font-size:163.4181px;}
</style>
<g id="_x37_4_x2C__vb_x2C__file_type_x2C__file_format_x2C__file_extension_x2C__document">
	<g id="XMLID_2198_">
		<g id="XMLID_2209_">
			<path id="XMLID_9654_" class="st0" d="M386,16h-20H156c-22.1,0-40,17.9-40,40v120l-10,30l10,30v220c0,22.1,17.9,40,40,40h280
				c22.1,0,40-17.9,40-40V126v-20l-70-20L386,16z"/>
			<path id="XMLID_9653_" class="st1" d="M386,106h90l-90-90V106z"/>
			<g id="XMLID_2226_">
				<g id="XMLID_1031_">
					<path id="XMLID_1032_" class="st2" d="M256,106h-80c-5.5,0-10-4.5-10-10s4.5-10,10-10h80c5.5,0,10,4.5,10,10S261.5,106,256,106
						z"/>
				</g>
			</g>
			<g id="XMLID_2221_">
				<g id="XMLID_1028_">
					<path id="XMLID_1029_" class="st2" d="M336,146H176c-5.5,0-10-4.5-10-10s4.5-10,10-10h160c5.5,0,10,4.5,10,10
						S341.5,146,336,146z"/>
				</g>
			</g>
			<g id="XMLID_2216_">
				<g id="XMLID_1025_">
					<path id="XMLID_1026_" class="st2" d="M336,186H176c-5.5,0-10-4.5-10-10s4.5-10,10-10h160c5.5,0,10,4.5,10,10
						S341.5,186,336,186z"/>
				</g>
			</g>
			<path id="XMLID_9649_" class="st3" d="M391,236H116l-80-30v165.7c0,30,24.4,54.3,54.3,54.3H391c19.3,0,35-15.7,35-35V271
				C426,251.7,410.3,236,391,236L391,236z"/>
			<path id="XMLID_9648_" class="st4" d="M116,236H66c-16.6,0-30-13.4-30-30s13.4-30,30-30h50V236z"/>
		</g>
		<text transform="matrix(1 0 0 1 57.6264 392.4901)" class="st0 st5 st6">VBA</text>
	</g>
</g>
</svg>
