<?xml version="1.0" encoding="utf-8"?>
<!-- Generator: Adobe Illustrator 26.1.0, SVG Export Plug-In . SVG Version: 6.00 Build 0)  -->
<svg version="1.0" id="Capa_1" xmlns="http://www.w3.org/2000/svg" xmlns:xlink="http://www.w3.org/1999/xlink" x="0px" y="0px"
	 viewBox="0 0 512 512" style="enable-background:new 0 0 512 512;" xml:space="preserve">
<g>
	<path style="fill:#1565C0;" d="M294.66,13.01c-2.54-2.05-5.87-2.84-9.05-2.13l-277.33,64C3.4,76-0.05,80.37,0,85.38v362.66
		c0,5.27,3.84,9.74,9.05,10.54l277.33,42.67c5.82,0.89,11.27-3.1,12.16-8.92c0.08-0.54,0.13-1.08,0.13-1.62V21.38
		C298.68,18.12,297.2,15.05,294.66,13.01z M234.26,194.99L191.6,344.32c-1.32,4.58-5.51,7.73-10.27,7.72
		c-4.75,0-8.92-3.15-10.24-7.72l-32.42-113.45l-32.43,113.45c-2.34,5.66-8.83,8.35-14.49,6.01c-2.72-1.12-4.89-3.29-6.01-6.01
		L43.07,194.99c-1.78-5.62,1.32-11.61,6.93-13.4c5.62-1.79,11.62,1.32,13.4,6.93c0.06,0.2,0.12,0.4,0.17,0.6L96,302.55l32.43-113.45
		c2.34-5.66,8.83-8.35,14.49-6.01c2.72,1.13,4.88,3.29,6.01,6.01l32.4,113.45l32.43-113.43c1.54-5.61,7.33-8.92,12.95-7.38
		c0.08,0.02,0.15,0.04,0.23,0.06C232.6,183.43,235.88,189.33,234.26,194.99z"/>
	<path style="fill:#1565C0;" d="M512,64.04v384c0,5.89-4.77,10.67-10.67,10.67H288c-5.89,0-10.67-4.78-10.67-10.67
		c0-5.89,4.78-10.66,10.67-10.66h202.67V74.71H288c-5.89,0-10.67-4.78-10.67-10.67c0-5.89,4.78-10.66,10.67-10.66h213.33
		C507.22,53.38,512,58.15,512,64.04z"/>
</g>
<path style="fill:#FFFFFF;" d="M234.26,194.99L191.6,344.32c-1.32,4.58-5.51,7.73-10.27,7.72c-4.75,0-8.92-3.15-10.24-7.72
	l-32.42-113.45l-32.43,113.45c-2.34,5.66-8.83,8.35-14.49,6.01c-2.72-1.12-4.89-3.29-6.01-6.01L43.07,194.99
	c-1.78-5.62,1.32-11.61,6.93-13.4c5.62-1.79,11.62,1.32,13.4,6.93c0.06,0.2,0.12,0.4,0.17,0.6L96,302.55l32.43-113.45
	c2.34-5.66,8.83-8.35,14.49-6.01c2.72,1.13,4.88,3.29,6.01,6.01l32.4,113.45l32.43-113.43c1.54-5.61,7.33-8.92,12.95-7.38
	c0.08,0.02,0.15,0.04,0.23,0.06C232.6,183.43,235.88,189.33,234.26,194.99z"/>
<g>
	<path style="fill:#1565C0;" d="M469.33,128.04c0,5.89-4.77,10.67-10.66,10.67H288c-5.89,0-10.67-4.78-10.67-10.67
		c0-5.89,4.78-10.66,10.67-10.66h170.67C464.56,117.38,469.33,122.15,469.33,128.04z"/>
	<path style="fill:#1565C0;" d="M469.33,192.04c0,5.89-4.77,10.67-10.66,10.67H288c-5.89,0-10.67-4.78-10.67-10.67
		c0-5.89,4.78-10.66,10.67-10.66h170.67C464.56,181.38,469.33,186.15,469.33,192.04z"/>
	<path style="fill:#1565C0;" d="M469.33,256.04c0,5.89-4.77,10.67-10.66,10.67H288c-5.89,0-10.67-4.78-10.67-10.67
		c0-5.89,4.78-10.66,10.67-10.66h170.67C464.56,245.38,469.33,250.15,469.33,256.04z"/>
	<path style="fill:#1565C0;" d="M469.33,320.04c0,5.89-4.77,10.67-10.66,10.67H288c-5.89,0-10.67-4.78-10.67-10.67
		c0-5.89,4.78-10.66,10.67-10.66h170.67C464.56,309.38,469.33,314.15,469.33,320.04z"/>
	<path style="fill:#FFFFFF;" d="M490.67,74.71v362.67h-192v-42.67h160c5.89,0,10.66-4.78,10.66-10.67c0-5.89-4.77-10.66-10.66-10.66
		h-160v-42.67h160c5.89,0,10.66-4.78,10.66-10.67c0-5.89-4.77-10.66-10.66-10.66h-160v-42.67h160c5.89,0,10.66-4.78,10.66-10.67
		c0-5.89-4.77-10.66-10.66-10.66h-160v-42.67h160c5.89,0,10.66-4.78,10.66-10.67c0-5.89-4.77-10.66-10.66-10.66h-160v-42.67h160
		c5.89,0,10.66-4.78,10.66-10.67c0-5.89-4.77-10.66-10.66-10.66h-160V74.71H490.67z"/>
	<path style="fill:#1565C0;" d="M469.33,384.04c0,5.89-4.77,10.67-10.66,10.67H288c-5.89,0-10.67-4.78-10.67-10.67
		c0-5.89,4.78-10.66,10.67-10.66h170.67C464.56,373.38,469.33,378.15,469.33,384.04z"/>
</g>
</svg>
